<?xml version="1.0" standalone="no"?>
<!DOCTYPE svg PUBLIC "-//W3C//DTD SVG 20010904//EN"
 "http://www.w3.org/TR/2001/REC-SVG-20010904/DTD/svg10.dtd">
<svg version="1.0" xmlns="http://www.w3.org/2000/svg"
 width="900.000000pt" height="600.000000pt" viewBox="0 0 900.000000 600.000000"
 preserveAspectRatio="xMidYMid meet">

<g transform="translate(0.000000,600.000000) scale(0.100000,-0.100000)"
fill="#000000" stroke="none">
<path d="M1101 5808 c0 -106 4 -213 8 -238 5 -25 9 -39 10 -32 1 17 36 15 51
-3 19 -23 4 -65 -23 -65 -18 0 -27 -11 -46 -59 -27 -68 -24 -116 9 -144 19
-16 21 -16 39 2 20 20 38 114 28 151 -3 13 0 20 9 20 8 0 14 7 14 15 0 8 4 15
9 15 18 0 24 43 9 54 -24 18 -27 54 -11 104 12 33 13 47 5 50 -16 5 -16 117 0
145 18 31 37 106 38 145 l0 32 -75 0 -75 0 1 -192z"/>
<path d="M2059 5978 c0 -13 -2 -79 -3 -148 -2 -69 -5 -134 -9 -145 -3 -11 -6
-22 -6 -25 -3 -14 -41 48 -41 68 0 12 -6 22 -12 22 -10 0 -9 3 1 9 7 5 10 14
7 20 -8 12 -66 15 -66 4 0 -5 -14 -8 -30 -9 -23 -1 -30 3 -30 17 0 11 -8 36
-17 58 -14 32 -23 40 -52 45 -20 3 -37 1 -39 -4 -2 -6 -10 -6 -20 0 -27 14
-55 23 -77 24 -13 1 -21 9 -23 24 -2 15 -9 22 -20 20 -14 -3 -16 -14 -14 -63
5 -92 7 -95 59 -95 31 0 43 -4 41 -12 -3 -7 6 -21 19 -31 13 -10 23 -23 23
-29 0 -6 7 -16 16 -22 11 -8 17 -35 20 -91 7 -112 11 -123 37 -127 12 -2 26
-13 32 -25 5 -13 14 -23 18 -23 5 0 5 -40 1 -90 -6 -79 -4 -94 15 -135 12 -25
26 -43 31 -40 9 5 16 -75 13 -141 -1 -17 4 -21 23 -20 24 1 24 3 24 96 0 52 4
111 10 130 5 19 13 83 18 143 9 112 15 128 34 109 10 -10 17 -77 33 -317 7
-95 7 -499 0 -516 -3 -8 -1 -20 4 -27 6 -10 34 3 117 57 60 38 127 83 149 98
l40 29 -3 144 c-2 121 1 151 16 179 24 49 39 49 47 2 7 -41 -2 -261 -11 -293
-5 -16 6 -14 78 13 198 74 488 153 638 174 68 10 141 33 161 51 14 12 15 22 8
47 -5 17 -6 40 -3 49 6 20 44 25 44 5 0 -21 54 -49 68 -35 9 9 12 7 12 -10 0
-19 -6 -22 -36 -22 -21 0 -33 -4 -29 -10 4 -6 12 -9 18 -8 7 1 23 -4 36 -11
24 -13 130 -8 175 8 17 7 13 9 -19 16 -22 5 -43 8 -47 7 -5 -1 -8 3 -8 8 0 5
-6 9 -12 7 -7 -1 -20 12 -28 30 -8 18 -24 33 -35 35 -19 3 -18 5 7 31 29 29
58 36 58 13 0 -17 54 -40 76 -32 11 4 15 2 12 -6 -7 -20 26 -73 48 -76 10 -2
24 -8 29 -14 6 -6 4 -7 -7 -3 -10 4 -26 4 -35 -1 -23 -10 96 -23 155 -16 39 4
42 7 42 34 0 18 -6 31 -17 34 -56 18 -63 26 -63 73 0 43 4 49 65 107 64 61 65
61 79 39 11 -17 14 -52 12 -154 l-3 -131 62 0 c55 0 63 3 75 24 7 14 10 34 7
45 -3 12 -1 21 3 21 5 0 11 -8 13 -17 3 -10 5 -4 6 14 2 60 24 134 38 129 7
-3 13 -1 13 5 0 6 4 8 9 5 11 -7 22 -67 26 -140 5 -91 9 -96 70 -96 l55 0 -5
51 c-2 28 0 59 5 70 6 10 11 37 12 61 0 24 6 46 11 49 7 5 6 21 0 48 -6 23 -7
41 -3 41 4 0 11 7 14 16 5 14 1 16 -22 11 -68 -14 -94 23 -72 102 10 37 19 46
43 42 4 -1 12 10 19 24 6 13 15 22 19 19 5 -3 9 0 9 5 0 6 -4 11 -10 11 -5 0
-10 4 -10 9 0 5 8 8 18 7 14 -1 18 8 20 47 2 30 8 50 18 54 8 3 14 15 14 26 0
20 2 20 26 -6 24 -26 25 -31 14 -55 -13 -28 -25 -186 -12 -165 4 6 16 13 27
15 16 2 21 -3 23 -27 6 -73 21 -101 62 -120 22 -10 43 -15 46 -12 3 3 18 1 33
-4 18 -8 41 -7 77 1 70 17 122 7 130 -25 4 -18 13 -25 31 -25 18 0 24 4 19 15
-4 10 1 15 14 15 11 0 20 5 20 10 0 6 11 10 24 10 13 0 35 9 50 21 25 19 26
20 32 2 3 -10 13 -32 20 -50 8 -18 19 -68 25 -113 5 -44 14 -92 19 -106 6 -14
8 -30 4 -35 -12 -20 30 -193 55 -223 19 -21 91 -55 211 -97 47 -17 112 -45
146 -64 77 -42 312 -196 341 -224 12 -12 25 -21 28 -21 10 0 35 -28 35 -39 0
-6 8 -15 18 -20 10 -5 24 -21 32 -35 7 -14 19 -26 26 -26 7 0 32 -22 57 -49
46 -52 99 -168 124 -271 14 -61 16 -224 4 -310 -9 -58 -6 -74 9 -50 6 9 10 10
10 3 0 -7 -6 -16 -14 -20 -17 -10 -33 -83 -18 -83 6 0 12 17 14 37 l3 37 19
-28 c23 -37 27 -92 6 -88 -8 2 -19 4 -25 5 -5 1 -8 -11 -7 -27 3 -18 0 -26 -7
-22 -6 4 -11 17 -11 29 -1 35 -25 -28 -34 -86 -6 -38 -4 -51 8 -60 22 -17 31
-77 11 -77 -13 0 -21 25 -16 53 0 4 -3 7 -8 7 -15 0 -6 -63 9 -68 8 -3 28 -19
45 -35 l30 -31 3 28 c2 15 -6 43 -17 62 -15 25 -21 52 -21 92 1 57 1 57 19 35
17 -20 38 -98 56 -205 3 -21 10 -38 15 -38 5 0 6 10 3 23 -2 12 -6 55 -8 96
-2 40 -8 78 -14 84 -13 13 -15 61 -2 53 5 -4 12 -30 16 -59 8 -55 29 -107 45
-107 5 0 13 7 18 16 8 14 13 14 32 4 23 -12 23 -12 16 40 -4 29 -14 62 -22 74
-19 27 -19 76 1 76 18 0 30 -24 39 -75 4 -22 13 -60 21 -85 30 -96 42 -169 29
-174 -8 -3 -19 14 -30 45 -19 53 -29 60 -37 29 -7 -28 -26 -25 -39 8 l-11 27
-8 -43 c-10 -55 0 -72 88 -146 35 -31 98 -92 140 -136 41 -44 82 -80 90 -80 8
0 11 -5 7 -12 -5 -8 -2 -9 10 -5 11 4 16 2 14 -6 -4 -22 37 -76 51 -68 10 6
10 10 2 16 -7 3 -9 15 -6 25 3 10 1 21 -5 25 -6 4 -10 29 -9 56 2 41 -2 54
-24 77 -15 16 -27 36 -27 45 0 9 -5 17 -10 17 -6 0 -10 -16 -8 -36 2 -22 -2
-39 -9 -41 -7 -3 -9 3 -6 16 3 12 1 21 -4 21 -5 0 -10 12 -11 28 -1 15 -11 39
-22 55 -14 18 -20 40 -18 67 2 35 18 49 18 15 0 -20 21 -30 31 -14 5 8 9 25 9
39 l0 25 25 -30 24 -30 1 37 c0 55 22 61 44 13 3 -5 12 -1 20 9 9 11 16 15 16
10 0 -6 10 -16 23 -21 16 -8 29 -28 41 -66 19 -62 45 -104 46 -75 0 9 5 18 10
20 6 2 12 33 15 71 3 54 1 67 -10 67 -8 0 -15 6 -15 14 0 9 -7 12 -20 9 -13
-3 -20 0 -20 8 0 8 -7 27 -15 43 -8 15 -13 31 -11 35 2 3 -2 14 -9 24 -8 12
-15 14 -20 8 -19 -32 -48 1 -62 72 -7 35 12 35 29 0 17 -36 31 -35 43 2 10 29
11 30 37 17 15 -7 30 -22 33 -33 4 -12 22 -27 41 -35 21 -9 34 -21 34 -32 0
-10 3 -22 7 -25 14 -15 13 -74 -2 -87 -20 -17 -19 -27 5 -35 16 -5 20 -15 20
-48 0 -27 11 -66 32 -109 29 -60 36 -68 62 -68 31 0 55 23 56 55 0 12 11 25
27 32 24 12 29 10 56 -17 16 -17 33 -30 38 -30 5 0 9 -7 9 -15 0 -8 11 -39 26
-68 20 -41 24 -61 19 -93 -4 -29 -2 -46 8 -56 8 -7 19 -24 26 -36 7 -12 20
-21 29 -20 10 2 21 -7 27 -20 6 -13 16 -20 24 -17 8 3 18 0 23 -7 14 -23 9 8
-7 38 -20 38 -19 53 6 93 12 20 17 36 11 40 -6 3 -14 19 -17 34 -8 31 8 36 40
14 14 -11 17 -22 13 -55 -5 -34 -3 -43 16 -55 13 -9 28 -11 41 -6 17 6 17 8 3
8 -10 1 -18 5 -18 10 0 4 10 6 23 4 21 -4 57 -51 57 -75 0 -6 8 -18 18 -27 11
-9 22 -28 25 -43 4 -15 13 -33 20 -40 35 -37 68 -101 87 -168 12 -41 30 -104
41 -140 21 -73 24 -116 9 -125 -6 -3 -10 1 -10 9 0 19 -17 21 -22 4 -3 -7 -21
4 -45 26 -33 29 -41 44 -41 69 0 18 9 40 20 51 21 20 17 36 -5 18 -10 -9 -18
-8 -32 2 -16 12 -17 16 -6 30 11 13 11 16 1 16 -9 0 -8 5 3 18 19 21 22 42 7
42 -6 0 -15 10 -20 23 -5 13 -9 16 -9 6 -2 -28 -26 -69 -41 -69 -24 1 -43 21
-70 74 -30 57 -67 87 -81 65 -5 -8 -9 -10 -9 -4 0 5 -7 -1 -16 -13 -8 -12 -20
-20 -25 -16 -5 3 -16 1 -24 -6 -11 -9 -18 -7 -34 9 -12 12 -21 27 -21 35 0 17
-38 66 -52 66 -7 0 -9 -15 -5 -40 4 -31 2 -40 -9 -40 -8 0 -18 8 -21 18 -4 9
-16 29 -27 43 -12 15 -28 40 -37 56 -23 41 -67 52 -91 23 -10 -12 -18 -30 -18
-41 0 -26 -19 -33 -39 -15 -22 20 -30 20 -51 1 -23 -20 -45 -10 -71 31 -17 28
-24 32 -35 23 -12 -10 -20 -7 -39 11 -14 13 -25 19 -26 14 0 -5 -4 0 -8 10
-10 26 -41 30 -41 5 0 -11 15 -50 34 -87 18 -37 50 -119 71 -182 34 -103 38
-129 43 -246 8 -230 -34 -379 -161 -567 -153 -226 -368 -399 -709 -569 -297
-149 -595 -239 -1003 -302 -298 -47 -770 -68 -1045 -47 -292 21 -415 32 -430
38 -8 3 -35 7 -60 9 -55 4 -144 18 -315 51 -71 14 -154 29 -184 34 -30 6 -58
12 -62 14 -4 3 -61 19 -126 36 -214 56 -228 60 -293 92 -63 31 -88 57 -56 57
9 0 19 7 22 15 10 25 18 26 539 110 186 30 505 75 640 90 77 9 208 25 290 35
585 75 636 80 605 60 -11 -7 0 -10 38 -10 46 0 52 -2 52 -21 0 -19 4 -20 40
-14 l40 7 0 -67 c0 -65 -1 -67 -22 -61 -13 3 -49 6 -80 6 -45 0 -58 3 -58 15
0 20 -22 19 -42 -3 -8 -9 -26 -25 -39 -34 -29 -23 -21 -30 35 -30 25 0 46 -4
46 -10 0 -6 9 -7 23 -3 12 4 64 9 116 11 52 2 97 8 101 14 4 6 60 12 134 14
76 2 132 8 139 15 15 15 50 14 66 -2 11 -10 14 -9 18 1 7 17 23 5 23 -19 0
-10 6 -19 13 -19 8 0 7 -4 -3 -10 -11 -8 -7 -9 15 -4 17 3 35 7 42 9 6 2 58
-3 115 -11 57 -8 110 -14 118 -13 30 3 39 -1 34 -14 -3 -9 9 -18 36 -27 22 -7
40 -17 40 -23 0 -17 112 12 236 61 131 52 319 153 439 235 107 72 317 248 341
285 15 23 15 24 -8 17 -12 -4 -26 -13 -30 -19 -4 -6 -8 -7 -8 -1 0 6 32 51 71
100 38 50 86 114 105 144 26 39 39 50 45 40 14 -23 31 41 26 95 -3 37 -11 55
-28 69 -24 20 -42 6 -20 -16 6 -6 11 -17 11 -25 0 -7 -11 -1 -25 15 -13 15
-25 22 -25 16 0 -7 5 -13 10 -13 6 0 10 -5 10 -11 0 -6 -9 -8 -20 -4 -25 8
-38 -20 -22 -45 9 -14 6 -22 -14 -39 -25 -22 -39 -28 -30 -12 4 5 0 11 -6 14
-9 3 -6 10 10 22 l22 16 -21 30 c-12 17 -20 31 -18 33 2 2 13 8 24 14 l20 11
-20 1 c-27 0 -49 -15 -41 -29 4 -6 -4 -16 -18 -22 -15 -7 -28 -23 -31 -40 -3
-15 -17 -40 -31 -56 -13 -15 -24 -32 -25 -38 0 -5 -2 -21 -4 -35 -1 -14 2 -31
7 -37 7 -9 3 -16 -14 -23 -19 -9 -23 -19 -23 -45 1 -27 -3 -35 -20 -39 -12 -3
-32 -15 -45 -26 -18 -16 -31 -19 -54 -14 -17 4 -52 6 -78 5 -35 -1 -48 2 -48
13 0 17 -77 39 -83 23 -2 -6 -11 -8 -21 -4 -9 4 -15 11 -12 16 4 5 -11 15 -31
22 -55 17 -61 22 -33 30 21 6 19 7 -13 8 -58 2 -81 28 -78 95 1 34 -3 57 -11
62 -6 4 -13 3 -15 -3 -2 -6 -12 -9 -23 -6 -21 6 -98 -21 -185 -65 -33 -17
-123 -55 -200 -86 -77 -31 -152 -66 -167 -76 -15 -11 -30 -20 -33 -20 -3 0 -5
23 -5 50 0 28 -4 50 -10 50 -5 0 -10 6 -10 14 0 8 -11 28 -24 43 l-25 28 -73
-38 c-204 -107 -277 -141 -385 -177 -152 -51 -250 -67 -513 -85 -118 -8 -233
-17 -255 -20 -158 -21 -412 4 -650 66 -179 46 -206 52 -212 45 -12 -12 80 -64
222 -126 28 -12 58 -26 67 -31 10 -5 31 -9 47 -9 17 0 34 -6 38 -13 11 -18 83
-38 113 -31 24 5 24 5 5 -7 -11 -7 -60 -19 -110 -25 -472 -67 -821 -115 -925
-128 -146 -18 -263 -39 -305 -55 -16 -6 -49 -16 -73 -21 -23 -6 -56 -24 -73
-41 -40 -39 -63 -47 -125 -43 -41 3 -57 -1 -75 -17 -15 -13 -31 -18 -45 -15
-12 3 -41 -1 -64 -9 -53 -19 -60 -19 -60 -1 0 8 -6 17 -12 19 -10 4 -9 8 2 16
22 16 43 13 36 -4 -4 -10 1 -15 15 -15 15 0 19 5 15 15 -3 8 -1 15 4 15 6 0
10 7 10 15 0 13 -8 15 -37 10 -28 -5 -34 -3 -22 4 9 6 31 13 50 16 70 12 73
15 37 35 -18 9 -49 27 -68 38 -19 11 -53 30 -75 42 -22 12 -72 44 -111 70
-112 75 -111 75 -109 34 0 -19 -3 -40 -7 -47 -5 -7 -8 -2 -8 14 0 15 -7 40
-15 55 -9 18 -11 30 -4 32 11 4 -8 32 -21 32 -10 0 -50 -63 -50 -79 0 -22 18
-11 24 15 4 16 11 23 16 18 9 -9 19 -153 10 -151 -15 3 -72 -42 -84 -67 -7
-15 -16 -24 -19 -19 -4 6 3 26 13 46 11 20 20 46 20 58 0 18 3 19 15 9 12 -10
16 -8 25 15 13 34 6 44 -18 22 -53 -50 -64 -58 -69 -53 -3 3 8 19 26 35 37 35
40 50 7 44 l-24 -5 17 49 c20 60 30 75 42 68 23 -15 6 24 -24 53 l-34 33 -13
-41 c-11 -32 -18 -40 -32 -37 -15 4 -18 -1 -18 -35 0 -51 -31 -96 -50 -73 -17
20 -32 19 -27 -2 3 -10 8 -36 11 -58 5 -32 4 -35 -4 -17 -12 29 -32 24 -41 -9
-4 -13 -8 -17 -9 -9 -2 8 -5 -1 -9 -20 -5 -29 -10 -35 -31 -35 -22 0 -25 -5
-28 -42 -2 -24 -7 -43 -11 -43 -5 0 -12 -17 -16 -37 -3 -21 -16 -46 -28 -55
-19 -15 -20 -20 -9 -37 6 -12 12 -48 12 -81 0 -46 -4 -62 -17 -71 -15 -9 -17
-22 -15 -71 3 -48 1 -63 -12 -70 -17 -10 -22 -38 -7 -38 5 0 12 -8 14 -18 4
-16 5 -16 6 1 0 10 5 15 11 12 6 -3 7 1 4 9 -3 9 -10 13 -15 10 -5 -3 -9 -1
-9 5 0 5 4 13 10 16 5 3 10 18 11 33 1 16 6 3 14 -31 13 -59 10 -97 -6 -97 -5
0 -9 5 -9 10 0 6 -5 10 -11 10 -6 0 -8 -9 -4 -21 5 -16 4 -19 -6 -14 -9 6 -11
4 -6 -8 3 -9 3 -19 -2 -21 -4 -3 -5 -26 -1 -51 6 -38 4 -45 -7 -40 -8 3 -17 5
-19 5 -8 0 -4 28 4 32 4 2 6 24 4 51 -3 36 -8 47 -21 46 -10 0 -11 -2 -3 -6
14 -5 17 -70 3 -75 -15 -5 0 -58 16 -58 8 0 12 -4 9 -9 -3 -5 1 -11 9 -15 16
-6 17 -4 20 72 1 29 6 57 11 62 5 5 9 -63 9 -172 0 -198 10 -232 38 -126 l16
63 -5 -55 c-15 -143 -21 -250 -16 -312 l5 -68 53 0 c32 0 55 5 58 13 5 9 7 9
12 0 4 -9 28 -13 67 -13 41 0 57 3 48 9 -16 10 -20 129 -5 153 11 17 5 212 -7
216 -15 6 -10 74 6 92 15 17 24 95 12 107 -6 6 -12 -54 -8 -84 1 -7 -3 -13 -9
-13 -6 0 -9 4 -5 9 3 5 1 12 -5 16 -6 4 -10 -11 -10 -39 0 -25 -5 -48 -10 -51
-5 -3 -10 -11 -10 -16 0 -6 4 -7 10 -4 5 3 10 -2 10 -11 0 -10 -3 -14 -7 -11
-3 4 -12 2 -20 -4 -15 -13 -16 8 -4 82 4 25 4 54 0 65 -6 16 -8 14 -8 -8 -1
-16 -5 -28 -10 -28 -7 0 -8 60 -1 68 1 1 3 10 4 20 1 9 5 22 9 29 4 6 10 32
13 57 5 36 4 46 -7 46 -10 1 -9 5 4 14 10 8 14 17 9 20 -11 7 -37 -21 -46 -51
-4 -11 -13 -24 -21 -27 -19 -7 -19 2 -1 36 9 17 11 29 4 36 -7 7 -5 18 6 33 9
13 16 33 17 44 0 16 3 14 14 -10 l14 -30 1 42 c0 41 0 41 -35 39 -19 -2 -35 0
-36 3 0 3 -2 25 -5 48 -3 23 0 44 6 48 9 6 14 -17 13 -67 0 -27 16 -22 23 7 3
14 12 25 20 25 21 0 17 18 -7 30 -11 7 -18 18 -15 25 3 10 0 12 -12 7 -16 -5
-15 -4 1 21 17 27 15 53 -4 42 -10 -7 -11 10 -3 42 8 27 24 20 24 -10 0 -15 3
-18 11 -10 7 7 8 17 1 29 -23 46 -22 69 7 103 16 19 34 31 39 27 15 -9 31 25
25 54 -3 17 3 34 21 55 14 16 28 26 32 23 3 -4 -1 -14 -10 -24 -10 -10 -14
-24 -11 -36 4 -10 1 -25 -5 -33 -16 -19 -3 -55 21 -55 18 0 19 -6 14 -77 -3
-43 -6 -176 -6 -295 -1 -124 -5 -218 -10 -218 -5 0 -9 -7 -9 -15 0 -8 5 -15
10 -15 6 0 10 -10 9 -22 0 -22 -1 -22 -9 -3 -9 20 -9 20 -9 0 -1 -12 5 -27 12
-34 10 -11 9 -13 -5 -8 -22 8 -23 0 -2 -20 9 -9 12 -22 8 -32 -3 -9 -8 -116
-9 -238 l-3 -222 354 -1 354 0 -1 28 c-1 15 -6 45 -12 67 l-11 40 -5 -32 c-7
-39 -26 -32 -36 12 -5 24 -4 27 5 15 9 -11 13 -12 17 -2 2 6 11 12 18 12 15 0
22 40 17 97 l-4 42 -25 -16 c-18 -12 -21 -18 -11 -24 9 -6 6 -8 -9 -7 -21 2
-23 17 -14 111 1 5 6 5 12 1 8 -4 9 1 4 16 -4 13 -8 44 -8 69 0 37 3 45 16 43
19 -3 24 24 6 30 -14 5 -4 42 18 64 11 11 13 18 5 26 -8 8 -14 4 -21 -15 -13
-35 -20 -34 -32 3 -6 17 -15 30 -20 30 -14 0 -10 37 6 54 19 18 19 21 -2 42
-21 20 -21 85 0 115 8 11 17 17 19 12 5 -9 1 7 -8 35 -4 10 4 6 20 -11 15 -16
24 -33 20 -38 -3 -6 2 -19 12 -30 9 -10 13 -19 8 -19 -5 0 -3 -4 5 -9 11 -7
15 -36 15 -124 1 -63 4 -113 8 -110 8 4 12 -89 9 -222 -2 -83 -3 -284 -2 -297
1 -5 60 -8 131 -8 l130 0 1 208 c1 114 5 293 8 397 l7 190 5 -205 c2 -113 3
-291 2 -397 l-2 -192 234 -1 234 0 4 22 4 23 2 -22 1 -23 3110 0 3110 0 0
3000 0 3000 -3470 0 -3470 0 -1 -22z m1873 -174 l18 -34 -33 -29 c-21 -20 -36
-26 -43 -20 -8 6 -13 3 -16 -9 -4 -13 -13 -18 -29 -17 -22 2 -24 6 -24 61 0
59 0 59 30 59 17 0 33 5 37 10 15 23 43 13 60 -21z m-502 -4 c0 -10 -4 -22
-10 -25 -6 -4 -10 7 -10 25 0 18 4 29 10 25 6 -3 10 -15 10 -25z m-964 -110
c9 -123 -2 -267 -24 -306 -10 -19 -11 -19 -17 1 -4 11 -14 37 -22 57 -13 30
-15 62 -10 160 3 73 10 124 16 126 6 2 15 21 21 43 6 21 14 39 19 39 4 0 12
-54 17 -120z m2468 25 c18 -45 15 -65 -8 -65 -16 0 -26 31 -26 78 0 45 14 40
34 -13z m1827 -128 c8 -7 18 -20 22 -30 3 -9 12 -16 18 -15 18 4 35 -60 21
-74 -8 -8 -15 -8 -26 1 -21 17 -30 -2 -27 -61 2 -42 -1 -48 -18 -48 -10 0 -22
-6 -24 -12 -3 -7 -7 12 -8 42 -2 52 -3 52 -6 13 -5 -56 -23 -55 -23 1 0 24 -3
63 -6 87 -5 36 -2 48 15 66 12 12 21 27 21 33 0 14 21 12 41 -3z m-3121 -73
c11 -26 20 -53 20 -60 0 -8 5 -14 10 -14 6 0 10 -13 10 -30 0 -16 5 -30 10
-30 6 0 13 -7 16 -15 7 -17 -38 -65 -59 -65 -29 0 -85 182 -71 234 10 42 40
33 64 -20z m-653 -121 c3 -10 17 -30 30 -45 l25 -26 -21 -21 c-26 -26 -115
-42 -106 -19 3 8 -3 23 -15 33 -11 10 -20 26 -20 36 0 46 93 82 107 42z m3846
-23 c9 -11 17 -24 17 -28 0 -31 129 -78 144 -53 4 6 16 11 26 11 10 0 20 5 22
11 2 7 23 7 68 -1 36 -7 74 -13 84 -14 12 -2 21 -12 23 -26 2 -13 9 -30 15
-37 10 -13 19 -50 21 -95 1 -10 5 -18 9 -18 4 0 8 -9 8 -20 0 -11 6 -20 13
-20 15 0 66 -55 84 -91 7 -13 16 -46 20 -74 6 -38 14 -52 31 -60 12 -5 22 -15
22 -21 0 -7 8 -15 17 -18 15 -6 15 -9 3 -17 -12 -9 -11 -10 4 -5 11 4 23 1 28
-6 14 -22 9 -38 -12 -38 -12 0 -25 -10 -32 -25 -16 -36 -36 -31 -48 15 -8 28
-15 38 -25 34 -10 -4 -15 0 -15 12 -1 41 -46 66 -147 81 -88 13 -102 13 -160
-3 -42 -11 -62 -21 -59 -30 7 -19 -30 -23 -42 -4 -8 13 -7 21 1 29 9 9 8 15
-5 22 -10 6 -18 22 -18 37 0 72 -43 174 -80 190 -48 21 -65 19 -62 -5 2 -13
-1 -23 -7 -23 -6 0 -9 25 -8 59 1 48 4 58 14 49 10 -8 13 -7 13 4 0 8 -21 20
-52 29 -37 11 -54 21 -57 35 -2 10 -8 22 -14 26 -8 5 -7 13 0 30 l12 23 0 -27
c1 -24 5 -28 31 -28 20 0 30 5 30 15 0 44 40 83 54 53 3 -7 3 -1 0 15 -7 32 5
35 29 7z m-3401 -25 c5 -6 8 -4 8 5 1 8 6 4 11 -9 7 -18 6 -28 -6 -41 -9 -10
-17 -35 -18 -56 -3 -36 -5 -39 -35 -42 -18 -2 -32 1 -32 7 0 6 -7 8 -16 4 -18
-7 -84 27 -84 43 0 6 10 16 23 23 12 6 14 9 5 7 -10 -3 -18 -1 -18 3 0 26 16
41 47 47 20 4 44 15 55 26 16 16 22 17 36 6 9 -7 20 -17 24 -23z m800 -124
c-2 -14 1 -20 10 -19 9 2 13 -9 13 -34 0 -20 4 -40 8 -44 15 -16 6 -24 -28
-24 -21 0 -35 5 -36 13 -2 32 3 123 8 130 10 16 28 0 25 -22z m-1143 -22 c25
-32 8 -107 -26 -115 -32 -8 -51 18 -48 67 4 66 40 89 74 48z m4342 -66 c0 -11
3 -13 6 -5 7 17 23 5 23 -18 0 -10 7 -20 15 -24 8 -3 15 -15 15 -26 0 -15 -7
-20 -25 -20 -15 0 -25 6 -25 14 0 8 -5 16 -10 18 -15 5 -25 78 -11 78 6 0 11
-8 12 -17z m39 -123 c0 -11 -4 -20 -10 -20 -5 0 -10 9 -10 20 0 11 5 20 10 20
6 0 10 -9 10 -20z m30 -15 c0 -8 0 -18 1 -22 0 -4 -4 -9 -10 -11 -6 -2 -11 8
-11 22 0 14 5 26 10 26 6 0 10 -7 10 -15z m-276 -241 c23 -9 20 -21 -6 -27
-22 -6 -48 7 -48 24 0 10 31 12 54 3z m-458 -428 c15 4 22 -2 32 -29 7 -18 23
-40 37 -47 14 -7 25 -21 25 -30 0 -9 9 -25 19 -34 26 -23 32 -72 12 -90 -9 -8
-32 -16 -51 -18 l-35 -3 2 -68 c1 -38 -3 -65 -8 -62 -5 4 -14 -6 -21 -20 l-12
-26 -13 32 c-7 17 -13 40 -13 50 0 11 -4 19 -10 19 -5 0 -10 7 -10 15 0 8 -4
15 -8 15 -4 0 -15 12 -24 28 -9 15 -33 44 -54 65 -20 20 -34 37 -30 37 5 0 2
10 -6 23 -9 13 -13 37 -10 60 3 31 8 37 28 37 17 0 24 6 24 20 0 19 7 22 65
33 11 2 25 0 31 -4 5 -5 19 -6 30 -3z m497 -243 c-13 -2 -33 -2 -45 0 -13 2
-3 4 22 4 25 0 35 -2 23 -4z m20 -50 c3 -16 1 -33 -4 -39 -5 -6 -7 -18 -3 -27
3 -8 0 -18 -6 -22 -8 -5 -8 -11 1 -21 9 -11 7 -14 -10 -14 -15 0 -21 6 -22 23
-1 52 -9 82 -24 93 -27 20 -17 34 24 34 34 0 39 -3 44 -27z m-683 -114 c0 -11
-4 -17 -10 -14 -5 3 -10 13 -10 21 0 8 5 14 10 14 6 0 10 -9 10 -21z m-150
-45 c0 -8 -4 -12 -10 -9 -5 3 -10 10 -10 16 0 5 5 9 10 9 6 0 10 -7 10 -16z
m180 -4 c0 -5 9 -10 20 -10 11 0 20 5 20 11 0 6 10 9 23 7 16 -2 23 -11 25
-32 2 -16 10 -39 17 -50 20 -33 41 -159 26 -164 -9 -3 -9 -7 0 -18 9 -11 7
-14 -10 -14 -14 0 -23 -8 -27 -25 -7 -30 -18 -31 -44 -5 -24 24 -40 26 -40 4
0 -12 -12 -5 -42 21 -37 34 -42 36 -53 21 -15 -20 -25 -21 -25 -2 0 8 -13 24
-29 35 -25 18 -28 26 -26 63 1 24 -4 60 -11 82 -17 46 -17 46 -4 46 6 0 10 -7
10 -15 0 -8 4 -15 9 -15 7 0 21 -46 25 -82 1 -4 7 -13 14 -19 10 -10 15 -10
25 0 6 6 13 16 13 21 1 6 2 14 3 18 0 4 11 8 22 9 30 3 32 6 37 68 2 30 8 55
13 55 5 0 9 -4 9 -10z m228 -29 c-15 -5 -21 7 -13 26 7 17 8 17 15 -2 4 -11 3
-22 -2 -24z m41 -27 c1 -11 8 -36 17 -54 9 -18 18 -51 20 -74 3 -38 11 -75 35
-152 5 -17 9 -40 9 -51 0 -11 9 -30 20 -43 11 -13 20 -32 20 -44 0 -12 7 -34
15 -50 17 -32 20 -76 5 -76 -5 0 -10 8 -10 18 -1 18 -44 73 -57 71 -24 -4 -33
4 -33 30 0 17 5 33 10 36 7 4 7 11 2 18 -5 7 -12 25 -16 41 -7 30 -28 56 -45
56 -16 0 -30 66 -21 105 4 20 4 35 -1 35 -5 0 -9 18 -9 40 0 33 3 40 20 40 20
0 28 15 11 22 -11 4 -14 22 -11 63 1 26 3 27 10 10 5 -11 9 -29 9 -41z m-455
-122 c2 -4 8 -25 12 -47 7 -37 6 -39 -10 -26 -22 18 -47 67 -39 75 9 8 31 8
37 -2z m-124 -16 c0 -3 -4 -8 -10 -11 -5 -3 -10 -1 -10 4 0 6 5 11 10 11 6 0
10 -2 10 -4z m1230 -6 c0 -5 -4 -10 -10 -10 -5 0 -10 5 -10 10 0 6 5 10 10 10
6 0 10 -4 10 -10z m-455 -100 c3 -5 1 -10 -4 -10 -6 0 -11 5 -11 10 0 6 2 10
4 10 3 0 8 -4 11 -10z m192 -35 c3 -20 3 -20 -6 0 -5 11 -10 14 -10 8 -1 -19
-21 -16 -21 3 0 23 34 13 37 -11z m-370 -87 c-3 -8 -6 -5 -6 6 -1 11 2 17 5
13 3 -3 4 -12 1 -19z m-637 -33 c0 -8 -4 -15 -10 -15 -5 0 -10 7 -10 15 0 8 5
15 10 15 6 0 10 -7 10 -15z m1535 -12 c18 -20 25 -40 26 -68 0 -22 3 -49 6
-60 25 -102 19 -183 -12 -152 -22 22 -42 70 -50 117 -4 25 -12 54 -18 65 -12
22 -13 26 -23 68 -7 29 9 57 32 57 7 0 25 -12 39 -27z m-217 -8 c12 -14 28
-41 37 -61 16 -40 20 -120 6 -128 -5 -3 -37 -7 -72 -8 -35 -2 -67 -7 -71 -12
-4 -6 -16 -6 -32 2 -27 12 -34 45 -28 135 3 38 7 47 23 47 10 0 23 9 29 19 9
17 21 22 76 30 6 0 20 -10 32 -24z m-898 -39 c0 -3 -4 -8 -10 -11 -5 -3 -10
-1 -10 4 0 6 5 11 10 11 6 0 10 -2 10 -4z m1563 -128 c12 -13 21 -26 20 -30
-1 -3 4 -12 12 -18 8 -7 15 -22 15 -34 0 -12 14 -37 32 -55 26 -26 29 -34 17
-42 -10 -6 -5 -9 17 -9 20 0 34 -6 38 -16 7 -19 26 -9 26 14 0 9 5 24 10 32 8
13 12 11 30 -7 23 -25 40 -65 40 -93 0 -16 -5 -18 -30 -13 -27 5 -30 3 -30
-21 0 -15 -7 -40 -16 -57 -17 -34 -41 -33 -81 3 l-22 20 -45 -21 c-28 -14 -59
-21 -83 -19 -35 3 -38 5 -40 37 -1 18 -4 45 -8 60 -4 14 -9 50 -10 78 -3 44
-1 55 16 63 11 6 16 16 13 22 -5 8 -1 9 10 5 10 -4 22 -7 27 -7 5 0 9 -9 9
-19 0 -30 11 -51 27 -51 8 0 11 -4 8 -10 -3 -5 -1 -10 4 -10 15 0 14 7 -8 49
-29 53 -46 171 -25 171 2 0 14 -10 27 -22z m-1809 -53 l6 -40 -14 35 c-17 40
-21 85 -7 60 5 -8 12 -33 15 -55z m-129 35 c3 -5 1 -10 -4 -10 -6 0 -11 5 -11
10 0 6 2 10 4 10 3 0 8 -4 11 -10z m-4 -43 c-10 -9 -11 -8 -5 6 3 10 9 15 12
12 3 -3 0 -11 -7 -18z m1761 -220 l27 -22 -20 -33 c-12 -17 -25 -32 -30 -32
-16 0 -30 51 -24 82 8 33 12 34 47 5z m-1308 -252 c-4 -8 -10 -12 -15 -9 -11
6 -2 24 11 24 5 0 7 -7 4 -15z m1088 4 c30 1 35 -9 48 -93 4 -28 15 -87 25
-130 9 -44 15 -94 12 -113 -4 -21 2 -60 14 -100 14 -45 18 -78 14 -106 -15
-95 -25 -99 -60 -23 -21 47 -23 59 -13 81 10 22 8 30 -9 53 -12 15 -28 26 -37
26 -9 -1 -16 2 -16 7 0 5 -5 9 -10 9 -6 0 -8 -15 -4 -40 11 -65 -9 -45 -32 33
-60 199 -79 293 -69 338 3 15 15 36 27 49 17 18 27 21 52 15 17 -4 43 -7 58
-6z m805 -96 c-3 -10 -5 -4 -5 12 0 17 2 24 5 18 2 -7 2 -21 0 -30z m-652 7
c8 0 25 -15 38 -32 32 -43 87 -153 87 -174 0 -10 7 -26 16 -35 9 -10 20 -35
24 -56 4 -21 17 -75 29 -120 12 -46 19 -88 15 -94 -3 -6 0 -16 7 -21 12 -8 11
-9 -1 -5 -22 6 -50 -11 -51 -31 0 -14 -2 -14 -9 3 -5 11 -9 15 -9 8 -1 -17
-49 8 -50 27 -1 8 -3 29 -4 46 -1 17 -8 38 -15 47 -7 8 -14 26 -16 39 -1 13
-8 33 -15 46 -7 13 -11 33 -10 45 4 34 -32 232 -51 282 -10 27 -13 62 -3 38 2
-7 11 -13 18 -13z m242 -119 c3 -14 13 -39 21 -56 19 -37 32 -85 39 -145 3
-25 11 -60 19 -79 8 -18 14 -50 14 -71 0 -21 7 -54 15 -73 17 -40 21 -122 6
-112 -6 3 -13 26 -17 50 -3 25 -10 47 -14 50 -5 3 -20 42 -35 88 -30 92 -66
192 -101 284 -27 69 -30 99 -11 106 22 7 57 -16 64 -42z m216 -76 c9 -19 19
-65 23 -102 4 -37 11 -76 16 -86 13 -25 2 -67 -17 -67 -8 0 -15 -4 -15 -8 0
-5 -13 -9 -30 -9 -21 0 -30 5 -30 17 0 9 -4 20 -9 25 -5 6 -11 28 -15 50 l-6
41 36 -4 36 -4 -16 30 c-9 17 -16 38 -16 47 0 9 -6 18 -14 21 -12 5 -11 9 5
25 10 10 19 28 19 39 0 30 14 24 33 -15z m147 -80 c0 -8 3 -15 8 -15 4 0 13
-24 20 -52 32 -127 32 -115 0 -110 -36 5 -46 27 -24 51 20 22 20 31 1 31 -16
0 -24 28 -23 78 1 31 18 47 18 17z m180 -210 c33 -83 43 -132 30 -140 -20 -12
-40 17 -40 56 0 21 -4 40 -9 43 -12 8 -21 59 -14 87 l6 23 10 -24 c5 -14 13
-34 17 -45z m-103 -133 c-4 -83 -18 -116 -32 -73 -7 24 3 63 19 73 8 5 7 11
-2 20 -13 13 -17 60 -6 71 18 18 25 -13 21 -91z m-460 31 c-3 -3 -11 -2 -17 2
-9 6 -9 10 1 16 14 8 27 -7 16 -18z m-1680 -29 c-3 -3 -12 -4 -19 -1 -8 3 -5
6 6 6 11 1 17 -2 13 -5z m12 -53 c-24 -37 -59 -38 -59 -1 0 11 11 22 28 28 34
12 48 1 31 -27z m1646 -11 c3 -5 -3 -10 -14 -10 -12 0 -21 5 -21 10 0 6 6 10
14 10 8 0 18 -4 21 -10z m323 -44 c2 -15 1 -35 -2 -43 -5 -12 -10 -11 -26 10
-28 35 -27 68 3 63 16 -2 23 -11 25 -30z m-128 -17 c0 -17 -4 -28 -9 -24 -5 3
-9 19 -9 35 1 38 18 28 18 -11z m575 -35 l7 -29 -21 25 c-11 14 -21 36 -21 50
0 24 0 24 14 4 8 -11 18 -34 21 -50z m-85 -29 c0 -26 -14 -33 -25 -15 -9 14 1
40 15 40 5 0 10 -11 10 -25z m-3700 -165 c13 -8 13 -10 -2 -10 -9 0 -20 5 -23
10 -8 13 5 13 25 0z m-180 -50 c0 -10 -37 -20 -72 -20 -33 0 -37 17 -7 28 24
9 79 4 79 -8z m15 -30 c-3 -5 -12 -10 -18 -10 -7 0 -6 4 3 10 19 12 23 12 15
0z m-158 -86 c-3 -3 -12 -4 -19 -1 -8 3 -5 6 6 6 11 1 17 -2 13 -5z m-3347
-54 c0 -5 -5 -10 -11 -10 -5 0 -7 5 -4 10 3 6 8 10 11 10 2 0 4 -4 4 -10z
m-338 -212 c-7 -7 -12 -8 -12 -2 0 14 12 26 19 19 2 -3 -1 -11 -7 -17z m528
12 c0 -5 -5 -10 -11 -10 -5 0 -7 5 -4 10 3 6 8 10 11 10 2 0 4 -4 4 -10z m-26
-15 c4 -12 0 -14 -19 -9 -20 5 -27 1 -34 -19 -5 -14 -15 -28 -20 -32 -6 -3
-11 -19 -11 -35 0 -58 -77 -103 -165 -97 -43 2 -50 6 -58 30 -15 47 -1 75 51
101 59 29 181 69 196 63 9 -3 32 2 52 12 1 1 4 -6 8 -14z m-328 -102 c-4 -23
-1 -57 8 -85 8 -27 11 -48 6 -48 -7 0 -5 -156 5 -312 3 -53 2 -89 -4 -93 -6
-3 -10 6 -10 22 0 15 0 64 -1 108 -1 73 -3 78 -14 52 -9 -21 -10 -42 -3 -77 7
-37 6 -58 -6 -92 l-16 -43 0 40 c0 22 -2 89 -5 149 -5 95 1 155 20 220 4 12 2
16 -5 12 -7 -5 -10 21 -7 86 2 51 4 94 5 96 1 1 8 2 17 2 13 0 15 -7 10 -37z
m4194 23 c0 -2 -9 -6 -20 -9 -11 -3 -20 -1 -20 4 0 5 9 9 20 9 11 0 20 -2 20
-4z m-3602 -136 c0 -16 -4 -30 -9 -30 -5 0 -9 -7 -9 -15 0 -18 -26 -20 -36 -3
-4 6 2 18 12 27 11 9 23 24 27 34 9 25 14 21 15 -13z m-158 5 c-8 -9 -8 -15
-2 -15 6 0 9 -14 6 -32 -7 -52 -7 -140 0 -178 4 -26 3 -30 -3 -15 -9 18 -10
17 -10 -7 -1 -15 4 -30 9 -33 14 -8 13 -26 -1 -22 -6 1 -14 -4 -17 -12 -3 -8
0 -11 6 -7 6 4 10 -2 9 -13 0 -11 -6 -19 -12 -18 -5 1 -9 -9 -7 -23 2 -18 0
-21 -6 -11 -12 16 -27 -3 -16 -20 4 -7 1 -10 -7 -7 -8 3 -14 17 -14 32 -1 19
3 25 13 21 13 -5 13 -3 1 12 -9 11 -10 14 -1 9 7 -4 12 -2 13 6 6 73 5 88 -5
78 -17 -17 -24 -12 -19 13 4 15 2 19 -5 12 -6 -5 -12 -28 -14 -50 l-4 -40 -8
43 c-7 32 -12 42 -24 37 -12 -5 -13 -3 -2 10 10 13 15 13 21 3 4 -7 11 -9 15
-5 4 3 1 13 -6 22 -7 8 -10 15 -8 15 3 0 2 18 -2 40 -6 34 -4 42 11 50 27 15
39 12 39 -10 0 -11 -6 -20 -14 -20 -26 0 -30 -23 -8 -41 12 -9 22 -24 22 -33
0 -9 4 -16 10 -16 5 0 10 19 10 43 1 63 3 77 10 72 4 -2 5 18 2 45 -5 54 1 80
19 80 8 0 8 -4 -1 -15z m-750 -50 c0 -19 -4 -36 -8 -39 -5 -3 -8 14 -8 38 1
51 16 52 16 1z m657 13 c-3 -8 -6 -5 -6 6 -1 11 2 17 5 13 3 -3 4 -12 1 -19z
m-102 -28 c-10 -11 -20 -33 -21 -48 -3 -26 -2 -26 16 8 l19 35 1 -109 c0 -86
-3 -106 -12 -98 -10 8 -13 4 -14 -15 -1 -16 2 -23 11 -19 10 3 13 -17 14 -94
0 -55 3 -111 7 -125 4 -15 2 -25 -5 -25 -12 0 -14 15 -11 98 1 31 -3 52 -9 52
-6 0 -12 -12 -12 -27 -1 -18 -3 -21 -6 -10 -6 22 -23 12 -23 -14 0 -15 5 -19
19 -14 17 5 18 2 11 -29 -5 -22 -4 -36 3 -39 7 -2 7 -9 -1 -23 -6 -10 -12 -13
-12 -6 0 6 -7 12 -15 12 -8 0 -17 11 -21 25 -8 34 3 44 15 14 l10 -24 0 25 c1
14 -8 33 -19 43 -18 15 -21 16 -27 2 -3 -9 -3 -34 0 -55 3 -22 1 -43 -4 -46
-5 -3 -7 -22 -4 -42 l5 -37 -14 35 c-7 19 -11 47 -9 63 2 15 0 27 -6 27 -6 0
-11 9 -11 21 0 11 5 17 10 14 6 -3 10 0 11 7 5 69 8 98 13 131 3 22 2 36 -3
33 -13 -9 -23 26 -11 38 16 16 12 30 -5 16 -24 -20 -29 13 -11 67 9 25 16 63
16 82 0 27 3 32 10 21 5 -8 10 -28 10 -44 0 -28 1 -29 14 -11 12 17 14 9 11
-68 -3 -50 0 -85 5 -82 5 3 5 -7 0 -25 -5 -18 -5 -30 1 -30 5 0 9 5 9 12 0 6
7 3 15 -8 13 -17 14 -17 15 -2 0 9 -5 20 -10 23 -8 5 -8 62 0 85 5 13 -3 56
-12 67 -5 7 -6 31 -2 60 5 26 8 53 9 58 0 6 5 10 12 10 6 0 15 3 19 8 17 16
16 -4 -1 -23z m-55 -10 c0 -11 -4 -20 -9 -20 -5 0 -7 9 -4 20 3 11 7 20 9 20
2 0 4 -9 4 -20z m147 -12 c-3 -8 -6 -5 -6 6 -1 11 2 17 5 13 3 -3 4 -12 1 -19z
m-687 -18 c0 -5 -2 -10 -4 -10 -3 0 -8 5 -11 10 -3 6 -1 10 4 10 6 0 11 -4 11
-10z m970 -17 c0 -20 -3 -24 -11 -16 -7 7 -9 19 -6 27 10 24 17 19 17 -11z
m-161 -24 c-7 -4 -16 -5 -19 -2 -3 3 1 8 8 10 6 3 13 12 13 21 1 14 2 13 6 -2
3 -10 -1 -22 -8 -27z m-342 9 c-3 -8 -6 -5 -6 6 -1 11 2 17 5 13 3 -3 4 -12 1
-19z m435 -20 c-9 -9 -12 -7 -12 12 0 19 3 21 12 12 9 -9 9 -15 0 -24z m-852
-100 c0 -56 -2 -99 -5 -96 -3 2 -6 43 -6 89 -2 96 -1 109 6 109 3 0 5 -46 5
-102z m-27 -23 c-3 -9 -8 -14 -10 -11 -3 3 -2 9 2 15 9 16 15 13 8 -4z m714
-27 c-3 -7 -5 -2 -5 12 0 14 2 19 5 13 2 -7 2 -19 0 -25z m-715 -39 c-3 -18
-8 -26 -12 -19 -9 14 -1 62 9 55 4 -2 6 -18 3 -36z m148 -10 c0 -11 -4 -18
-10 -14 -5 3 -7 12 -3 20 7 21 13 19 13 -6z m517 -41 c-3 -8 -6 -5 -6 6 -1 11
2 17 5 13 3 -3 4 -12 1 -19z m150 -30 c-2 -13 -4 -5 -4 17 -1 22 1 32 4 23 2
-10 2 -28 0 -40z m-50 -15 c-3 -10 -5 -4 -5 12 0 17 2 24 5 18 2 -7 2 -21 0
-30z m143 -14 c0 -5 -7 -9 -15 -9 -15 0 -20 12 -9 23 8 8 24 -1 24 -14z m-551
-56 l0 -68 -15 38 c-14 40 -14 63 -1 85 14 22 17 13 16 -55z m396 48 c3 -5 1
-12 -4 -15 -5 -3 -11 1 -15 9 -6 16 9 21 19 6z m615 -1 c0 -5 -4 -10 -10 -10
-5 0 -10 5 -10 10 0 6 5 10 10 10 6 0 10 -4 10 -10z m-1058 -45 c-4 -5 -9 -28
-13 -50 l-6 -40 -2 52 c0 28 2 59 6 69 6 16 7 16 13 -2 4 -10 5 -23 2 -29z
m505 -27 c-3 -8 -6 -5 -6 6 -1 11 2 17 5 13 3 -3 4 -12 1 -19z m-662 1 c4 -5
4 -21 1 -35 -5 -20 -10 -23 -26 -14 -23 12 -33 13 -25 1 3 -5 1 -12 -4 -16 -6
-3 -8 -12 -4 -20 3 -8 1 -15 -5 -15 -5 0 -12 14 -14 30 -3 20 0 30 9 30 7 0
13 8 13 18 0 14 2 15 10 2 8 -13 11 -11 16 8 7 24 19 29 29 11z m662 -66 c-3
-10 -5 -2 -5 17 0 19 2 27 5 18 2 -10 2 -26 0 -35z m556 -90 c3 -76 1 -135 -4
-139 -5 -3 -9 54 -9 137 0 78 2 140 4 138 2 -2 7 -64 9 -136z m44 40 c-3 -10
-5 -2 -5 17 0 19 2 27 5 18 2 -10 2 -26 0 -35z m-1269 -13 c-5 -17 -14 -30
-19 -30 -11 0 -11 0 2 38 6 18 15 30 19 27 5 -3 4 -19 -2 -35z m409 18 c-3 -8
-6 -5 -6 6 -1 11 2 17 5 13 3 -3 4 -12 1 -19z m-342 -6 c-3 -7 -5 -24 -5 -37
0 -13 -7 -30 -15 -39 -8 -8 -15 -26 -15 -40 0 -14 -4 -27 -9 -30 -5 -3 -5 -21
-1 -40 5 -22 3 -39 -4 -47 -8 -9 -8 -10 2 -5 17 10 15 -14 -3 -38 -13 -18 -15
-18 -16 -3 -1 9 -2 23 -3 30 -1 6 2 23 6 36 10 27 -10 49 -25 28 -6 -8 -7 -7
-4 3 2 8 11 14 19 14 10 -1 14 5 11 17 -3 10 -9 16 -14 13 -5 -3 -9 -1 -9 5 0
16 22 25 29 12 4 -6 6 16 5 51 -2 34 1 67 6 73 13 16 52 14 45 -3z m1102 -14
c-3 -7 -5 -2 -5 12 0 14 2 19 5 13 2 -7 2 -19 0 -25z m-1209 -39 c3 -36 -13
-31 -20 6 -3 15 -1 25 6 25 7 0 13 -14 14 -31z m1321 -121 c1 -84 0 -150 -3
-148 -10 10 -18 300 -8 300 5 0 10 -66 11 -152z m-112 120 c-3 -8 -6 -5 -6 6
-1 11 2 17 5 13 3 -3 4 -12 1 -19z m160 0 c-3 -8 -6 -5 -6 6 -1 11 2 17 5 13
3 -3 4 -12 1 -19z m-1127 -28 c0 -16 -4 -30 -8 -30 -5 0 -8 10 -6 23 1 12 3
25 3 30 3 21 11 3 11 -23z m150 10 c0 -11 -4 -20 -10 -20 -5 0 -10 9 -10 20 0
11 5 20 10 20 6 0 10 -9 10 -20z m-371 -34 c-21 -17 -22 -86 -1 -103 16 -14
16 -14 -1 -9 -10 3 -15 2 -12 -3 3 -5 1 -12 -5 -16 -5 -3 -10 -1 -10 6 0 8 -4
8 -15 -1 -12 -10 -15 -10 -15 4 0 9 5 16 10 16 6 0 10 9 10 19 0 11 -4 23 -10
26 -15 9 -13 66 3 64 26 -3 35 2 42 24 7 20 7 21 12 3 3 -11 -1 -24 -8 -30z
m325 -47 c-6 -57 -5 -63 17 -81 15 -12 18 -18 7 -15 -17 6 -28 -11 -34 -52 -4
-35 -14 -38 -14 -5 0 17 5 35 12 42 8 8 9 18 1 34 -7 16 -7 41 0 81 6 31 12
57 14 57 2 0 1 -28 -3 -61z m-234 34 c0 -5 -8 -17 -17 -28 -14 -18 -15 -18 -9
-2 3 10 6 23 6 28 0 5 5 9 10 9 6 0 10 -3 10 -7z m269 -48 c-1 -30 -6 -55 -11
-55 -9 0 -9 73 0 98 9 25 12 10 11 -43z m828 -52 c-2 -21 -4 -4 -4 37 0 41 2
58 4 38 2 -21 2 -55 0 -75z m166 82 c-7 -21 -13 -19 -13 6 0 11 4 18 10 14 5
-3 7 -12 3 -20z m54 3 c-3 -8 -6 -5 -6 6 -1 11 2 17 5 13 3 -3 4 -12 1 -19z
m-1218 -15 c0 -25 -1 -25 -8 -8 -5 11 -7 23 -4 28 8 14 13 7 12 -20z m369 -27
c-1 -14 -7 -22 -15 -19 -9 4 -9 9 0 24 15 25 17 24 15 -5z m39 -8 c-3 -7 -5
-2 -5 12 0 14 2 19 5 13 2 -7 2 -19 0 -25z m220 0 c-3 -8 -6 -5 -6 6 -1 11 2
17 5 13 3 -3 4 -12 1 -19z m541 -45 c1 -36 -1 -64 -4 -61 -9 9 -14 128 -5 128
4 0 8 -30 9 -67z m-1288 0 c-11 -17 -11 -17 -6 0 3 10 7 26 7 35 1 15 2 15 6
0 2 -10 -1 -25 -7 -35z m1167 15 c-3 -8 -6 -5 -6 6 -1 11 2 17 5 13 3 -3 4
-12 1 -19z m-707 -2 c0 -3 -4 -8 -10 -11 -5 -3 -10 -1 -10 4 0 6 5 11 10 11 6
0 10 -2 10 -4z m90 -23 c0 -19 -3 -24 -10 -17 -6 6 -8 18 -4 27 9 24 14 21 14
-10z m797 -55 c-2 -13 -4 -5 -4 17 -1 22 1 32 4 23 2 -10 2 -28 0 -40z m-840
20 c-3 -8 -6 -5 -6 6 -1 11 2 17 5 13 3 -3 4 -12 1 -19z m621 -20 c1 -23 -2
-28 -8 -18 -12 19 -13 50 -2 50 5 0 9 -14 10 -32z m-1041 0 c-3 -8 -6 -5 -6 6
-1 11 2 17 5 13 3 -3 4 -12 1 -19z m1093 7 c0 -8 -4 -15 -10 -15 -5 0 -10 7
-10 15 0 8 5 15 10 15 6 0 10 -7 10 -15z m254 0 c-4 -8 -8 -15 -10 -15 -2 0
-4 7 -4 15 0 8 4 15 10 15 5 0 7 -7 4 -15z m-1523 -18 c-13 -13 -26 -3 -16 12
3 6 11 8 17 5 6 -4 6 -10 -1 -17z m536 1 c-3 -8 -6 -5 -6 6 -1 11 2 17 5 13 3
-3 4 -12 1 -19z"/>
<path d="M6896 3665 c-10 -26 -7 -35 9 -35 17 0 19 18 6 38 -7 11 -10 10 -15
-3z"/>
<path d="M8136 2153 c11 -43 34 -73 56 -73 15 0 18 4 13 18 -4 9 -10 26 -13
37 -8 30 -22 45 -43 45 -16 0 -18 -5 -13 -27z"/>
<path d="M8460 2236 c0 -2 7 -6 15 -10 8 -3 15 -1 15 4 0 6 -7 10 -15 10 -8 0
-15 -2 -15 -4z"/>
<path d="M1560 625 c0 -17 -2 -17 -10 -5 -8 12 -10 11 -10 -7 0 -24 15 -29 40
-13 13 8 13 11 -2 27 -17 16 -18 16 -18 -2z"/>
<path d="M1536 567 c3 -10 9 -15 12 -12 3 3 0 11 -7 18 -10 9 -11 8 -5 -6z"/>
<path d="M1210 305 c0 -8 5 -15 10 -15 6 0 10 7 10 15 0 8 -4 15 -10 15 -5 0
-10 -7 -10 -15z"/>
<path d="M1116 204 c-4 -9 -4 -19 -1 -22 2 -3 7 3 11 12 4 9 4 19 1 22 -2 3
-7 -3 -11 -12z"/>
<path d="M1486 5585 c4 -8 1 -21 -5 -29 -18 -21 0 -90 25 -94 15 -2 24 7 37
36 22 51 21 68 -5 86 -29 21 -59 21 -52 1z"/>
<path d="M4386 5458 c-19 -69 -31 -98 -38 -98 -4 0 -8 -9 -8 -20 0 -11 -4 -20
-10 -20 -5 0 -10 -9 -10 -20 0 -11 5 -20 10 -20 6 0 10 9 10 20 0 16 7 20 30
20 31 0 34 6 30 62 -1 15 3 35 8 45 10 20 5 43 -9 43 -5 0 -11 -6 -13 -12z"/>
<path d="M4347 5262 c-10 -10 -15 -21 -12 -24 3 -3 6 -39 7 -81 0 -43 4 -77 8
-77 13 0 23 63 21 127 -2 52 1 62 16 66 15 4 15 5 -3 6 -11 0 -28 -7 -37 -17z"/>
<path d="M1945 4990 c-3 -5 3 -10 15 -10 12 0 18 5 15 10 -3 6 -10 10 -15 10
-5 0 -12 -4 -15 -10z"/>
<path d="M3380 4830 c0 -5 5 -10 10 -10 6 0 10 5 10 10 0 6 -4 10 -10 10 -5 0
-10 -4 -10 -10z"/>
<path d="M3905 4830 c3 -5 8 -10 11 -10 2 0 4 5 4 10 0 6 -5 10 -11 10 -5 0
-7 -4 -4 -10z"/>
<path d="M4092 4748 c5 -15 48 -24 48 -10 0 10 -23 22 -42 22 -5 0 -8 -6 -6
-12z"/>
<path d="M3485 4730 c-3 -5 3 -10 15 -10 12 0 18 5 15 10 -3 6 -10 10 -15 10
-5 0 -12 -4 -15 -10z"/>
<path d="M4240 4725 c-9 -11 -23 -13 -51 -9 -32 5 -39 4 -39 -10 0 -12 10 -16
39 -16 31 0 41 -5 46 -20 6 -18 7 -18 40 -2 41 20 42 28 13 53 -28 23 -32 23
-48 4z"/>
<path d="M1510 4698 c0 -19 2 -20 10 -8 13 19 13 30 0 30 -5 0 -10 -10 -10
-22z"/>
<path d="M3480 4669 c-14 -4 -37 -11 -52 -14 -41 -8 -36 -33 5 -27 17 2 37 9
44 14 7 5 14 5 18 -2 8 -13 26 -13 45 0 13 9 12 12 -4 25 -22 17 -21 16 -56 4z"/>
<path d="M4030 4652 c0 -12 19 -26 26 -19 2 2 -2 10 -11 17 -9 8 -15 8 -15 2z"/>
<path d="M3572 4637 c-14 -16 -6 -27 20 -27 13 0 18 6 16 17 -4 22 -22 27 -36
10z"/>
<path d="M4202 4631 c-26 -16 -9 -46 26 -49 l33 -3 -16 30 c-17 33 -22 36 -43
22z"/>
<path d="M3170 4610 c-13 -8 -12 -10 3 -10 9 0 17 5 17 10 0 12 -1 12 -20 0z"/>
<path d="M4080 4610 c0 -5 4 -10 9 -10 6 0 13 5 16 10 3 6 -1 10 -9 10 -9 0
-16 -4 -16 -10z"/>
<path d="M3260 4590 c0 -5 12 -10 28 -10 21 0 24 2 12 10 -20 13 -40 13 -40 0z"/>
<path d="M3858 4564 c-3 -3 -30 -6 -59 -7 -32 -1 -54 -7 -57 -14 -2 -8 5 -13
18 -13 26 0 66 -35 51 -45 -6 -3 -15 -4 -20 -1 -5 4 -11 2 -13 -4 -5 -16 -48
19 -48 39 0 11 -7 22 -16 25 -23 9 -36 7 -29 -3 12 -20 -17 -22 -31 -2 -21 30
-43 26 -55 -9 -12 -32 -34 -31 -26 1 7 27 -16 24 -47 -5 -31 -28 -32 -36 -6
-36 11 0 20 -4 20 -10 0 -13 -16 -13 -39 2 -10 6 -26 8 -35 5 -20 -8 -21 -37
-2 -37 11 0 12 -5 3 -25 -16 -33 -39 -33 -31 0 5 20 2 25 -13 25 -11 0 -26
-11 -33 -25 -7 -14 -16 -25 -20 -25 -4 0 -12 11 -18 25 -8 17 -20 25 -36 25
-27 0 -42 -15 -26 -25 7 -5 5 -12 -7 -22 -13 -10 -15 -16 -5 -19 20 -9 14 -27
-7 -21 -15 3 -20 -2 -25 -25 -5 -25 -10 -29 -28 -25 -12 4 -27 2 -34 -4 -8 -7
-14 -7 -19 1 -12 20 -35 10 -35 -15 0 -17 -6 -25 -17 -25 -13 0 -14 -3 -5 -12
9 -9 16 -7 29 8 20 22 53 21 53 -2 0 -8 7 -14 16 -14 8 0 23 -7 31 -16 14 -13
14 -17 2 -25 -12 -8 -11 -11 4 -20 25 -15 21 -28 -7 -26 -14 1 -25 -2 -25 -6
0 -10 -32 -36 -45 -37 -5 0 -3 7 4 15 11 13 8 15 -14 15 -30 0 -47 -27 -25
-40 7 -5 10 -12 6 -17 -5 -4 -11 -2 -15 4 -11 17 -57 10 -54 -9 1 -10 -7 -18
-23 -22 -14 -4 -29 -14 -32 -24 -3 -9 -14 -25 -24 -34 -33 -33 2 -93 48 -82
12 4 23 2 23 -4 0 -13 -51 -22 -70 -12 -17 9 -49 -4 -38 -15 3 -4 33 -7 67 -8
46 -2 61 1 61 12 0 9 8 12 26 8 17 -3 29 1 36 13 9 13 14 15 24 6 8 -7 9 -15
2 -23 -11 -14 -4 -17 42 -26 14 -2 34 -8 44 -12 15 -7 18 -5 13 8 -5 13 0 15
26 12 43 -4 78 -16 73 -24 -3 -4 11 -17 30 -30 39 -27 43 -41 13 -41 -11 0
-17 -5 -14 -10 4 -6 11 -8 16 -4 6 3 21 3 34 0 21 -5 24 -11 19 -35 -5 -23 -2
-29 18 -34 43 -12 52 -9 37 10 -12 15 -12 16 4 10 9 -3 17 -2 17 3 0 5 -10 11
-22 13 -22 4 -22 4 -2 6 11 0 29 -8 39 -19 10 -11 26 -20 37 -20 10 0 18 -7
18 -15 0 -8 -7 -15 -16 -15 -9 0 -14 -6 -11 -12 4 -13 18 -14 95 -8 l37 3 -37
10 c-21 6 -38 15 -38 20 0 5 10 6 23 2 20 -6 49 -12 70 -14 5 -1 5 -10 2 -21
-6 -18 -2 -20 32 -20 21 0 56 -5 78 -10 22 -5 41 -7 44 -5 8 9 -32 45 -50 45
-10 0 -21 5 -24 10 -8 14 38 13 69 -1 14 -7 23 -16 20 -20 -2 -4 17 -6 43 -4
26 2 58 4 70 4 12 1 32 12 45 25 22 24 85 55 74 37 -10 -16 21 -32 51 -25 43
10 46 14 23 34 -26 22 -15 30 39 28 23 -1 46 3 52 9 12 12 59 5 59 -8 0 -5 11
-9 25 -9 14 0 25 5 25 10 0 6 -9 10 -19 10 -11 0 -22 4 -26 10 -3 5 -13 6 -23
3 -15 -6 -15 -5 -3 10 10 13 17 15 27 6 8 -6 46 -13 85 -16 62 -4 71 -2 66 11
-14 36 23 62 50 35 13 -13 73 -3 73 12 0 5 -4 9 -10 9 -5 0 -10 5 -10 10 0 13
33 13 46 1 16 -16 81 -24 89 -11 5 9 2 10 -12 6 -12 -4 -25 -1 -33 9 -7 8 -19
15 -26 15 -8 0 -14 5 -14 10 0 6 -11 10 -25 10 -14 0 -25 4 -25 9 0 16 27 31
45 25 9 -4 36 -7 58 -8 l41 -1 2 57 c2 56 1 57 -31 68 -18 6 -37 10 -41 9 -23
-4 -26 2 -8 16 25 19 75 19 118 -1 34 -17 66 -14 66 6 0 5 -10 10 -23 10 -13
0 -28 5 -34 11 -6 6 -39 12 -73 14 -73 5 -91 16 -60 38 13 9 17 17 11 22 -6 3
-11 1 -11 -5 0 -7 -6 -10 -12 -7 -7 2 -12 11 -10 19 3 19 -26 32 -42 19 -6 -5
-20 -5 -31 -1 -19 7 -19 8 5 18 19 7 25 17 25 37 -1 15 -7 30 -14 34 -9 6 -7
10 8 14 24 6 29 27 6 27 -9 0 -15 9 -15 25 0 18 -8 29 -27 38 -16 6 -33 19
-40 27 -10 13 -15 11 -34 -14 -15 -20 -22 -40 -20 -59 3 -28 1 -29 -26 -23
-73 18 -78 18 -102 -8 -14 -14 -28 -26 -33 -26 -16 0 -8 41 10 46 9 3 26 10
37 15 19 9 19 9 -1 6 -21 -2 -74 20 -86 37 -7 10 -100 37 -106 31 -10 -10 36
-54 56 -55 29 0 28 -12 -2 -26 -21 -10 -25 -9 -29 8 -5 17 -12 18 -70 12 -71
-7 -92 4 -56 30 18 12 20 18 10 30 -18 21 9 28 32 8 14 -12 20 -13 26 -4 4 7
34 16 66 20 65 8 83 26 35 35 -18 4 -34 16 -41 30 -8 19 -19 24 -50 25 -28 1
-41 -3 -46 -14 -4 -12 -14 -14 -39 -9 -36 6 -44 -4 -19 -25 13 -11 13 -14 -2
-26 -10 -7 -25 -14 -34 -14 -17 0 -99 59 -99 72 0 12 48 10 55 -2 9 -14 47
-12 43 2 -5 13 -59 30 -95 29 -12 0 -25 4 -28 9 -7 11 -19 13 -27 4z m303 -97
c-17 -17 -22 -18 -35 -7 -22 17 -20 25 7 37 35 16 54 -4 28 -30z m-396 -47
c-3 -5 -11 -10 -16 -10 -6 0 -7 5 -4 10 3 6 11 10 16 10 6 0 7 -4 4 -10z m222
-25 c7 -20 -2 -29 -21 -22 -9 4 -13 13 -10 22 8 19 23 19 31 0z m-342 -35 c-3
-5 -13 -10 -21 -10 -8 0 -12 5 -9 10 3 6 13 10 21 10 8 0 12 -4 9 -10z m-325
-40 c0 -5 -7 -10 -15 -10 -8 0 -15 5 -15 10 0 6 7 10 15 10 8 0 15 -4 15 -10z
m778 -22 c-7 -19 -38 -22 -38 -4 0 10 9 16 21 16 12 0 19 -5 17 -12z m332 -7
c0 -27 -21 -60 -34 -55 -15 6 -28 42 -20 56 7 11 54 10 54 -1z m71 -28 c11
-30 4 -62 -12 -46 -5 5 -13 24 -18 41 -8 26 -7 32 5 32 8 0 19 -12 25 -27z
m-441 -16 c0 -9 -10 -12 -30 -9 -16 2 -30 8 -30 13 0 5 14 9 30 9 18 0 30 -5
30 -13z m125 -6 c-3 -5 -1 -12 4 -16 7 -4 7 -15 1 -31 -6 -14 -7 -31 -3 -37 4
-7 -7 -1 -24 13 -18 14 -32 27 -32 30 -1 9 14 25 34 37 25 15 28 15 20 4z
m-665 -11 c0 -5 -4 -10 -10 -10 -5 0 -10 5 -10 10 0 6 5 10 10 10 6 0 10 -4
10 -10z m580 -20 c12 -8 11 -10 -7 -10 -13 0 -23 5 -23 10 0 13 11 13 30 0z
m345 0 c4 -6 -7 -10 -25 -10 -18 0 -29 4 -25 10 3 6 15 10 25 10 10 0 22 -4
25 -10z m-545 -10 c0 -5 -4 -10 -10 -10 -5 0 -10 5 -10 10 0 6 5 10 10 10 6 0
10 -4 10 -10z m415 -9 c-3 -6 -11 -11 -17 -11 -6 0 -6 6 2 15 14 17 26 13 15
-4z m-327 -3 c-3 -7 -13 -15 -23 -16 -15 -4 -16 -2 -4 12 17 19 32 21 27 4z
m285 5 c4 -3 -2 -13 -14 -21 -21 -15 -31 -11 -35 13 -2 15 36 22 49 8z m187
-39 c0 -19 -26 -18 -34 2 -3 8 -2 12 4 9 6 -3 10 -1 10 5 0 6 5 8 10 5 6 -3
10 -13 10 -21z m-1155 6 c-3 -5 -13 -10 -21 -10 -8 0 -12 5 -9 10 3 6 13 10
21 10 8 0 12 -4 9 -10z m831 -5 c18 -14 18 -14 -8 -15 -18 0 -28 5 -28 15 0
19 11 19 36 0z m424 -5 c0 -5 -4 -10 -10 -10 -5 0 -10 5 -10 10 0 6 5 10 10
10 6 0 10 -4 10 -10z m-150 -10 c0 -5 -9 -10 -19 -10 -11 0 -23 5 -26 10 -4 6
5 10 19 10 14 0 26 -4 26 -10z m-1154 -22 c-1 -13 -7 -27 -14 -31 -10 -6 -9
-12 4 -24 18 -18 4 -39 -20 -30 -12 5 -13 13 -5 42 6 20 8 43 5 51 -3 9 1 14
13 14 12 0 17 -7 17 -22z m1193 -36 c-12 -5 -39 17 -39 30 0 5 11 1 24 -9 13
-10 20 -20 15 -21z m-1089 -10 c0 -1 -9 2 -20 8 -11 6 -20 15 -20 20 0 6 9 2
20 -7 11 -10 20 -19 20 -21z m105 -2 c-3 -5 -12 -10 -18 -10 -7 0 -6 4 3 10
19 12 23 12 15 0z m915 0 c0 -5 8 -10 17 -10 9 0 14 -2 11 -5 -9 -9 -58 6 -52
16 7 12 24 11 24 -1z m216 -20 c8 0 24 -9 36 -20 26 -24 19 -25 -27 -6 -22 10
-35 22 -34 33 0 10 3 13 6 6 2 -7 11 -13 19 -13z m94 -51 c0 -5 -7 -9 -15 -9
-15 0 -20 12 -9 23 8 8 24 -1 24 -14z m-1616 -3 c-3 -8 1 -16 11 -18 13 -2 12
-5 -5 -16 -18 -11 -20 -10 -20 18 0 16 4 30 10 30 5 0 7 -6 4 -14z m126 -1 c8
-2 17 -4 20 -5 3 -1 8 -2 13 -1 9 1 9 -3 1 -23 -8 -20 -24 -21 -24 -1 0 8 -8
15 -19 15 -10 0 -34 7 -52 16 l-34 15 40 -6 c22 -3 47 -8 55 -10z m1415 -10
c0 -5 -10 -11 -22 -13 -16 -2 -23 2 -23 13 0 11 7 15 23 13 12 -2 22 -7 22
-13z m-625 -5 c0 -5 -5 -10 -11 -10 -5 0 -7 5 -4 10 3 6 8 10 11 10 2 0 4 -4
4 -10z m-250 -10 c0 -5 -5 -10 -11 -10 -5 0 -7 5 -4 10 3 6 8 10 11 10 2 0 4
-4 4 -10z m813 -33 c24 -9 21 -23 -5 -31 -35 -9 -41 -7 -29 8 6 7 9 22 5 32
-3 11 -2 15 3 8 4 -6 16 -13 26 -17z m-1013 -7 c0 -5 -2 -10 -4 -10 -3 0 -8 5
-11 10 -3 6 -1 10 4 10 6 0 11 -4 11 -10z m-270 -10 c0 -5 -2 -10 -4 -10 -3 0
-8 5 -11 10 -3 6 -1 10 4 10 6 0 11 -4 11 -10z m1000 -10 c0 -5 -4 -10 -10
-10 -5 0 -10 5 -10 10 0 6 5 10 10 10 6 0 10 -4 10 -10z m-910 -10 c0 -5 -4
-10 -10 -10 -5 0 -10 5 -10 10 0 6 5 10 10 10 6 0 10 -4 10 -10z m1124 -15
c-15 -11 -16 -15 -4 -15 8 -1 2 -7 -15 -15 -16 -7 -23 -14 -15 -14 10 -1 8 -6
-8 -17 -28 -19 -41 -12 -35 20 4 17 10 22 23 19 11 -3 19 2 23 16 3 14 13 21
28 21 22 0 22 0 3 -15z m126 -16 c0 -16 -5 -18 -27 -13 -42 10 -46 15 -27 29
23 16 54 7 54 -16z m-940 1 c0 -5 -2 -10 -4 -10 -3 0 -8 5 -11 10 -3 6 -1 10
4 10 6 0 11 -4 11 -10z m270 0 c0 -5 -5 -10 -11 -10 -5 0 -7 5 -4 10 3 6 8 10
11 10 2 0 4 -4 4 -10z m-525 -10 c8 -13 -5 -13 -25 0 -13 8 -13 10 2 10 9 0
20 -4 23 -10z m887 -72 c-6 -6 -15 -8 -19 -4 -4 4 -1 11 7 16 19 12 27 3 12
-12z m-252 -82 c0 -3 -4 -8 -10 -11 -5 -3 -10 -1 -10 4 0 6 5 11 10 11 6 0 10
-2 10 -4z m-259 -16 c6 0 8 -4 5 -9 -8 -12 -46 -2 -46 11 0 6 7 7 16 4 9 -3
20 -6 25 -6z"/>
<path d="M3120 4545 c0 -12 28 -35 44 -35 14 0 4 30 -13 40 -26 13 -31 13 -31
-5z"/>
<path d="M3235 4550 c3 -5 8 -10 11 -10 2 0 4 5 4 10 0 6 -5 10 -11 10 -5 0
-7 -4 -4 -10z"/>
<path d="M4954 4536 c-10 -8 -16 -18 -12 -22 10 -9 58 12 58 26 0 14 -23 12
-46 -4z"/>
<path d="M1913 4533 c-7 -2 -13 -13 -13 -23 0 -9 -7 -23 -15 -30 -9 -7 -15
-20 -13 -29 1 -9 -1 -21 -5 -28 -4 -6 -3 -14 2 -17 13 -8 54 51 45 65 -4 7 -3
9 3 6 12 -8 23 14 23 44 0 19 -5 21 -27 12z"/>
<path d="M4510 4500 c0 -5 9 -10 20 -10 11 0 20 5 20 10 0 6 -9 10 -20 10 -11
0 -20 -4 -20 -10z"/>
<path d="M3340 4490 c0 -5 12 -10 26 -10 14 0 23 4 19 10 -3 6 -15 10 -26 10
-10 0 -19 -4 -19 -10z"/>
<path d="M4415 4470 c-3 -5 1 -10 9 -10 8 0 18 5 21 10 3 6 -1 10 -9 10 -8 0
-18 -4 -21 -10z"/>
<path d="M4737 4464 c-12 -13 4 -24 34 -24 20 0 29 4 27 13 -5 13 -50 22 -61
11z"/>
<path d="M2694 4446 c-4 -11 -1 -22 7 -27 19 -12 22 -11 45 6 19 14 19 14 -1
15 -12 0 -26 5 -33 12 -9 9 -13 7 -18 -6z"/>
<path d="M4290 4420 c0 -5 7 -10 15 -10 8 0 15 5 15 10 0 6 -7 10 -15 10 -8 0
-15 -4 -15 -10z"/>
<path d="M2600 4409 c0 -5 5 -7 10 -4 6 3 10 8 10 11 0 2 -4 4 -10 4 -5 0 -10
-5 -10 -11z"/>
<path d="M4620 4390 c0 -17 7 -20 42 -20 40 0 41 0 23 20 -10 11 -29 20 -42
20 -16 0 -23 -6 -23 -20z"/>
<path d="M4385 4380 c-3 -5 -1 -10 4 -10 6 0 11 5 11 10 0 6 -2 10 -4 10 -3 0
-8 -4 -11 -10z"/>
<path d="M4440 4380 c0 -5 5 -10 11 -10 5 0 7 5 4 10 -3 6 -8 10 -11 10 -2 0
-4 -4 -4 -10z"/>
<path d="M5128 4383 c7 -3 16 -2 19 1 4 3 -2 6 -13 5 -11 0 -14 -3 -6 -6z"/>
<path d="M4800 4375 c0 -21 32 -75 44 -75 20 0 21 24 2 40 -8 6 -12 18 -9 26
3 9 -2 14 -16 14 -12 0 -21 -2 -21 -5z"/>
<path d="M2760 4355 c-18 -21 -3 -32 16 -13 10 9 12 18 6 22 -5 3 -15 -1 -22
-9z"/>
<path d="M2830 4330 c-14 -11 -30 -20 -37 -20 -7 0 -17 -9 -24 -21 -8 -15 -18
-20 -35 -16 -32 6 -41 -9 -10 -17 31 -8 56 2 56 21 0 12 8 13 39 8 38 -6 63 6
41 20 -6 4 -8 15 -5 26 8 23 6 23 -25 -1z"/>
<path d="M3080 4335 c-14 -16 -3 -20 19 -6 8 5 9 11 3 15 -5 3 -15 -1 -22 -9z"/>
<path d="M3200 4340 c0 -5 5 -10 11 -10 5 0 7 5 4 10 -3 6 -8 10 -11 10 -2 0
-4 -4 -4 -10z"/>
<path d="M5245 4340 c-3 -5 1 -10 10 -10 9 0 13 5 10 10 -3 6 -8 10 -10 10 -2
0 -7 -4 -10 -10z"/>
<path d="M4696 4311 c-4 -5 -2 -21 3 -35 9 -21 6 -28 -17 -45 -26 -20 -26 -20
-4 -21 12 0 31 9 42 20 21 21 27 50 10 50 -5 0 -10 9 -10 20 0 21 -14 27 -24
11z"/>
<path d="M5170 4310 c0 -5 5 -10 10 -10 6 0 10 5 10 10 0 6 -4 10 -10 10 -5 0
-10 -4 -10 -10z"/>
<path d="M2884 4296 c-4 -10 -2 -22 4 -28 8 -8 13 -7 18 6 4 10 2 22 -4 28 -8
8 -13 7 -18 -6z"/>
<path d="M2970 4299 c0 -5 5 -7 10 -4 6 3 10 8 10 11 0 2 -4 4 -10 4 -5 0 -10
-5 -10 -11z"/>
<path d="M2919 4268 c-7 -13 -16 -26 -21 -29 -5 -3 -3 -11 4 -17 18 -14 45 6
53 41 9 35 -19 38 -36 5z"/>
<path d="M4760 4282 c0 -5 14 -9 30 -9 17 0 30 4 30 9 0 4 -13 8 -30 8 -16 0
-30 -4 -30 -8z"/>
<path d="M5075 4280 c-8 -13 5 -13 25 0 13 8 13 10 -2 10 -9 0 -20 -4 -23 -10z"/>
<path d="M4975 4271 c-3 -5 -1 -12 5 -16 12 -7 30 2 30 16 0 12 -27 12 -35 0z"/>
<path d="M5227 4262 c-9 -14 5 -62 18 -62 25 0 35 25 19 48 -16 23 -29 28 -37
14z"/>
<path d="M4830 4250 c0 -5 7 -10 15 -10 8 0 15 5 15 10 0 6 -7 10 -15 10 -8 0
-15 -4 -15 -10z"/>
<path d="M5080 4250 c-13 -8 -13 -10 2 -10 9 0 20 5 23 10 8 13 -5 13 -25 0z"/>
<path d="M5995 4240 c12 -41 27 -60 20 -25 -4 17 -11 35 -17 40 -7 7 -8 2 -3
-15z"/>
<path d="M4783 4205 c0 -20 5 -25 23 -25 24 0 24 1 8 25 -9 14 -20 25 -24 25
-4 0 -7 -11 -7 -25z"/>
<path d="M4923 4224 c-7 -3 -13 -10 -13 -16 0 -6 -11 -26 -25 -44 -14 -18 -25
-35 -25 -38 0 -2 14 -12 32 -20 38 -20 66 -4 34 19 -21 16 -15 45 8 45 25 0
87 33 83 44 -4 12 -74 18 -94 10z"/>
<path d="M5130 4211 c0 -15 30 -40 34 -29 1 2 7 13 14 26 11 21 10 22 -18 22
-23 0 -30 -5 -30 -19z"/>
<path d="M2820 4211 c0 -5 7 -17 16 -26 9 -9 14 -19 10 -22 -3 -4 -11 -2 -17
4 -8 8 -20 8 -37 2 -20 -8 -28 -6 -34 6 -13 23 -27 18 -20 -7 4 -16 2 -20 -10
-15 -11 4 -17 -2 -21 -19 -3 -16 0 -24 10 -24 8 0 11 5 7 11 -3 6 0 15 7 20
21 13 26 11 32 -11 3 -11 10 -20 17 -20 7 0 14 9 17 20 6 24 35 26 53 5 19
-23 43 -20 30 4 -5 11 -7 27 -4 36 5 11 0 18 -15 22 -11 3 -21 9 -21 14 0 5
-4 9 -10 9 -5 0 -10 -4 -10 -9z"/>
<path d="M3030 4214 c0 -18 24 -44 40 -44 11 0 20 -4 20 -10 0 -5 5 -10 10
-10 6 0 10 7 10 15 0 9 6 12 15 9 8 -4 15 -1 15 4 0 16 -14 22 -30 12 -10 -6
-18 -2 -28 11 -12 17 -52 28 -52 13z"/>
<path d="M2970 4200 c0 -5 5 -10 10 -10 6 0 10 5 10 10 0 6 -4 10 -10 10 -5 0
-10 -4 -10 -10z"/>
<path d="M1402 4161 c-33 -41 -41 -78 -20 -99 7 -7 15 -41 19 -77 6 -65 32
-121 49 -110 6 4 10 18 10 33 0 15 9 56 20 90 24 78 25 120 3 167 -22 45 -42
44 -81 -4z"/>
<path d="M2925 4191 c-3 -5 5 -17 17 -25 12 -9 19 -17 15 -17 -4 -1 -13 -2
-19 -3 -7 -1 -12 -10 -11 -21 3 -40 -127 -76 -141 -39 -4 9 -9 14 -12 11 -10
-9 49 -89 73 -98 20 -7 21 -12 13 -34 -14 -36 -14 -35 21 -35 33 0 58 18 51
38 -2 6 3 12 12 12 9 0 16 5 16 10 0 6 -12 10 -27 10 -21 0 -80 15 -101 26 -1
1 0 8 3 16 5 12 21 14 85 11 79 -5 109 8 54 21 -25 7 -26 21 -1 21 5 0 12 6
15 13 2 6 -1 12 -7 12 -6 0 -11 13 -11 28 0 39 -30 67 -45 43z"/>
<path d="M4716 4174 c-4 -10 -1 -21 6 -26 19 -11 33 -4 33 18 0 24 -30 30 -39
8z"/>
<path d="M4840 4165 c0 -9 6 -12 15 -9 8 4 15 10 15 15 0 5 -7 9 -15 9 -8 0
-15 -7 -15 -15z"/>
<path d="M2670 4160 c0 -5 5 -10 10 -10 6 0 10 5 10 10 0 6 -4 10 -10 10 -5 0
-10 -4 -10 -10z"/>
<path d="M5490 4160 c0 -5 9 -10 20 -10 11 0 20 5 20 10 0 6 -9 10 -20 10 -11
0 -20 -4 -20 -10z"/>
<path d="M6026 4157 c3 -10 9 -15 12 -12 3 3 0 11 -7 18 -10 9 -11 8 -5 -6z"/>
<path d="M1713 4146 c-13 -15 0 -42 16 -32 12 8 15 46 4 46 -5 -1 -13 -7 -20
-14z"/>
<path d="M2635 4079 c-23 -9 -21 -10 23 -14 17 -1 32 1 32 5 0 12 -33 18 -55
9z"/>
<path d="M2945 4020 c4 -6 11 -8 16 -5 14 9 11 15 -7 15 -8 0 -12 -5 -9 -10z"/>
<path d="M4785 4021 c-3 -5 -1 -13 5 -16 6 -4 8 -15 5 -26 -5 -14 -2 -19 14
-19 10 0 27 -3 37 -7 15 -5 16 -2 10 23 -4 16 -12 35 -18 41 -12 15 -44 17
-53 4z"/>
<path d="M4860 4026 c0 -2 7 -6 15 -10 8 -3 15 -1 15 4 0 6 -7 10 -15 10 -8 0
-15 -2 -15 -4z"/>
<path d="M6062 4000 c0 -19 2 -27 5 -17 2 9 2 25 0 35 -3 9 -5 1 -5 -18z"/>
<path d="M5106 3991 c-19 -16 -33 -31 -30 -34 7 -6 33 2 49 15 6 5 19 15 29
22 16 11 17 14 3 19 -9 3 -30 -6 -51 -22z"/>
<path d="M910 3935 c0 -8 5 -15 10 -15 6 0 10 7 10 15 0 8 -4 15 -10 15 -5 0
-10 -7 -10 -15z"/>
<path d="M4908 3893 c7 -3 16 -2 19 1 4 3 -2 6 -13 5 -11 0 -14 -3 -6 -6z"/>
<path d="M5510 3891 c0 -11 50 -24 58 -16 8 8 -19 25 -40 25 -10 0 -18 -4 -18
-9z"/>
<path d="M3137 3863 c-13 -13 -7 -25 7 -14 10 8 16 9 21 1 3 -5 14 -10 23 -10
10 0 12 3 7 9 -15 13 -50 22 -58 14z"/>
<path d="M3300 3860 c0 -5 -9 -10 -20 -10 -11 0 -20 -4 -20 -9 0 -14 36 -23
59 -16 13 4 17 12 14 25 -5 20 -33 28 -33 10z"/>
<path d="M4873 3843 c9 -2 23 -2 30 0 6 3 -1 5 -18 5 -16 0 -22 -2 -12 -5z"/>
<path d="M4810 3830 c0 -5 5 -10 10 -10 6 0 10 5 10 10 0 6 -4 10 -10 10 -5 0
-10 -4 -10 -10z"/>
<path d="M4740 3810 c0 -5 7 -10 15 -10 8 0 15 5 15 10 0 6 -7 10 -15 10 -8 0
-15 -4 -15 -10z"/>
<path d="M3330 3800 c0 -5 5 -10 10 -10 6 0 10 5 10 10 0 6 -4 10 -10 10 -5 0
-10 -4 -10 -10z"/>
<path d="M4550 3805 c0 -10 41 -25 52 -19 8 5 5 10 -8 15 -22 9 -44 11 -44 4z"/>
<path d="M5097 3804 c-10 -11 3 -24 24 -24 23 0 25 15 3 24 -19 7 -19 7 -27 0z"/>
<path d="M4800 3780 c-11 -11 -27 -20 -35 -20 -8 0 -15 -4 -15 -10 0 -5 9 -10
20 -10 11 0 20 4 20 10 0 5 11 12 25 16 26 6 32 18 15 29 -5 3 -18 -3 -30 -15z"/>
<path d="M4950 3790 c0 -5 9 -10 19 -10 11 0 23 5 26 10 4 6 -5 10 -19 10 -14
0 -26 -4 -26 -10z"/>
<path d="M3255 3780 c3 -5 8 -10 11 -10 2 0 4 5 4 10 0 6 -5 10 -11 10 -5 0
-7 -4 -4 -10z"/>
<path d="M4282 3737 c-10 -11 -6 -14 18 -14 18 0 29 5 27 11 -6 17 -32 19 -45
3z"/>
<path d="M5952 3705 c-12 -19 -20 -35 -17 -35 7 0 47 61 42 66 -2 3 -14 -11
-25 -31z"/>
<path d="M1393 3724 c3 -4 2 -15 -4 -25 -7 -15 -6 -19 6 -19 9 0 15 9 15 25 0
14 -5 25 -12 25 -6 0 -8 -3 -5 -6z"/>
<path d="M4425 3723 c-20 -5 -64 -32 -55 -34 45 -8 110 -8 110 0 0 6 -5 11
-11 11 -6 0 -9 7 -5 15 5 15 -3 17 -39 8z"/>
<path d="M5770 3716 c0 -9 7 -16 16 -16 17 0 14 22 -4 28 -7 2 -12 -3 -12 -12z"/>
<path d="M4260 3700 c0 -5 7 -10 16 -10 8 0 12 5 9 10 -3 6 -10 10 -16 10 -5
0 -9 -4 -9 -10z"/>
<path d="M4181 3667 c-18 -18 -13 -32 19 -55 32 -24 56 -29 43 -9 -4 6 -8 17
-8 22 -3 37 -35 61 -54 42z"/>
<path d="M4300 3670 c0 -5 5 -10 10 -10 6 0 10 5 10 10 0 6 -4 10 -10 10 -5 0
-10 -4 -10 -10z"/>
<path d="M4680 3670 c0 -5 5 -10 10 -10 6 0 10 5 10 10 0 6 -4 10 -10 10 -5 0
-10 -4 -10 -10z"/>
<path d="M1380 3659 c0 -5 5 -7 10 -4 6 3 10 8 10 11 0 2 -4 4 -10 4 -5 0 -10
-5 -10 -11z"/>
<path d="M4130 3655 c7 -8 16 -15 21 -15 5 0 9 7 9 15 0 9 -9 15 -21 15 -18 0
-19 -2 -9 -15z"/>
<path d="M5891 3631 c-12 -16 -45 -47 -74 -67 -28 -21 -54 -41 -57 -44 -11
-12 -88 -70 -93 -70 -6 0 -76 -46 -87 -56 -2 -3 9 0 25 6 16 6 32 14 35 18 7
10 68 52 75 52 8 0 159 123 168 137 4 6 15 19 23 28 9 9 14 18 11 21 -3 3 -14
-8 -26 -25z"/>
<path d="M1644 3627 c-4 -10 -2 -23 3 -28 14 -14 24 13 13 32 -7 11 -10 10
-16 -4z"/>
<path d="M4495 3630 c-3 -5 -1 -10 4 -10 6 0 11 5 11 10 0 6 -2 10 -4 10 -3 0
-8 -4 -11 -10z"/>
<path d="M4550 3628 c0 -8 79 -3 88 6 3 4 -15 6 -41 4 -26 -2 -47 -6 -47 -10z"/>
<path d="M1367 3624 c-3 -3 -3 -13 0 -21 5 -12 7 -12 14 -1 15 23 4 40 -14 22z"/>
<path d="M4005 3579 c-4 -6 -4 -13 -1 -16 10 -10 66 -13 66 -3 0 6 -7 10 -16
10 -8 0 -12 5 -9 10 3 6 -3 10 -14 10 -11 0 -23 -5 -26 -11z"/>
<path d="M4728 3583 c7 -3 16 -2 19 1 4 3 -2 6 -13 5 -11 0 -14 -3 -6 -6z"/>
<path d="M4180 3570 c0 -5 9 -10 20 -10 11 0 20 5 20 10 0 6 -9 10 -20 10 -11
0 -20 -4 -20 -10z"/>
<path d="M2150 3562 c0 -7 130 -89 218 -137 59 -33 270 -122 368 -156 123 -43
367 -102 564 -138 152 -27 240 -40 407 -57 117 -11 556 -6 730 10 188 17 412
52 428 67 6 6 -2 8 -20 4 -17 -2 -64 -9 -105 -15 -41 -7 -86 -13 -100 -16
-135 -23 -517 -43 -540 -29 -7 4 -15 3 -19 -2 -8 -12 -183 -4 -175 8 3 5 -7 4
-22 -2 -30 -11 -197 -1 -429 27 -165 19 -177 22 -169 35 4 8 1 8 -12 1 -11 -6
-32 -8 -47 -5 -23 5 -28 10 -23 26 4 15 2 17 -7 8 -6 -6 -27 -11 -47 -11 -26
0 -31 3 -20 10 11 7 4 10 -26 10 -54 0 -220 36 -264 57 -19 10 -41 16 -48 14
-17 -3 -82 27 -82 38 0 4 -13 8 -29 8 -34 0 -141 41 -141 55 0 5 -4 6 -10 3
-11 -7 -70 25 -70 38 0 4 -6 7 -12 6 -31 -4 -49 2 -42 13 4 6 3 8 -4 4 -10 -6
-61 11 -72 25 -3 3 -26 18 -52 32 -25 14 -64 37 -87 51 -23 15 -41 23 -41 18z"/>
<path d="M3906 3555 c4 -8 14 -15 24 -15 11 0 22 -5 26 -11 4 -8 9 -7 15 2 5
9 -3 17 -29 26 -20 7 -38 13 -39 13 -1 0 0 -7 3 -15z"/>
<path d="M4875 3560 c3 -5 8 -10 11 -10 2 0 4 5 4 10 0 6 -5 10 -11 10 -5 0
-7 -4 -4 -10z"/>
<path d="M4300 3550 c0 -5 5 -10 10 -10 6 0 10 5 10 10 0 6 -4 10 -10 10 -5 0
-10 -4 -10 -10z"/>
<path d="M4725 3550 c3 -5 13 -10 21 -10 8 0 14 5 14 10 0 6 -9 10 -21 10 -11
0 -17 -4 -14 -10z"/>
<path d="M1350 3500 c0 -12 8 -12 35 0 18 8 17 9 -7 9 -16 1 -28 -3 -28 -9z"/>
<path d="M901 3464 c0 -11 3 -14 6 -6 3 7 2 16 -1 19 -3 4 -6 -2 -5 -13z"/>
<path d="M5470 3470 c0 -5 5 -10 10 -10 6 0 10 5 10 10 0 6 -4 10 -10 10 -5 0
-10 -4 -10 -10z"/>
<path d="M4490 3460 c0 -5 5 -10 11 -10 5 0 7 5 4 10 -3 6 -8 10 -11 10 -2 0
-4 -4 -4 -10z"/>
<path d="M4565 3450 c-16 -7 -17 -9 -3 -9 9 -1 20 4 23 9 7 11 7 11 -20 0z"/>
<path d="M4903 3423 c-20 -7 -15 -23 7 -23 11 0 20 4 20 9 0 13 -12 19 -27 14z"/>
<path d="M4980 3410 c0 -5 12 -10 26 -10 14 0 23 4 19 10 -3 6 -15 10 -26 10
-10 0 -19 -4 -19 -10z"/>
<path d="M4335 3380 c-3 -5 1 -10 9 -10 8 0 18 5 21 10 3 6 -1 10 -9 10 -8 0
-18 -4 -21 -10z"/>
<path d="M2585 3370 c-3 -5 -1 -10 4 -10 6 0 11 5 11 10 0 6 -2 10 -4 10 -3 0
-8 -4 -11 -10z"/>
<path d="M5478 3373 c6 -2 18 -2 25 0 6 3 1 5 -13 5 -14 0 -19 -2 -12 -5z"/>
<path d="M897 3354 c-3 -10 -6 -75 -6 -144 l0 -125 25 50 c29 61 29 63 3 39
-22 -19 -22 -19 -11 2 6 11 9 30 6 41 -3 11 1 25 10 32 22 18 20 71 -3 100
-17 23 -19 23 -24 5z"/>
<path d="M4155 3360 c-3 -5 -1 -10 4 -10 6 0 11 5 11 10 0 6 -2 10 -4 10 -3 0
-8 -4 -11 -10z"/>
<path d="M4913 3360 c-15 -6 -21 -15 -17 -25 3 -8 9 -15 13 -16 3 0 14 -2 23
-4 22 -4 42 20 34 40 -6 17 -20 18 -53 5z"/>
<path d="M4245 3320 c3 -5 10 -10 16 -10 5 0 9 5 9 10 0 6 -7 10 -16 10 -8 0
-12 -4 -9 -10z"/>
<path d="M4775 3320 c-3 -5 -1 -10 4 -10 6 0 11 5 11 10 0 6 -2 10 -4 10 -3 0
-8 -4 -11 -10z"/>
<path d="M4690 3290 c0 -5 5 -10 10 -10 6 0 10 5 10 10 0 6 -4 10 -10 10 -5 0
-10 -4 -10 -10z"/>
<path d="M5287 3268 c-42 -17 -75 -33 -72 -36 6 -7 143 47 151 59 7 12 10 13
-79 -23z"/>
<path d="M4615 3280 c-3 -5 1 -10 10 -10 9 0 13 5 10 10 -3 6 -8 10 -10 10 -2
0 -7 -4 -10 -10z"/>
<path d="M4653 3233 c-13 -2 -23 -9 -23 -15 0 -6 10 -8 23 -4 12 3 25 6 30 6
4 0 7 5 7 10 0 6 -3 9 -7 9 -5 -1 -18 -4 -30 -6z"/>
<path d="M4430 3223 c-37 -14 -40 -52 -4 -45 17 3 23 9 20 19 -5 11 -1 13 15
8 16 -5 20 -3 17 6 -5 16 -26 21 -48 12z"/>
<path d="M3550 3210 c0 -5 5 -10 10 -10 6 0 10 5 10 10 0 6 -4 10 -10 10 -5 0
-10 -4 -10 -10z"/>
<path d="M4183 3195 c-14 -17 -17 -25 -8 -25 18 0 47 29 40 41 -8 12 -7 12
-32 -16z"/>
<path d="M3698 3193 c7 -3 16 -2 19 1 4 3 -2 6 -13 5 -11 0 -14 -3 -6 -6z"/>
<path d="M4080 3180 c0 -5 13 -10 29 -10 17 0 33 5 36 10 4 6 -8 10 -29 10
-20 0 -36 -4 -36 -10z"/>
<path d="M4255 3170 c3 -5 8 -10 11 -10 2 0 4 5 4 10 0 6 -5 10 -11 10 -5 0
-7 -4 -4 -10z"/>
<path d="M4905 3170 c-18 -8 -18 -9 5 -9 14 0 34 4 45 9 18 8 18 9 -5 9 -14 0
-34 -4 -45 -9z"/>
<path d="M300 2903 c0 -25 2 -44 4 -42 8 10 13 89 5 89 -5 0 -9 -21 -9 -47z"/>
<path d="M821 2920 c0 -19 4 -44 8 -55 6 -15 9 -9 12 27 2 25 1 44 -3 42 -3
-2 -9 2 -11 8 -3 7 -5 -3 -6 -22z"/>
<path d="M621 2792 c-66 -51 -77 -65 -104 -127 -17 -38 -48 -110 -70 -160 -21
-49 -41 -98 -43 -108 -2 -11 -12 -38 -23 -61 -11 -22 -25 -66 -31 -96 -6 -30
-15 -64 -20 -75 -5 -11 -11 -41 -15 -67 -6 -45 -19 -67 -32 -54 -4 3 0 17 7
31 10 19 11 35 1 82 -7 32 -10 72 -7 88 13 67 19 282 8 289 -16 9 -21 -47 -31
-319 -8 -227 -10 -243 -35 -299 -27 -60 -34 -106 -16 -106 6 0 10 7 10 15 0 8
4 15 8 15 9 0 6 -250 -4 -308 -5 -31 -15 -341 -14 -426 1 -56 -31 -248 -44
-265 -9 -11 -12 -9 -17 10 -4 19 -7 15 -10 -19 -4 -37 -1 -45 20 -59 22 -14
24 -14 18 0 -3 9 -2 19 3 22 10 6 15 -42 11 -95 -1 -20 1 -22 9 -10 5 8 10 24
10 36 0 11 7 29 15 40 15 18 16 17 9 -16 -3 -19 -13 -47 -20 -62 -8 -15 -14
-37 -14 -48 0 -12 -5 -31 -11 -42 -8 -16 -8 -19 1 -13 9 5 10 1 5 -15 -4 -12
-8 -28 -9 -34 -1 -6 -4 -15 -7 -21 -2 -5 -3 -26 -2 -45 2 -19 3 -44 3 -55 1
-19 2 -19 20 2 11 14 16 31 13 44 -5 16 -2 20 13 17 10 -2 21 -14 25 -28 l7
-25 3 25 c1 14 2 33 1 43 -1 9 3 17 9 17 8 0 9 -21 3 -72 -4 -40 -8 -89 -8
-108 -1 -19 -9 -43 -18 -52 -18 -18 -25 -54 -10 -44 12 7 14 -15 12 -114 -1
-47 -6 -89 -11 -94 -17 -18 -9 -26 25 -26 40 0 46 11 46 88 0 31 4 104 9 162
6 58 13 151 16 207 4 60 11 100 17 97 5 -3 16 0 25 7 13 12 15 11 11 -6 -2
-11 -11 -19 -21 -19 -13 1 -17 -7 -17 -37 0 -21 4 -39 10 -39 5 0 7 13 3 30
-3 19 -1 30 6 30 6 0 11 -5 11 -11 0 -5 4 -8 9 -5 5 3 7 -13 4 -37 -2 -23 1
-49 6 -57 16 -23 22 -6 10 28 -9 27 -8 37 10 66 12 18 21 47 21 65 0 17 4 31
9 31 4 0 6 -12 3 -27 -5 -25 -3 -26 11 -15 14 12 15 10 4 -17 -6 -16 -15 -28
-19 -25 -4 3 -8 1 -8 -5 0 -5 4 -12 8 -15 14 -8 29 8 37 39 l8 30 7 -25 7 -25
12 28 c6 16 11 33 11 38 0 6 5 7 10 4 6 -3 7 -18 4 -33 -3 -15 -7 -47 -9 -72
-2 -25 -4 -50 -4 -56 -1 -7 -12 -14 -24 -18 -19 -4 -24 -13 -25 -41 -1 -20 -4
-40 -7 -45 -4 -6 -1 -10 4 -10 6 0 11 7 11 15 0 8 7 15 15 15 11 0 15 -11 15
-42 0 -64 12 -37 17 39 3 37 10 76 16 88 6 11 12 22 12 25 1 3 7 18 13 33 7
16 11 43 11 60 -1 25 -4 20 -13 -22 -14 -70 -36 -82 -25 -14 4 26 8 71 9 98 0
28 5 57 10 65 8 11 9 8 4 -12 -4 -19 -2 -28 6 -28 9 0 10 11 6 38 -3 20 -7 49
-9 64 -3 41 -14 43 -28 4 -16 -44 -29 -46 -29 -6 0 31 -16 41 -26 15 -9 -22
-25 -7 -20 18 3 12 7 76 10 142 l4 120 -13 -85 c-8 -46 -11 -88 -9 -92 3 -4
-2 -8 -10 -8 -11 0 -16 -9 -16 -28 0 -24 -39 -75 -41 -54 -6 53 -3 65 15 71
13 5 15 10 8 15 -22 13 -51 -16 -50 -52 1 -18 -3 -37 -9 -43 -8 -8 -11 7 -10
48 0 32 -1 83 -2 113 -3 43 -6 50 -12 32 -5 -12 -6 -28 -3 -36 3 -7 -7 -31
-22 -52 -23 -33 -26 -35 -20 -13 9 38 -5 43 -31 12 l-24 -28 6 50 c14 128 25
289 25 380 0 55 5 133 10 174 6 46 6 105 1 155 -9 78 -6 136 8 136 3 0 6 -16
5 -35 -1 -19 2 -35 7 -35 5 0 9 5 9 11 0 5 4 8 9 4 12 -7 19 21 16 65 -7 91
-8 161 -2 166 4 4 -3 20 -14 35 -16 23 -18 32 -8 50 17 32 30 78 39 134 15 90
29 130 53 150 14 11 34 39 45 61 12 23 28 44 37 47 8 4 15 15 15 26 0 11 4 22
9 25 4 3 11 34 13 69 4 43 13 76 30 103 13 21 28 48 34 58 7 14 21 20 45 20
27 1 35 5 37 23 3 22 38 53 73 66 22 7 59 -19 59 -43 0 -18 39 -50 41 -33 0 4
8 -10 18 -32 15 -33 16 -54 10 -125 -16 -177 -22 -732 -10 -865 23 -243 30
-561 17 -685 -3 -25 -5 -61 -5 -81 -1 -21 -9 -46 -21 -59 -11 -13 -20 -29 -20
-37 0 -7 -4 -13 -10 -13 -5 0 -10 6 -10 14 0 8 -6 16 -14 19 -10 4 -16 -5 -21
-30 -7 -39 0 -56 10 -24 3 12 10 21 15 21 15 0 22 -20 12 -33 -13 -18 -24 -79
-12 -72 6 3 10 1 10 -4 0 -6 3 -11 8 -11 4 0 6 17 4 38 -2 24 4 51 18 77 l22
40 -7 -70 c-4 -38 -7 -114 -7 -167 1 -69 -3 -98 -11 -98 -9 0 -9 -2 0 -8 9 -6
12 -68 10 -245 -2 -184 1 -237 11 -237 8 0 12 22 12 75 0 73 1 75 20 63 17
-10 18 -14 5 -16 -8 -2 -15 -8 -15 -13 0 -6 5 -7 12 -3 8 5 10 -8 5 -49 l-6
-57 54 0 53 0 0 135 c0 75 -4 135 -9 135 -5 0 -9 -4 -9 -10 0 -5 -5 -10 -11
-10 -5 0 -7 4 -4 10 3 5 2 18 -4 27 -8 15 -9 13 -7 -10 2 -16 7 -32 13 -35 14
-9 22 -61 11 -68 -5 -3 -4 -12 3 -20 9 -11 8 -14 -5 -14 -9 0 -16 -5 -16 -11
0 -5 -4 -8 -9 -5 -5 4 -12 0 -14 -6 -6 -15 3 171 9 191 3 11 10 9 29 -9 14
-13 27 -22 29 -19 2 2 -11 15 -30 29 -35 26 -41 48 -24 81 6 11 8 25 4 31 -10
16 -33 -51 -27 -77 2 -13 -4 -28 -15 -39 -12 -10 -18 -25 -15 -37 4 -14 1 -18
-9 -14 -11 4 -13 18 -10 53 3 42 8 180 12 372 1 36 8 159 17 275 11 152 13
256 8 375 -11 237 -13 258 -25 330 -13 75 -7 556 10 769 10 131 10 135 -14
195 -14 34 -30 82 -36 108 -7 26 -16 45 -21 43 -8 -6 -15 1 -50 48 -33 44 -71
37 -158 -31z m-331 -1047 c0 -8 -2 -15 -4 -15 -2 0 -6 7 -10 15 -3 8 -1 15 4
15 6 0 10 -7 10 -15z m50 -909 c0 -7 -10 -20 -22 -28 -21 -14 -21 -17 -9 -72
13 -57 10 -89 -4 -45 -7 22 -8 22 -21 -7 -11 -22 -13 -23 -10 -6 4 23 -8 30
-18 10 -3 -7 -3 9 0 37 4 33 13 56 28 70 12 11 25 28 29 38 8 20 27 23 27 3z
m125 -15 c3 -5 1 -12 -5 -16 -5 -3 -10 1 -10 9 0 18 6 21 15 7z m-63 -121 c-1
-14 -3 -47 -4 -73 -1 -72 -21 -42 -25 38 -3 59 -1 66 15 63 11 -3 16 -11 14
-28z m97 -54 c-9 -8 -10 -7 -5 7 3 10 7 26 7 35 1 9 4 6 6 -7 3 -13 -1 -28 -8
-35z m-42 22 c-3 -8 -6 -5 -6 6 -1 11 2 17 5 13 3 -3 4 -12 1 -19z m92 -5 c0
-16 -4 -37 -9 -48 -7 -17 -9 -16 -10 10 -1 17 -3 38 -5 48 -2 9 3 17 11 17 9
0 14 -10 13 -27z m-305 -28 c-9 -50 0 -69 27 -54 17 9 20 8 16 -3 -2 -7 -10
-12 -16 -10 -6 1 -11 -8 -11 -20 0 -13 -7 -32 -15 -42 -14 -19 -15 -18 -23 5
-12 30 -2 63 9 33 6 -16 8 -14 8 9 1 16 -3 26 -9 22 -13 -8 -13 9 2 56 14 48
21 51 12 4z m276 -34 c0 -5 -6 -14 -14 -20 -12 -10 -13 -8 -9 8 5 21 23 30 23
12z m-150 -11 c0 -5 -4 -10 -10 -10 -5 0 -10 5 -10 10 0 6 5 10 10 10 6 0 10
-4 10 -10z m150 -230 c0 -5 -4 -10 -9 -10 -6 0 -13 5 -16 10 -3 6 1 10 9 10 9
0 16 -4 16 -10z m400 -120 c0 -14 -7 -20 -21 -20 -16 0 -19 -3 -11 -13 7 -8 7
-17 -2 -29 -11 -15 -13 -12 -14 21 -2 34 1 38 18 34 14 -4 20 0 20 11 0 9 2
16 5 16 3 0 5 -9 5 -20z"/>
<path d="M6 2638 c-3 -13 -6 -32 -6 -42 0 -29 16 -7 23 32 7 36 -7 44 -17 10z"/>
<path d="M286 2632 c-4 -18 -5 -36 -2 -39 11 -12 17 5 14 39 l-3 33 -9 -33z"/>
<path d="M1135 2330 c3 -5 16 -15 28 -21 l22 -11 -22 21 c-23 22 -39 28 -28
11z"/>
<path d="M6275 2090 c-4 -6 3 -10 14 -10 25 0 27 6 6 13 -8 4 -17 2 -20 -3z"/>
<path d="M6258 2043 c12 -2 32 -2 45 0 12 2 2 4 -23 4 -25 0 -35 -2 -22 -4z"/>
<path d="M349 1910 c-3 -8 -3 -40 1 -70 5 -40 9 -50 14 -37 5 10 5 42 0 70 -5
29 -12 45 -15 37z"/>
<path d="M182 1750 c0 -14 2 -19 5 -12 2 6 2 18 0 25 -3 6 -5 1 -5 -13z"/>
<path d="M1012 1678 c-19 -19 -14 -30 8 -18 11 6 20 15 20 20 0 14 -14 12 -28
-2z"/>
<path d="M145 1650 c-3 -5 -1 -10 4 -10 6 0 11 5 11 10 0 6 -2 10 -4 10 -3 0
-8 -4 -11 -10z"/>
<path d="M957 1634 c3 -8 11 -14 19 -14 21 0 17 17 -5 23 -14 3 -18 1 -14 -9z"/>
<path d="M342 1620 c0 -14 2 -19 5 -12 2 6 2 18 0 25 -3 6 -5 1 -5 -13z"/>
<path d="M140 1563 c0 -35 3 -44 10 -33 13 20 13 80 0 80 -5 0 -10 -21 -10
-47z"/>
<path d="M983 1582 c-32 -5 -29 -26 6 -38 26 -11 29 -10 29 13 0 27 -5 30 -35
25z"/>
<path d="M587 1573 c-11 -10 -8 -43 3 -43 6 0 10 11 10 25 0 26 -2 29 -13 18z"/>
<path d="M1069 1553 c-10 -12 -11 -17 -2 -20 7 -2 9 -11 6 -19 -3 -8 0 -14 6
-14 6 0 11 16 11 35 0 40 -2 42 -21 18z"/>
<path d="M99 1523 c-5 -16 -12 -35 -16 -43 -3 -8 -7 -49 -9 -91 -1 -42 -10
-94 -19 -115 -9 -22 -21 -64 -26 -94 -5 -30 -13 -75 -18 -100 -16 -71 -14
-293 3 -315 12 -17 14 -11 22 51 5 38 9 76 9 84 1 8 6 25 13 36 9 17 8 25 -3
40 -14 18 -14 18 -15 -6 0 -14 -5 -32 -11 -40 -13 -20 -5 110 11 165 6 22 11
59 10 82 0 23 8 62 20 87 11 25 20 54 20 66 0 11 6 36 14 55 8 19 13 46 10 60
-2 14 0 25 5 25 5 0 12 7 15 16 5 12 2 15 -10 10 -13 -5 -14 -1 -9 24 8 38 -2
39 -16 3z"/>
<path d="M10 1519 c0 -11 4 -17 10 -14 13 8 13 35 0 35 -5 0 -10 -9 -10 -21z"/>
<path d="M310 1530 c0 -5 5 -10 10 -10 6 0 10 5 10 10 0 6 -4 10 -10 10 -5 0
-10 -4 -10 -10z"/>
<path d="M170 1489 c0 -5 5 -7 10 -4 6 3 10 8 10 11 0 2 -4 4 -10 4 -5 0 -10
-5 -10 -11z"/>
<path d="M7 1473 c-4 -3 -7 -20 -6 -37 l1 -31 9 34 c10 33 8 47 -4 34z"/>
<path d="M42 1353 c-5 -10 -12 -38 -15 -63 -5 -42 -5 -43 8 -20 15 28 30 100
21 100 -3 0 -9 -8 -14 -17z"/>
<path d="M1025 1331 c-3 -5 -1 -12 5 -16 5 -3 10 1 10 9 0 18 -6 21 -15 7z"/>
<path d="M1008 1273 c-17 -4 -33 -32 -23 -41 3 -3 15 4 27 16 24 23 23 30 -4
25z"/>
<path d="M561 1208 c0 -9 -4 -25 -7 -35 -5 -17 -5 -17 6 0 6 10 9 25 7 35 -4
15 -5 15 -6 0z"/>
<path d="M1807 1206 c-6 -15 1 -26 15 -26 11 0 10 27 -1 34 -5 3 -11 0 -14 -8z"/>
<path d="M4320 1209 c0 -6 -9 -8 -20 -4 -27 9 -60 -3 -60 -21 0 -10 12 -14 40
-14 29 0 40 4 40 15 0 8 5 15 10 15 6 0 10 5 10 10 0 6 -4 10 -10 10 -5 0 -10
-5 -10 -11z"/>
<path d="M307 1203 c-6 -11 -20 -103 -19 -130 1 -70 3 -83 10 -83 5 0 8 17 7
38 -2 20 1 68 6 106 8 65 7 88 -4 69z"/>
<path d="M1230 1168 c0 -18 -2 -20 -10 -8 -8 13 -10 13 -10 -2 0 -9 5 -20 10
-23 16 -10 12 -45 -5 -45 -8 0 -15 -7 -15 -16 0 -10 6 -14 15 -10 8 3 15 1 15
-5 0 -6 5 -7 11 -4 11 8 9 124 -3 131 -5 3 -8 -5 -8 -18z"/>
<path d="M2 1145 c0 -16 2 -22 5 -12 2 9 2 23 0 30 -3 6 -5 -1 -5 -18z"/>
<path d="M102 1124 c-1 -28 -4 -67 -7 -85 -5 -31 -5 -32 5 -9 6 13 9 51 7 85
l-3 60 -2 -51z"/>
<path d="M771 1134 c0 -11 3 -14 6 -6 3 7 2 16 -1 19 -3 4 -6 -2 -5 -13z"/>
<path d="M440 1129 c0 -5 5 -7 10 -4 6 3 10 8 10 11 0 2 -4 4 -10 4 -5 0 -10
-5 -10 -11z"/>
<path d="M57 1088 c-5 -37 -3 -43 12 -33 13 8 15 65 2 65 -5 0 -11 -15 -14
-32z"/>
<path d="M352 1088 c2 -16 6 -24 11 -19 5 5 5 17 -2 28 -9 16 -10 15 -9 -9z"/>
<path d="M544 1076 c4 -17 2 -34 -5 -42 -7 -8 -9 -17 -5 -21 3 -3 6 -1 6 6 0
7 5 9 10 6 6 -4 10 8 10 29 0 19 -5 38 -11 42 -9 5 -10 -1 -5 -20z"/>
<path d="M638 1068 c-1 -18 -2 -42 -2 -53 -1 -11 -7 -30 -14 -42 -14 -26 -16
-45 -2 -23 9 13 11 13 20 0 7 -10 10 10 10 68 0 80 -8 115 -12 50z"/>
<path d="M5358 1093 c7 -3 16 -2 19 1 4 3 -2 6 -13 5 -11 0 -14 -3 -6 -6z"/>
<path d="M977 1044 c-4 -4 -7 -14 -7 -23 0 -11 3 -12 11 -4 6 6 10 16 7 23 -2
6 -7 8 -11 4z"/>
<path d="M351 1024 c0 -11 3 -14 6 -6 3 7 2 16 -1 19 -3 4 -6 -2 -5 -13z"/>
<path d="M1273 1023 c-9 -3 -12 -24 -11 -61 1 -54 2 -55 5 -12 3 24 9 50 15
58 13 15 8 21 -9 15z"/>
<path d="M364 965 c2 -46 16 -57 16 -12 0 20 -4 38 -8 41 -5 3 -8 -10 -8 -29z"/>
<path d="M526 923 c-4 -43 -13 -81 -19 -85 -9 -6 -9 -8 0 -8 7 0 10 -7 7 -15
-4 -8 -11 -12 -18 -8 -8 4 -8 3 0 -6 6 -6 18 -9 28 -5 13 5 16 17 15 58 -1 28
3 64 10 80 8 20 8 32 1 41 -8 9 -7 15 2 18 9 4 8 6 -3 6 -13 1 -18 -14 -23
-76z"/>
<path d="M700 967 c0 -7 4 -18 9 -25 6 -11 9 -9 14 7 3 12 -1 22 -9 25 -8 3
-14 0 -14 -7z"/>
<path d="M148 943 c5 -21 7 -23 10 -9 2 10 0 22 -6 28 -6 6 -7 0 -4 -19z"/>
<path d="M4948 953 c6 -2 18 -2 25 0 6 3 1 5 -13 5 -14 0 -19 -2 -12 -5z"/>
<path d="M4888 943 c6 -2 18 -2 25 0 6 3 1 5 -13 5 -14 0 -19 -2 -12 -5z"/>
<path d="M1208 863 c4 -78 17 -86 20 -12 1 23 4 44 7 49 8 12 -5 40 -19 40 -7
0 -10 -24 -8 -77z"/>
<path d="M370 895 c0 -5 5 -17 10 -25 5 -8 10 -10 10 -5 0 6 -5 17 -10 25 -5
8 -10 11 -10 5z"/>
<path d="M1180 881 c0 -25 6 -27 13 -6 4 8 2 17 -3 20 -6 4 -10 -3 -10 -14z"/>
<path d="M1248 873 c-3 -16 -2 -53 1 -83 l6 -55 8 49 c10 66 9 116 -2 116 -5
0 -11 -12 -13 -27z"/>
<path d="M800 890 c-1 -3 -3 -16 -6 -30 -3 -21 -2 -22 7 -7 6 10 8 23 5 30 -2
7 -5 10 -6 7z"/>
<path d="M1282 855 c0 -16 2 -22 5 -12 2 9 2 23 0 30 -3 6 -5 -1 -5 -18z"/>
<path d="M686 862 c-7 -12 4 -52 15 -52 12 0 12 47 0 55 -5 3 -12 2 -15 -3z"/>
<path d="M561 843 c-9 -9 -9 -13 0 -13 6 0 9 -7 5 -15 -3 -9 0 -15 10 -15 10
0 14 6 10 15 -3 9 1 18 9 21 8 4 15 9 15 13 0 12 -36 7 -49 -6z"/>
<path d="M930 850 c0 -5 5 -10 11 -10 5 0 7 5 4 10 -3 6 -8 10 -11 10 -2 0 -4
-4 -4 -10z"/>
<path d="M630 840 c0 -5 5 -10 11 -10 5 0 7 5 4 10 -3 6 -8 10 -11 10 -2 0 -4
-4 -4 -10z"/>
<path d="M100 821 c0 -25 6 -27 13 -6 4 8 2 17 -3 20 -6 4 -10 -3 -10 -14z"/>
<path d="M70 803 c0 -21 3 -24 9 -14 5 8 7 20 4 28 -8 21 -13 15 -13 -14z"/>
<path d="M51 804 c0 -11 3 -14 6 -6 3 7 2 16 -1 19 -3 4 -6 -2 -5 -13z"/>
<path d="M624 783 c3 -6 -4 -19 -16 -27 -12 -9 -18 -19 -14 -23 4 -4 11 -1 16
7 6 8 10 11 10 5 0 -5 5 -2 11 8 8 14 8 22 -1 30 -10 9 -11 9 -6 0z"/>
<path d="M678 743 c-2 -24 1 -43 7 -43 5 0 3 -5 -5 -10 -11 -7 -17 -5 -22 8
-6 16 -7 16 -7 0 -1 -10 -5 -18 -11 -18 -5 0 -7 6 -4 14 3 8 -1 17 -8 22 -7 4
-10 4 -6 -1 4 -4 3 -13 -2 -20 -5 -6 -17 -103 -25 -215 -9 -112 -19 -208 -22
-213 -3 -6 -1 -7 5 -3 19 11 14 -5 -5 -21 -10 -8 -12 -11 -5 -8 10 5 12 -2 7
-32 -13 -78 -17 -94 -23 -89 -3 3 -11 1 -19 -5 -11 -9 -13 -1 -14 42 l-1 54
-8 -40 c-4 -22 -5 -45 -3 -52 3 -7 1 -13 -5 -13 -6 0 -12 31 -14 69 -2 38 0
67 5 64 4 -2 7 2 7 9 0 7 3 23 6 36 5 16 2 22 -10 22 -18 0 -24 -11 -30 -55
-7 -62 -18 -86 -34 -80 -9 3 -13 3 -10 -1 4 -3 1 -22 -7 -41 -8 -20 -15 -46
-15 -59 0 -13 -5 -24 -11 -24 -7 0 -9 11 -6 27 5 25 4 26 -8 10 -8 -12 -15
-14 -20 -7 -3 5 -12 7 -18 4 -7 -4 0 6 15 22 22 23 25 33 16 42 -9 9 -8 16 4
29 24 28 30 53 12 53 -11 0 -13 -6 -9 -20 3 -11 2 -20 -3 -20 -6 0 -10 33 -8
80 1 44 -2 80 -7 80 -5 0 -7 6 -4 13 3 8 2 19 -3 26 -4 7 -8 -24 -8 -69 -1
-44 -4 -85 -7 -91 -4 -5 -1 -9 6 -9 9 0 9 -4 -1 -15 -6 -8 -9 -18 -6 -24 3 -5
2 -32 -4 -60 -12 -67 -4 -111 22 -111 20 0 78 51 78 68 0 5 7 13 16 16 13 5
15 2 9 -11 -4 -10 -10 -30 -13 -45 -4 -25 -1 -28 22 -28 15 0 25 4 21 9 -3 5
-1 12 5 16 16 10 12 25 -5 19 -17 -7 -19 4 -5 26 8 12 12 11 30 -8 14 -15 19
-29 15 -42 -4 -11 -2 -20 4 -20 5 0 12 10 14 22 l4 23 2 -22 c1 -31 51 -34 51
-3 0 12 -5 17 -13 14 -13 -5 -12 21 7 161 3 17 5 52 5 79 1 36 4 47 14 43 8
-3 14 1 14 9 0 8 -6 14 -12 14 -8 0 -13 17 -13 45 -1 35 2 43 13 38 8 -3 12
-10 8 -16 -3 -6 -1 -7 5 -3 7 4 12 17 11 29 0 12 -3 16 -6 10 -2 -7 -9 -13
-15 -13 -14 0 -3 113 12 118 13 5 13 32 0 32 -5 0 -10 9 -10 21 0 18 2 19 14
6 19 -19 32 -112 17 -121 -7 -5 -11 2 -11 16 -1 21 -2 21 -11 5 -12 -21 -4
-51 12 -42 15 10 1 -204 -16 -247 -8 -20 12 -88 26 -88 5 0 9 5 9 10 0 6 -4
10 -10 10 -12 0 -13 37 -1 44 14 9 20 56 7 56 -12 0 -6 144 8 188 4 12 9 68
10 125 2 94 4 103 24 112 14 6 22 19 22 35 0 20 -2 22 -11 10 -8 -11 -9 -5 -6
26 3 29 1 41 -8 41 -8 0 -15 -17 -17 -44z m-21 -88 c0 -8 -4 -12 -9 -9 -5 3
-6 10 -3 15 9 13 12 11 12 -6z"/>
<path d="M738 748 c-1 -13 -3 -32 -4 -43 -1 -11 -3 -36 -4 -55 -2 -33 -3 -33
-10 -10 -7 23 -8 23 -9 3 -1 -12 -4 -29 -8 -39 -4 -12 -3 -15 6 -10 9 6 11 -9
9 -57 -2 -57 -4 -63 -16 -49 -12 15 -13 14 -8 -9 3 -14 3 -29 -1 -33 -9 -9
-10 -55 -1 -50 4 3 8 13 8 22 0 9 5 24 10 32 6 10 8 -22 6 -90 -2 -68 -8 -113
-17 -127 -12 -20 -11 -25 4 -40 10 -10 17 -13 16 -8 -1 6 5 27 14 47 20 43 21
52 7 43 -5 -3 -10 -1 -10 4 0 6 5 11 10 11 6 0 10 14 10 30 0 17 -4 30 -9 30
-10 0 -7 72 4 90 6 9 4 11 -5 5 -10 -6 -12 -4 -7 9 4 10 7 24 7 32 0 9 5 12
10 9 6 -3 10 -1 10 6 0 7 10 24 23 37 l22 25 -22 -12 c-12 -6 -27 -19 -32 -29
-9 -15 -11 -14 -12 8 -3 77 3 136 17 146 17 14 18 25 1 18 -9 -3 -12 6 -9 36
2 22 1 40 -2 40 -3 0 -7 -10 -8 -22z"/>
<path d="M901 754 c0 -11 3 -14 6 -6 3 7 2 16 -1 19 -3 4 -6 -2 -5 -13z"/>
<path d="M52 745 c-11 -13 -9 -15 8 -15 11 0 20 7 20 15 0 19 -11 19 -28 0z"/>
<path d="M1917 740 c-3 -11 -2 -20 3 -20 4 0 10 9 13 20 3 11 2 20 -3 20 -4 0
-10 -9 -13 -20z"/>
<path d="M148 738 c-5 -11 0 -18 13 -21 12 -3 19 0 19 10 0 8 -4 12 -9 9 -5
-4 -11 -1 -13 6 -3 8 -6 6 -10 -4z"/>
<path d="M1246 685 c-4 -27 -12 -55 -17 -62 -7 -7 -6 -13 0 -17 10 -7 35 96
28 117 -2 6 -7 -10 -11 -38z"/>
<path d="M1272 710 c0 -14 2 -19 5 -12 2 6 2 18 0 25 -3 6 -5 1 -5 -13z"/>
<path d="M127 696 c-9 -7 -17 -18 -17 -25 0 -6 9 -2 21 10 24 24 22 33 -4 15z"/>
<path d="M5 680 c-3 -5 -1 -10 4 -10 6 0 11 5 11 10 0 6 -2 10 -4 10 -3 0 -8
-4 -11 -10z"/>
<path d="M1970 680 c0 -5 5 -10 10 -10 6 0 10 5 10 10 0 6 -4 10 -10 10 -5 0
-10 -4 -10 -10z"/>
<path d="M754 659 c-3 -6 -1 -16 5 -22 8 -8 11 -5 11 11 0 24 -5 28 -16 11z"/>
<path d="M801 644 c0 -11 3 -14 6 -6 3 7 2 16 -1 19 -3 4 -6 -2 -5 -13z"/>
<path d="M1971 634 c0 -11 3 -14 6 -6 3 7 2 16 -1 19 -3 4 -6 -2 -5 -13z"/>
<path d="M10 635 c-6 -41 -5 -53 3 -48 6 4 7 1 1 -8 -11 -18 -13 -159 -2 -159
4 0 8 15 8 33 1 17 3 57 6 87 3 30 1 66 -5 80 -5 14 -10 21 -11 15z"/>
<path d="M1260 616 c0 -8 4 -17 9 -20 5 -4 7 3 4 14 -6 23 -13 26 -13 6z"/>
<path d="M800 611 c0 -5 5 -13 10 -16 6 -3 10 -2 10 4 0 5 -4 13 -10 16 -5 3
-10 2 -10 -4z"/>
<path d="M760 600 c-8 -5 -12 -12 -9 -15 4 -3 12 1 19 10 14 17 11 19 -10 5z"/>
<path d="M824 563 c-7 -36 -22 -72 -23 -55 -1 6 -6 12 -12 12 -8 0 -8 -4 -1
-13 9 -10 7 -19 -4 -36 -9 -12 -13 -25 -10 -28 3 -3 1 -12 -5 -19 -8 -9 -9
-30 -3 -61 5 -32 9 -40 12 -25 2 12 8 22 13 22 5 0 9 17 9 38 0 21 6 44 13 51
10 11 9 14 -1 18 -9 4 -8 13 7 36 16 27 26 87 15 87 -2 0 -6 -12 -10 -27z
m-32 -115 c-7 -7 -12 -8 -12 -2 0 14 12 26 19 19 2 -3 -1 -11 -7 -17z m-10
-70 c-6 -6 -7 0 -4 19 5 21 7 23 10 9 2 -10 0 -22 -6 -28z"/>
<path d="M62 535 c0 -16 2 -22 5 -12 2 9 2 23 0 30 -3 6 -5 -1 -5 -18z"/>
<path d="M1978 465 c3 -42 1 -65 -6 -65 -5 0 -8 -8 -5 -18 2 -10 -3 -31 -11
-47 -18 -34 -21 -65 -6 -65 6 0 10 9 10 20 0 11 7 20 15 20 8 0 15 3 15 8 0 4
3 41 6 82 5 76 -1 130 -16 130 -4 0 -5 -29 -2 -65z"/>
<path d="M500 500 c0 -5 4 -10 10 -10 5 0 7 -8 4 -17 -5 -14 -4 -15 4 -4 11
15 5 41 -9 41 -5 0 -9 -4 -9 -10z"/>
<path d="M113 470 c-2 -24 22 -27 31 -4 9 23 8 24 -12 24 -11 0 -18 -8 -19
-20z"/>
<path d="M1282 470 c0 -14 2 -19 5 -12 2 6 2 18 0 25 -3 6 -5 1 -5 -13z"/>
<path d="M1256 444 c-9 -24 -7 -54 4 -54 6 0 10 16 10 35 0 38 -4 44 -14 19z"/>
<path d="M345 437 c-4 -10 -5 -21 -1 -24 10 -10 18 4 13 24 -4 17 -4 17 -12 0z"/>
<path d="M104 432 c3 -6 0 -13 -6 -16 -7 -3 -4 -5 6 -3 21 2 25 19 5 26 -6 2
-9 -1 -5 -7z"/>
<path d="M480 424 c0 -8 5 -12 10 -9 6 3 10 10 10 16 0 5 -4 9 -10 9 -5 0 -10
-7 -10 -16z"/>
<path d="M810 400 c0 -5 4 -10 9 -10 6 0 13 5 16 10 3 6 -1 10 -9 10 -9 0 -16
-4 -16 -10z"/>
<path d="M1 358 c0 -28 2 -30 9 -13 12 28 12 45 0 45 -5 0 -10 -15 -9 -32z"/>
<path d="M409 383 c-1 -4 -1 -11 0 -15 0 -5 -6 -8 -14 -8 -14 0 -17 -14 -17
-80 0 -40 2 -50 12 -50 6 0 10 7 10 16 0 8 4 13 9 10 13 -9 23 26 11 38 -7 7
-10 6 -10 -2 0 -7 -3 -12 -7 -12 -5 0 -8 16 -8 35 0 22 4 34 12 31 13 -6 25
32 12 40 -5 3 -10 2 -10 -3z"/>
<path d="M950 360 c0 -5 5 -10 10 -10 6 0 10 5 10 10 0 6 -4 10 -10 10 -5 0
-10 -4 -10 -10z"/>
<path d="M811 318 c-1 -21 4 -38 9 -38 12 0 12 27 0 55 -7 16 -9 13 -9 -17z"/>
<path d="M157 305 c-19 -40 -20 -45 -9 -45 9 0 36 69 30 76 -3 2 -12 -12 -21
-31z"/>
<path d="M60 294 c0 -8 5 -12 10 -9 6 4 8 11 5 16 -9 14 -15 11 -15 -7z"/>
<path d="M183 298 c-4 -7 -8 -32 -9 -56 -1 -23 -8 -50 -16 -60 -19 -22 -24
-139 -5 -139 8 0 11 16 9 54 -3 38 1 59 11 71 8 9 17 45 20 80 6 63 4 71 -10
50z"/>
<path d="M763 294 c-3 -8 -1 -20 6 -27 8 -8 11 -8 11 0 0 6 3 18 6 27 3 9 1
16 -5 16 -7 0 -14 -7 -18 -16z"/>
<path d="M680 270 c0 -5 5 -10 11 -10 5 0 7 5 4 10 -3 6 -8 10 -11 10 -2 0 -4
-4 -4 -10z"/>
<path d="M810 243 c0 -13 5 -23 10 -23 13 0 13 11 0 30 -8 12 -10 11 -10 -7z"/>
<path d="M29 203 c-6 -21 -16 -41 -21 -44 -11 -7 1 -109 12 -109 13 0 20 44 8
51 -7 5 -7 17 0 40 13 42 23 99 18 99 -3 0 -10 -17 -17 -37z"/>
<path d="M67 211 c-4 -17 -3 -21 5 -13 5 5 8 16 6 23 -3 8 -7 3 -11 -10z"/>
<path d="M119 218 c-1 -2 -2 -18 -4 -35 -4 -44 12 -42 17 2 2 19 0 35 -4 35
-4 0 -8 -1 -9 -2z"/>
<path d="M432 200 c0 -14 2 -19 5 -12 2 6 2 18 0 25 -3 6 -5 1 -5 -13z"/>
<path d="M817 203 c-4 -3 -7 -11 -7 -17 0 -6 5 -5 12 2 6 6 9 14 7 17 -3 3 -9
2 -12 -2z"/>
<path d="M232 160 c0 -14 2 -19 5 -12 2 6 2 18 0 25 -3 6 -5 1 -5 -13z"/>
<path d="M546 163 c-6 -14 -5 -15 5 -6 7 7 10 15 7 18 -3 3 -9 -2 -12 -12z"/>
<path d="M762 155 c0 -16 2 -22 5 -12 2 9 2 23 0 30 -3 6 -5 -1 -5 -18z"/>
<path d="M60 161 c0 -6 4 -12 10 -16 5 -3 6 -13 3 -21 -4 -11 -8 -12 -13 -4
-11 17 -20 -3 -13 -28 7 -30 16 -28 31 8 10 22 10 34 2 50 -11 21 -20 26 -20
11z"/>
<path d="M697 163 c-4 -3 -7 -26 -7 -49 0 -43 0 -43 25 -32 14 6 25 17 25 24
0 7 3 20 7 30 5 13 3 15 -7 9 -8 -5 -18 -2 -25 8 -7 9 -15 14 -18 10z"/>
<path d="M601 144 c0 -11 3 -14 6 -6 3 7 2 16 -1 19 -3 4 -6 -2 -5 -13z"/>
<path d="M602 100 c0 -14 2 -19 5 -12 2 6 2 18 0 25 -3 6 -5 1 -5 -13z"/>
<path d="M86 85 c-4 -14 -13 -25 -20 -25 -8 0 -16 -13 -18 -30 -4 -26 -1 -30
19 -30 14 0 23 6 23 15 0 9 6 18 14 21 17 6 17 66 0 71 -7 2 -14 -8 -18 -22z
m-6 -65 c0 -5 -4 -10 -10 -10 -5 0 -10 5 -10 10 0 6 5 10 10 10 6 0 10 -4 10
-10z"/>
<path d="M205 73 c2 -10 4 -25 5 -33 0 -12 3 -11 11 3 11 20 6 47 -10 47 -5 0
-8 -8 -6 -17z"/>
<path d="M667 68 c-3 -12 -2 -29 3 -37 7 -12 9 -6 10 22 0 42 -5 48 -13 15z"/>
<path d="M756 81 c-4 -5 -2 -12 3 -15 5 -4 12 -2 15 3 4 5 2 12 -3 15 -5 4
-12 2 -15 -3z"/>
<path d="M791 38 c-1 -28 3 -38 14 -38 8 0 15 7 15 16 0 8 -4 13 -9 9 -5 -3
-12 7 -14 22 -3 23 -4 21 -6 -9z"/>
<path d="M750 20 c0 -11 5 -20 10 -20 6 0 10 9 10 20 0 11 -4 20 -10 20 -5 0
-10 -9 -10 -20z"/>
<path d="M641 14 c0 -11 3 -14 6 -6 3 7 2 16 -1 19 -3 4 -6 -2 -5 -13z"/>
</g>
</svg>
