<?xml version="1.0" standalone="no"?>
<!DOCTYPE svg PUBLIC "-//W3C//DTD SVG 20010904//EN"
 "http://www.w3.org/TR/2001/REC-SVG-20010904/DTD/svg10.dtd">
<svg version="1.0" xmlns="http://www.w3.org/2000/svg"
 width="2000.000000pt" height="2000.000000pt" viewBox="0 0 2000.000000 2000.000000"
 preserveAspectRatio="xMidYMid meet">

<g transform="translate(0.000000,2000.000000) scale(0.100000,-0.100000)"
fill="#000000" stroke="none">
<path d="M9482 19154 c-5 -9 -49 -33 -98 -53 -182 -75 -567 -295 -844 -482
-371 -251 -644 -516 -850 -826 -189 -285 -316 -596 -366 -898 -25 -151 -25
-431 0 -570 96 -533 458 -978 1031 -1270 124 -63 173 -76 182 -49 2 6 -38 44
-89 85 -368 294 -579 650 -649 1094 -17 105 -17 415 -1 535 35 254 105 486
216 715 159 328 354 591 700 944 213 216 771 751 785 751 5 0 11 9 14 20 6 24
-18 27 -31 4z"/>
<path d="M4573 18501 c-280 -104 -362 -461 -157 -681 191 -205 533 -151 659
103 102 206 16 455 -193 558 -59 29 -78 34 -162 36 -75 3 -106 -1 -147 -16z"/>
<path d="M12300 18223 c-135 -6 -390 -35 -520 -59 -487 -90 -954 -288 -1256
-535 -353 -288 -594 -744 -594 -1124 0 -256 105 -513 287 -701 156 -162 328
-258 748 -419 138 -53 300 -120 360 -150 417 -206 702 -514 850 -920 l26 -70
-6 82 c-12 176 -92 393 -207 560 -70 103 -231 262 -346 343 -174 122 -352 202
-655 291 -221 65 -316 111 -412 201 -81 76 -138 158 -178 259 -51 127 -61 191
-62 374 0 147 3 182 23 255 70 259 204 474 446 715 258 258 539 432 946 588
253 97 463 156 870 248 146 33 270 61 275 63 11 5 -494 4 -595 -1z"/>
<path d="M9855 17911 c-409 -173 -694 -349 -899 -555 -75 -75 -235 -247 -236
-252 0 -1 -25 -42 -56 -90 -101 -161 -174 -334 -209 -499 -25 -113 -30 -303
-11 -425 69 -449 329 -765 831 -1010 645 -314 733 -361 896 -482 331 -245 523
-531 584 -873 41 -227 8 -581 -60 -645 -31 -29 -55 -30 -225 -12 -63 6 -163
12 -222 12 -113 0 -153 10 -161 42 -3 10 -1 49 4 86 15 102 12 335 -5 432 -90
505 -491 850 -1203 1034 -34 9 -209 46 -390 82 -530 105 -727 162 -968 279
-423 205 -709 503 -829 865 -65 198 -77 291 -62 521 5 88 5 139 -2 142 -22 14
-110 -240 -136 -392 -20 -119 -21 -331 -1 -445 33 -191 124 -412 242 -590 83
-125 268 -313 403 -408 117 -83 331 -194 488 -254 64 -25 245 -83 402 -129
517 -153 656 -210 874 -356 246 -164 422 -400 500 -673 38 -133 43 -179 19
-203 -18 -18 -40 -20 -324 -26 -226 -4 -310 -3 -328 6 -14 7 -60 55 -102 107
-158 197 -327 332 -543 436 -152 72 -255 106 -501 163 -447 105 -731 216 -988
388 -482 322 -735 740 -754 1244 -11 307 53 589 202 894 154 315 357 573 866
1104 123 128 256 267 294 309 l70 76 -120 -63 c-330 -174 -766 -466 -1055
-706 -478 -399 -836 -911 -966 -1383 -51 -186 -67 -326 -61 -517 6 -187 30
-322 88 -499 179 -544 567 -930 1177 -1170 249 -98 369 -123 762 -156 493 -41
723 -100 933 -237 l72 -47 -230 -23 c-824 -82 -1512 -212 -2160 -408 -702
-212 -1042 -382 -1316 -654 -129 -128 -201 -225 -238 -318 -32 -82 -110 -620
-146 -1008 -33 -362 -39 -515 -39 -935 0 -507 16 -750 80 -1199 23 -163 23
-178 9 -227 -22 -75 -66 -108 -258 -194 -574 -257 -1050 -540 -1417 -844 -218
-180 -511 -494 -640 -685 -314 -468 -406 -990 -266 -1515 53 -200 144 -395
285 -608 407 -617 1001 -1092 1981 -1581 619 -309 1232 -546 1910 -737 1428
-402 3196 -576 4730 -465 981 72 2074 263 2965 520 1108 319 2146 806 2870
1347 596 445 1024 970 1184 1453 71 215 85 300 85 545 1 225 -5 283 -50 464
-62 247 -194 500 -398 760 -42 54 -75 104 -73 111 3 6 40 34 84 60 412 254
773 590 1012 940 284 416 415 839 428 1385 12 530 -93 965 -325 1337 -287 462
-798 835 -1319 962 -186 45 -287 56 -518 55 -407 -2 -645 -57 -1293 -300 -167
-63 -304 -114 -305 -114 -1 0 -2 69 -2 153 0 176 -15 254 -75 383 -98 213
-249 363 -535 534 -282 168 -582 290 -1070 434 -480 141 -1114 262 -1790 341
-77 9 -143 20 -148 24 -4 4 16 57 44 117 160 341 217 571 206 828 -14 309
-129 562 -361 791 -174 173 -326 267 -714 447 -364 167 -530 275 -722 468
-477 479 -531 1072 -148 1637 38 57 74 103 79 103 5 0 9 14 9 30 0 25 -4 30
-23 30 -27 0 -47 -17 -47 -41 0 -9 -31 -42 -70 -73 -200 -162 -368 -445 -426
-719 -70 -333 -6 -684 171 -932 37 -51 49 -77 52 -113 l4 -47 -62 65 c-33 36
-90 109 -126 162 -183 275 -234 589 -149 920 35 136 58 190 133 316 146 243
309 436 478 566 83 65 375 260 433 290 58 30 135 108 105 105 -5 0 -80 -31
-168 -68z m590 -5267 c130 -23 154 -32 161 -59 3 -14 -3 -52 -15 -87 -11 -35
-25 -82 -31 -106 -19 -74 -31 -77 -253 -64 -106 7 -265 15 -354 19 -90 3 -163
7 -163 7 0 1 17 48 39 104 48 127 78 168 134 183 108 29 329 31 482 3z m-1074
-41 c-10 -27 -26 -82 -36 -123 -22 -90 -43 -114 -116 -129 -72 -16 -223 -15
-279 2 -60 17 -73 44 -62 129 5 34 7 80 4 101 -8 67 -8 67 264 67 l244 0 -19
-47z m-943 5 c8 -7 32 -49 54 -92 45 -94 50 -154 17 -187 -19 -19 -29 -21 -88
-16 -155 13 -1087 -86 -1541 -164 -593 -102 -1189 -283 -1530 -465 -129 -70
-540 -315 -540 -323 0 -13 199 -184 313 -270 200 -149 445 -282 692 -376 332
-126 932 -269 1447 -344 389 -57 661 -82 1218 -111 1270 -66 2535 35 3577 285
702 169 1290 413 1663 690 109 82 220 182 220 199 0 13 -89 101 -170 168 -437
359 -1220 559 -2675 683 -322 27 -365 32 -365 43 0 4 19 41 41 82 89 163 127
187 292 177 188 -11 778 -98 1137 -168 605 -118 1237 -313 1560 -481 205 -106
437 -275 503 -366 19 -26 43 -71 53 -101 15 -46 16 -62 6 -110 -25 -118 -108
-200 -392 -386 -625 -411 -1291 -641 -2562 -885 -120 -23 -216 -46 -213 -50 6
-10 149 -36 270 -50 131 -14 572 -38 940 -50 728 -23 684 -21 708 -40 22 -18
22 -19 25 -402 9 -1076 -99 -1799 -375 -2498 -309 -783 -782 -1345 -1438
-1708 -371 -205 -886 -359 -1345 -401 -867 -81 -1705 279 -1993 854 -132 264
-152 582 -56 883 69 214 136 329 384 662 97 129 179 247 182 263 3 15 9 27 13
27 4 0 10 7 14 15 3 9 0 15 -10 15 -9 0 -18 -8 -21 -17 -2 -10 -28 -36 -56
-58 -29 -22 -113 -92 -187 -156 -365 -314 -556 -586 -648 -927 -24 -90 -26
-112 -26 -307 0 -199 1 -218 32 -365 29 -136 39 -167 87 -258 303 -572 788
-883 1595 -1024 120 -20 166 -23 405 -23 288 1 434 12 665 51 364 61 655 156
988 323 910 456 1498 1216 1802 2331 212 777 246 1601 99 2432 -41 232 -44
259 -26 283 14 18 29 20 165 23 237 6 305 -18 333 -115 21 -73 18 -811 -5
-1083 -74 -886 -254 -1575 -591 -2255 -253 -512 -512 -874 -881 -1235 -427
-417 -897 -699 -1493 -894 -373 -123 -672 -179 -1049 -196 -649 -30 -1189 60
-1712 287 -346 150 -726 407 -961 650 -249 257 -434 588 -510 913 -26 111 -36
347 -20 460 38 257 155 491 346 689 150 156 255 231 630 451 411 241 557 352
717 546 120 145 268 428 268 511 0 19 7 50 16 71 34 76 17 360 -31 517 -19 63
-80 145 -125 167 -48 24 -55 8 -34 -84 39 -174 39 -176 20 -233 -12 -34 -16
-65 -12 -88 14 -75 -26 -251 -85 -368 -45 -90 -160 -257 -244 -351 -141 -162
-304 -285 -646 -489 -338 -201 -517 -335 -686 -513 -211 -221 -342 -466 -404
-756 -33 -150 -33 -427 0 -580 77 -365 266 -711 574 -1054 93 -104 647 -537
677 -529 19 5 49 -18 50 -39 0 -16 -48 -7 -64 11 -10 11 -32 23 -50 26 -80 17
-380 187 -480 272 -22 18 -49 33 -61 33 -14 0 -26 10 -33 25 -11 23 -17 25
-74 25 l-63 0 60 -34 c33 -18 86 -58 117 -88 170 -164 410 -309 881 -529 149
-70 227 -101 264 -106 35 -4 70 -17 104 -39 29 -18 66 -36 83 -39 17 -4 103
-24 191 -46 354 -86 622 -119 1010 -126 320 -6 480 4 722 42 84 14 154 25 157
25 4 0 6 -11 6 -25 0 -28 5 -26 -150 -50 -425 -64 -908 -71 -1315 -19 -264 34
-737 141 -876 199 -35 14 -109 41 -164 59 -370 123 -742 339 -1141 661 -718
579 -1244 1333 -1612 2310 -256 680 -400 1311 -469 2055 -22 243 -26 1130 -5
1375 23 273 43 458 72 665 16 113 32 241 35 285 12 153 46 236 133 328 174
182 540 375 987 520 640 208 1279 337 2225 452 162 19 315 39 340 43 48 9 92
1 118 -20z m732 -853 c0 -3 -13 -35 -30 -72 -34 -75 -36 -88 -14 -97 21 -8 31
-1 77 50 47 53 123 91 208 105 94 15 815 -21 1106 -56 250 -31 518 -90 577
-128 90 -59 -58 -178 -310 -251 -177 -51 -341 -81 -726 -136 -191 -27 -465
-71 -610 -99 -145 -27 -323 -59 -395 -72 -73 -12 -133 -26 -133 -30 0 -20 43
-33 153 -44 547 -57 1070 -43 1468 40 302 63 453 125 568 231 96 89 125 150
119 244 l-5 70 26 -7 c168 -40 485 -205 565 -293 30 -34 36 -47 36 -85 0 -86
-55 -167 -142 -211 -104 -53 -388 -110 -818 -164 -593 -74 -1180 -110 -1805
-110 -593 1 -881 19 -1375 90 -426 61 -431 63 -550 121 -166 82 -244 176 -226
272 13 69 95 163 221 254 16 12 26 25 22 29 -4 4 -44 3 -89 -4 -242 -35 -405
-221 -385 -438 5 -52 4 -64 -8 -64 -47 0 -419 95 -665 170 -25 7 -25 7 22 52
58 55 124 91 298 162 283 115 636 213 1006 281 258 46 790 122 944 134 69 6
141 15 160 21 79 23 149 6 187 -46 l20 -26 47 35 c62 48 99 57 236 58 63 0
133 4 155 8 52 11 65 12 65 6z m2565 -210 c411 -85 774 -197 1064 -327 l54
-24 -54 -24 c-136 -58 -373 -129 -571 -169 l-89 -19 6 30 c13 58 6 139 -15
183 -57 118 -227 223 -509 315 -65 21 -126 40 -137 42 -16 3 -15 6 11 20 17 9
39 15 50 12 11 -2 97 -20 190 -39z m4903 -466 c355 -42 734 -240 970 -507 216
-244 338 -508 387 -837 8 -55 24 -149 35 -210 111 -614 -119 -1274 -620 -1775
-351 -353 -785 -618 -1888 -1154 -714 -347 -960 -474 -1268 -651 -193 -112
-252 -142 -321 -166 -49 -17 -52 -17 -44 -1 5 9 58 101 119 203 60 103 117
209 126 237 39 117 143 244 267 327 36 24 182 99 325 166 782 366 1720 854
2076 1079 297 189 537 415 682 642 98 154 183 371 227 578 31 144 34 442 5
570 -51 236 -152 436 -318 636 -98 118 -216 211 -350 279 -186 93 -217 100
-473 100 -194 0 -232 -3 -324 -23 -433 -97 -796 -350 -1278 -888 l-138 -155
-6 363 c-3 200 -12 445 -19 546 -12 158 -11 185 1 197 18 18 520 217 734 291
431 149 751 194 1093 153z m50 -885 c155 -32 277 -98 392 -214 300 -299 364
-806 155 -1220 -150 -297 -483 -597 -983 -884 -190 -109 -267 -146 -303 -146
-22 0 -70 24 -158 79 -249 156 -488 282 -779 412 -85 38 -164 77 -175 86 -48
43 -57 110 -33 236 31 159 94 272 330 587 193 258 311 397 480 565 407 405
752 566 1074 499z m-1889 -2398 c60 -25 155 -68 212 -96 126 -63 448 -240 454
-249 3 -6 -939 -460 -1009 -487 -10 -4 1 42 35 153 53 167 137 485 164 618 20
95 23 105 30 105 4 0 55 -20 114 -44z m-10546 -103 c8 -16 22 -59 31 -98 10
-38 54 -200 98 -360 78 -282 84 -299 220 -605 267 -599 389 -833 612 -1170
276 -415 600 -785 1001 -1145 192 -172 215 -195 194 -195 -20 0 -255 89 -384
145 -465 202 -892 486 -1172 778 -155 162 -245 318 -297 514 l-23 88 -7 -76
c-12 -140 21 -333 83 -478 69 -163 162 -291 341 -475 293 -301 649 -536 1100
-726 69 -29 238 -104 377 -166 173 -78 264 -114 289 -114 20 0 48 -7 62 -15
15 -8 81 -28 147 -45 66 -18 239 -68 385 -112 359 -108 523 -152 725 -192 282
-57 652 -109 938 -131 78 -7 87 -9 87 -28 0 -19 -4 -20 -162 -13 -201 9 -527
32 -713 51 -336 35 -778 103 -875 135 -30 9 -98 23 -150 30 -138 17 -313 55
-415 90 -50 17 -135 40 -190 51 -300 60 -593 162 -1070 372 -636 280 -961 481
-1250 771 -145 146 -223 244 -312 394 -29 48 -57 94 -63 102 -8 11 -9 -15 -6
-90 13 -275 142 -508 447 -806 372 -361 850 -638 1563 -903 811 -303 1771
-485 2931 -557 338 -20 1199 -15 1525 10 620 47 981 89 1320 153 74 14 173 29
220 33 88 9 162 25 290 66 41 13 106 28 145 34 38 6 74 15 81 21 6 5 33 12 60
15 96 12 685 205 909 299 529 220 996 512 1319 824 249 242 384 504 417 812 6
53 9 111 7 130 -3 33 -3 33 -22 -21 -33 -99 -113 -253 -177 -343 -148 -209
-413 -427 -794 -656 -287 -172 -543 -292 -985 -459 -352 -133 -489 -176 -673
-208 -49 -8 -100 -22 -113 -30 -12 -9 -47 -19 -76 -24 -64 -10 -200 -41 -327
-75 -122 -32 -303 -69 -471 -94 -189 -29 -726 -88 -905 -101 -82 -5 -188 -13
-235 -16 -74 -5 -93 -3 -145 17 l-60 23 65 8 c36 4 134 14 219 23 398 41 866
143 1426 311 105 31 249 73 320 94 244 68 727 263 1020 410 411 207 772 467
995 715 92 103 178 232 236 353 80 166 94 213 94 305 0 111 13 150 68 210 53
56 20 39 902 462 580 279 798 386 950 471 172 95 176 97 198 85 28 -15 189
-231 257 -344 278 -467 283 -946 13 -1419 -176 -310 -514 -662 -932 -973 -648
-482 -1631 -936 -2683 -1240 -975 -282 -2103 -461 -3247 -516 -283 -13 -1126
-7 -1351 10 -1864 143 -3306 501 -4575 1136 -583 292 -1011 567 -1344 864
-403 359 -692 821 -761 1215 -19 114 -19 320 0 427 58 313 234 617 533 917
377 378 833 677 1532 1003 164 77 193 82 213 42z m10192 -2259 c-35 -152 -100
-251 -289 -439 -325 -325 -623 -501 -1445 -857 -119 -51 -250 -88 -311 -87
l-35 0 115 111 c403 387 914 744 1744 1217 127 72 231 129 233 127 2 -2 -3
-35 -12 -72z"/>
<path d="M8985 11549 c-287 -17 -728 -69 -926 -109 -272 -55 -486 -174 -519
-287 -21 -68 -7 -110 58 -174 60 -58 149 -103 268 -134 64 -17 271 -41 279
-33 3 3 -21 32 -53 65 -94 96 -91 134 14 190 199 105 527 176 1059 228 549 54
845 91 1105 141 168 32 313 65 307 70 -6 6 -338 32 -557 44 -225 11 -829 11
-1035 -1z"/>
<path d="M11387 17375 c-381 -230 -596 -609 -522 -923 25 -105 79 -198 164
-283 97 -96 160 -133 401 -231 306 -125 439 -202 589 -343 258 -244 382 -550
367 -910 -13 -316 -110 -628 -366 -1175 -45 -96 -88 -190 -96 -210 l-14 -35
40 45 c23 25 97 115 166 200 567 700 784 1401 594 1923 -99 269 -298 485 -578
626 -129 65 -214 95 -433 156 -242 66 -326 104 -412 185 -213 199 -189 488 69
855 127 181 125 177 31 120z"/>
<path d="M3536 16036 c-54 -20 -106 -65 -141 -121 -27 -44 -30 -57 -30 -130 0
-73 3 -86 30 -130 43 -69 117 -109 204 -109 90 -1 150 23 204 84 89 98 90 225
2 328 -64 76 -182 110 -269 78z"/>
<path d="M3472 14503 c-43 -21 -65 -65 -65 -130 0 -79 35 -119 120 -137 45
-10 117 23 143 66 39 64 18 161 -42 198 -40 24 -110 26 -156 3z"/>
<path d="M15800 2882 c-41 -35 -109 -86 -150 -114 -98 -64 -854 -443 -903
-452 -21 -4 -119 -36 -218 -71 -1177 -419 -2621 -684 -4144 -762 -432 -22
-1445 -25 -1800 -5 -613 35 -1330 95 -1388 117 -22 9 -72 15 -123 15 -52 0
-96 5 -112 14 -15 7 -66 16 -113 19 -48 3 -174 22 -280 42 -739 139 -1486 335
-2219 584 -171 58 -257 95 -521 225 -396 195 -565 296 -685 408 -18 17 -34 26
-38 20 -13 -21 -18 -172 -7 -241 16 -102 40 -155 139 -306 163 -247 377 -420
749 -604 643 -320 1862 -641 2983 -786 1147 -149 2507 -195 3670 -125 1042 63
2058 220 3024 465 669 170 1146 348 1541 574 298 171 438 294 522 459 20 40
42 76 48 80 18 12 83 145 101 207 18 62 22 226 7 276 l-8 26 -75 -65z"/>
</g>
</svg>
