<?xml version="1.0" standalone="no"?>
<!DOCTYPE svg PUBLIC "-//W3C//DTD SVG 20010904//EN"
 "http://www.w3.org/TR/2001/REC-SVG-20010904/DTD/svg10.dtd">
<svg version="1.0" xmlns="http://www.w3.org/2000/svg"
 width="1024.000000pt" height="683.000000pt" viewBox="0 0 1024.000000 683.000000"
 preserveAspectRatio="xMidYMid meet">

<g transform="translate(0.000000,683.000000) scale(0.100000,-0.100000)"
fill="#000000" stroke="none">
<path d="M0 5310 l0 -1521 38 2 c20 1 45 6 54 11 17 8 54 17 171 39 31 6 57
15 57 21 0 5 4 7 9 4 9 -6 66 4 136 24 22 6 76 20 120 30 44 11 125 31 180 45
55 14 106 23 114 20 7 -3 19 -1 25 4 6 5 29 11 51 14 61 7 150 25 260 54 55
14 129 30 164 35 36 5 78 16 94 24 16 9 35 13 43 10 7 -3 16 -1 19 4 4 6 17
10 30 10 27 0 129 25 195 47 43 15 171 46 255 63 123 25 234 50 260 59 17 5
59 18 95 27 36 10 69 21 74 26 6 4 27 8 48 8 21 0 38 4 38 9 0 5 17 11 38 14
20 3 44 7 52 10 8 2 34 8 57 12 24 4 43 11 43 15 0 4 25 10 55 14 30 3 69 13
87 20 18 8 65 22 104 30 39 9 81 19 95 22 13 3 32 7 42 7 9 1 17 5 17 9 0 4
14 8 31 8 18 0 50 5 73 11 89 23 116 29 241 49 109 17 152 23 226 29 12 1 -20
140 -46 203 -44 103 -60 185 -47 234 17 64 97 170 166 222 428 318 1713 425
2648 221 193 -42 399 -102 527 -153 70 -28 85 -28 52 0 -15 14 -18 20 -8 27 8
6 5 7 -9 4 -17 -4 -20 -1 -16 15 5 20 40 40 55 31 4 -2 7 0 7 5 0 5 14 9 31
10 17 0 37 6 44 12 8 7 18 9 23 6 5 -3 44 6 88 19 136 41 407 110 479 122 29
4 61 15 97 34 10 5 33 9 52 9 18 0 39 6 45 14 7 8 20 14 29 14 9 -1 35 2 57 7
22 4 47 9 55 11 8 2 47 10 86 18 39 8 93 17 120 19 27 3 67 12 90 20 22 9 58
18 80 20 21 2 66 11 99 20 33 9 75 19 93 22 18 3 53 12 77 21 25 8 50 12 55 9
5 -3 25 1 44 10 18 9 44 18 57 19 13 2 31 6 39 9 29 10 155 39 245 55 50 8 92
19 93 24 2 4 18 8 35 8 18 0 48 5 67 11 38 12 38 12 120 23 30 5 62 14 70 21
8 7 33 16 55 19 22 3 58 11 80 16 22 6 51 13 65 15 96 16 145 27 150 35 3 4
25 11 50 15 25 3 76 15 114 26 38 12 88 21 112 21 24 0 44 4 44 9 0 5 8 9 18
9 10 0 22 3 26 8 4 4 13 7 19 7 9 0 13 83 15 313 l2 312 -4332 -3 c-2383 -2
-4346 -6 -4363 -9 -50 -10 -395 -48 -472 -52 -40 -3 -91 -7 -115 -10 -79 -11
-130 -15 -125 -10 10 10 -43 53 -58 48 -18 -7 -20 7 -3 24 9 9 -75 12 -380 12
l-392 0 0 -1520z m4755 1040 c17 -7 52 -15 78 -18 34 -3 51 -10 58 -24 10 -18
12 -19 29 -3 17 15 19 15 29 -2 6 -10 11 -14 11 -10 0 4 9 3 20 -3 16 -9 20
-8 20 5 0 8 7 15 15 15 8 0 15 6 15 13 0 6 5 4 11 -6 6 -9 15 -15 20 -11 6 3
16 3 24 0 18 -6 9 -36 -11 -36 -8 0 -31 -9 -51 -20 -21 -11 -47 -20 -59 -20
-12 0 -24 -7 -28 -15 -3 -8 -9 -14 -13 -14 -9 2 -39 -8 -64 -21 -10 -5 -21 -4
-28 3 -8 8 -14 8 -19 2 -7 -10 -124 -43 -185 -52 -18 -2 -48 -8 -67 -13 -19
-5 -39 -10 -45 -11 -62 -13 -135 -28 -155 -34 -14 -4 -41 -10 -60 -14 -19 -4
-49 -15 -67 -24 -18 -9 -41 -17 -53 -17 -11 0 -20 -5 -20 -10 0 -7 -6 -8 -17
-2 -10 6 -29 6 -47 1 -17 -5 -45 -9 -63 -9 -17 0 -38 -6 -45 -13 -7 -7 -22
-14 -33 -15 -37 -3 -60 -8 -73 -16 -6 -4 -16 -5 -21 -2 -5 3 -29 -1 -55 -8
-25 -8 -46 -10 -46 -5 0 5 -5 9 -11 9 -5 0 -7 -4 -4 -10 4 -6 -8 -10 -29 -10
-19 0 -85 -16 -148 -35 -62 -20 -131 -38 -153 -41 -79 -9 -101 -12 -145 -22
-25 -6 -88 -16 -140 -22 -52 -7 -97 -16 -100 -21 -6 -9 -135 -43 -210 -54 -25
-4 -49 -11 -55 -15 -17 -13 -169 -32 -229 -28 -31 1 -57 0 -59 -4 -5 -15 -188
-17 -235 -2 -56 17 -95 19 -72 4 8 -5 28 -10 44 -10 53 0 13 -20 -45 -23 -30
-1 -58 -7 -64 -13 -5 -7 -24 -15 -42 -19 -27 -5 -33 -2 -49 24 -15 25 -19 27
-29 15 -12 -17 -45 -9 -45 10 0 7 11 19 25 26 32 17 31 22 -5 43 -18 11 -27
23 -23 32 3 8 0 15 -7 15 -10 0 -9 4 0 16 8 8 9 14 4 13 -19 -3 -34 1 -34 12
0 5 4 7 10 4 5 -3 10 1 10 10 0 11 5 15 15 12 8 -4 17 -2 20 3 4 6 16 11 28
11 18 1 19 2 4 6 -22 6 -19 48 3 49 44 3 46 4 30 14 -13 8 -12 10 3 10 9 0 17
4 17 10 0 5 16 12 35 16 19 3 33 10 30 14 -3 5 9 12 27 16 29 6 30 8 13 15
-14 5 -7 8 27 8 27 1 48 6 51 14 4 9 8 9 15 -2 7 -9 16 -11 28 -6 31 13 46 16
107 21 50 4 57 2 57 -13 0 -13 2 -15 8 -5 9 13 42 6 42 -9 0 -5 8 -9 18 -9 14
0 15 2 2 10 -9 6 -10 10 -3 10 6 0 15 -5 18 -10 7 -11 54 -8 73 4 5 3 24 1 41
-5 22 -8 35 -8 44 0 15 11 58 4 69 -13 5 -8 8 -7 8 2 0 6 7 12 15 12 9 0 12 6
9 15 -4 9 0 15 10 15 9 0 16 -4 16 -10 0 -5 18 -10 41 -10 22 0 38 4 35 9 -4
5 2 7 12 4 22 -5 57 31 49 52 -4 9 -1 15 7 15 8 0 16 5 18 11 2 6 14 8 31 4
15 -4 24 -11 21 -16 -9 -15 53 -10 66 6 16 19 33 9 25 -15 -3 -10 -1 -21 5
-25 6 -4 10 6 10 24 0 25 4 31 23 31 20 1 21 2 5 14 -22 16 -13 26 21 26 29 0
67 23 93 56 15 19 24 20 80 16 35 -3 110 -6 168 -6 72 -1 107 -5 113 -13 11
-18 37 -16 37 3 0 12 7 14 30 9 19 -4 30 -3 30 4 0 7 10 9 25 5 14 -4 32 -1
40 6 9 8 30 10 57 6 24 -4 63 -9 88 -13 25 -3 50 -10 57 -15 7 -6 20 -4 35 6
14 9 29 12 37 7 16 -10 65 0 108 22 18 10 40 17 50 17 10 0 27 6 38 13 11 7
42 14 68 15 27 1 63 8 80 16 18 8 39 14 47 15 26 0 70 8 75 13 10 10 201 0
230 -12z m362 -62 c-3 -8 -6 -5 -6 6 -1 11 2 17 5 13 3 -3 4 -12 1 -19z
m-3431 -572 c-6 -33 -8 -34 -36 -26 -22 6 -34 5 -44 -6 -8 -8 -22 -11 -30 -8
-19 7 -21 24 -3 25 6 0 3 4 -8 9 -18 8 -17 9 6 9 15 1 32 7 38 15 12 14 40 14
61 1 6 -3 10 2 10 11 0 10 3 15 6 11 4 -3 3 -22 0 -41z"/>
<path d="M3170 6150 c0 -5 5 -10 11 -10 5 0 7 5 4 10 -3 6 -8 10 -11 10 -2 0
-4 -4 -4 -10z"/>
<path d="M3055 6090 c3 -5 12 -7 20 -3 21 7 19 13 -6 13 -11 0 -18 -4 -14 -10z"/>
<path d="M3126 6061 c-3 -4 7 -8 21 -9 15 -1 23 1 19 5 -9 10 -35 13 -40 4z"/>
<path d="M2001 5724 c0 -11 3 -14 6 -6 3 7 2 16 -1 19 -3 4 -6 -2 -5 -13z"/>
<path d="M10210 5810 c-8 -5 -17 -7 -22 -4 -4 3 -24 -3 -45 -11 -56 -24 -185
-65 -205 -65 -10 0 -18 -4 -18 -10 0 -5 -15 -10 -34 -10 -19 0 -37 -4 -41 -9
-6 -10 -62 -21 -132 -26 -44 -3 -228 -42 -258 -55 -11 -5 -38 -12 -60 -15 -22
-4 -46 -12 -53 -17 -7 -6 -15 -8 -19 -5 -3 3 -19 -1 -35 -9 -16 -9 -36 -13
-44 -10 -7 3 -20 -1 -28 -9 -7 -8 -16 -11 -20 -8 -3 4 -6 1 -6 -5 0 -6 -19
-16 -42 -23 -24 -6 -46 -15 -49 -21 -3 -5 -29 -11 -57 -12 -28 -2 -57 -8 -65
-14 -8 -7 -17 -9 -20 -5 -4 3 -13 1 -21 -6 -8 -7 -36 -13 -63 -14 -31 -2 -47
-7 -46 -15 2 -7 -4 -12 -12 -12 -8 0 -15 5 -15 10 0 6 -11 5 -27 -4 -16 -7
-52 -17 -81 -21 -28 -4 -50 -11 -47 -15 3 -4 -5 -6 -16 -3 -14 4 -25 0 -31
-11 -6 -10 -22 -16 -47 -16 -22 0 -44 -6 -51 -15 -7 -9 -15 -13 -18 -10 -3 2
-11 -3 -18 -13 -12 -15 -15 -15 -25 -2 -8 11 -12 12 -16 3 -2 -7 -11 -13 -19
-13 -8 0 -11 -6 -7 -16 7 -18 -12 -34 -42 -34 -11 0 -30 -12 -42 -27 -13 -14
-23 -21 -23 -15 0 21 -26 12 -40 -13 -7 -14 -17 -25 -22 -25 -5 0 -6 5 -3 10
3 6 -1 13 -10 17 -11 4 -25 -3 -38 -19 -12 -14 -28 -23 -34 -21 -7 3 -13 0
-13 -6 0 -6 -11 -11 -24 -11 -25 0 -36 -16 -36 -56 0 -15 -6 -24 -15 -24 -11
0 -15 11 -15 40 0 22 -4 40 -10 40 -5 0 -10 -18 -10 -40 0 -26 -4 -40 -13 -40
-11 0 -47 -58 -47 -77 0 -3 14 -3 32 1 25 5 30 4 20 -6 -7 -7 -12 -20 -12 -30
0 -10 -3 -17 -7 -17 -20 3 -24 -2 -13 -16 10 -12 9 -16 -4 -21 -9 -3 -23 -3
-32 0 -11 4 -22 -1 -31 -14 -10 -14 -21 -19 -34 -15 -13 4 -19 2 -19 -9 0 -9
-8 -16 -17 -16 -19 0 -79 -18 -105 -31 -10 -5 -30 -9 -45 -9 -40 0 -74 -11
-67 -21 3 -5 -2 -9 -10 -9 -9 0 -16 6 -16 13 0 6 -5 4 -11 -6 -6 -10 -17 -16
-27 -13 -9 3 -29 -1 -44 -9 -24 -12 -28 -12 -28 0 0 25 -23 29 -41 7 -14 -18
-19 -19 -28 -8 -9 11 -8 18 4 30 9 9 22 16 28 16 7 0 21 16 31 35 15 28 17 37
6 50 -10 12 -10 15 3 15 8 0 17 -5 19 -12 3 -8 16 -9 48 -2 38 8 46 14 54 42
5 17 13 32 18 32 5 0 7 9 3 19 -4 14 0 21 17 27 33 10 64 54 38 54 -5 0 -10
-7 -10 -15 0 -8 -6 -15 -14 -15 -8 0 -21 7 -30 15 -17 17 -36 20 -36 5 0 -5
-6 -10 -14 -10 -8 0 -17 -4 -20 -8 -7 -12 28 -11 35 1 9 14 42 0 36 -16 -2 -7
-21 -12 -48 -12 l-44 0 -1 44 c-1 47 -24 72 -24 27 0 -17 -6 -26 -15 -26 -12
0 -13 4 -6 19 13 24 7 29 -31 25 -17 -2 -37 1 -45 7 -7 7 -28 9 -48 6 -27 -4
-38 -1 -48 13 -7 10 -31 22 -52 26 -22 4 -43 12 -47 18 -4 6 -9 8 -12 5 -3 -3
8 -34 26 -69 54 -112 38 -171 -74 -275 -49 -45 -102 -80 -181 -121 -62 -31
-120 -63 -129 -71 -9 -8 -21 -12 -26 -9 -5 3 -31 -1 -58 -9 -313 -91 -607
-141 -947 -161 -65 -4 -120 -10 -122 -14 -5 -8 299 -1 384 9 55 8 68 6 78 -7
12 -14 13 -14 13 0 0 12 17 19 73 28 39 6 124 19 187 30 63 10 122 18 130 18
39 -2 225 45 328 83 105 38 256 124 246 140 -3 5 3 9 12 9 10 0 36 17 58 38
40 38 40 31 1 -23 -21 -29 -91 -259 -114 -375 -6 -30 -20 -120 -30 -200 -16
-125 -24 -159 -61 -245 -89 -208 -99 -246 -110 -415 -14 -209 -29 -359 -46
-455 -19 -107 -18 -119 4 -110 66 26 453 46 504 26 41 -16 154 -136 233 -247
11 -15 61 -78 110 -140 50 -62 117 -147 150 -190 33 -42 74 -93 91 -113 17
-20 75 -94 129 -166 53 -71 123 -161 155 -200 74 -89 329 -409 395 -495 27
-36 99 -126 160 -200 176 -216 235 -294 235 -313 0 -2 -35 -7 -77 -11 -43 -3
-94 -8 -113 -10 -19 -2 -72 -7 -116 -10 l-82 -6 -40 47 c-48 54 -66 55 -22 1
17 -20 27 -39 23 -41 -5 -3 -44 -8 -88 -12 -44 -4 -93 -9 -110 -11 -16 -3 -93
-9 -170 -14 -77 -6 -160 -14 -185 -19 -25 -6 -83 -13 -130 -16 -47 -4 -105
-11 -129 -16 -24 -5 -93 -12 -153 -14 -60 -3 -113 -7 -116 -9 -7 -4 -105 -13
-232 -21 -36 -2 -85 -8 -110 -14 -25 -5 -97 -13 -160 -16 -63 -4 -137 -11
-164 -16 -27 -5 -79 -9 -116 -9 -37 0 -104 -7 -147 -15 -44 -8 -109 -17 -144
-20 -168 -12 -212 -16 -221 -21 -5 -3 -43 -8 -86 -10 -90 -6 -119 -8 -267 -25
-60 -6 -126 -13 -145 -14 -19 -2 -71 -8 -115 -15 -44 -6 -109 -13 -145 -15
-36 -2 -94 -7 -130 -11 -36 -3 -76 -6 -90 -5 -14 0 -48 -4 -76 -10 -28 -5 -85
-12 -126 -14 -40 -2 -96 -9 -123 -15 -27 -6 -63 -10 -80 -9 -16 1 -50 -1 -75
-5 -25 -4 -72 -9 -105 -11 -33 -3 -107 -10 -165 -15 -58 -6 -163 -15 -235 -20
-71 -4 -143 -10 -160 -13 -16 -3 -73 -8 -125 -12 -52 -4 -106 -9 -120 -11 -40
-7 -191 -23 -370 -39 -91 -8 -183 -17 -205 -21 -60 -9 -122 -53 -130 -92 -2
-11 -9 -31 -16 -44 -13 -22 -14 -21 -24 22 -5 25 -13 50 -16 55 -4 6 -5 24 -3
40 6 43 15 155 15 190 0 75 -1 80 -10 66 -6 -9 -11 -10 -15 -3 -4 6 -13 9 -21
5 -9 -3 -24 5 -36 18 -18 21 -20 22 -14 4 4 -11 11 -42 15 -70 5 -27 14 -68
20 -90 7 -22 13 -64 15 -93 l3 -53 -57 7 c-46 5 -61 3 -73 -10 -18 -17 -63
-23 -53 -6 3 5 -7 5 -25 -1 -17 -6 -37 -23 -44 -38 -8 -14 -34 -44 -57 -66
-24 -22 -37 -32 -29 -21 12 16 12 20 -1 30 -9 6 -19 21 -23 34 -6 18 -4 22 13
22 22 0 22 3 25 110 1 30 -12 79 -39 143 -5 11 -3 17 6 17 9 0 9 3 -2 12 -9 7
-21 33 -28 58 -7 25 -18 51 -24 58 -6 7 -12 25 -14 40 -5 48 -6 52 -14 52 -5
0 -12 15 -17 32 -6 24 -15 34 -31 36 -23 4 -24 11 -10 61 2 7 -2 16 -8 18 -7
3 -13 -2 -13 -11 0 -20 -40 -43 -41 -24 0 7 -2 26 -4 42 -3 19 4 40 17 60 15
20 18 31 10 34 -7 2 -12 10 -12 18 0 8 -4 14 -10 14 -5 0 -10 10 -10 21 0 18
2 19 15 9 8 -7 15 -9 15 -5 0 4 7 1 17 -6 15 -13 15 -12 2 9 -8 12 -21 22 -29
23 -11 0 -12 2 -2 6 10 4 10 9 -4 24 -10 11 -14 27 -11 40 4 13 -1 28 -10 37
-12 13 -14 30 -9 91 6 82 -2 103 -52 130 -16 8 -22 21 -22 45 0 22 -8 40 -26
57 -14 13 -30 35 -35 48 -8 20 -12 21 -25 10 -13 -11 -19 -8 -39 17 -14 16
-24 38 -25 50 0 11 -9 29 -20 39 -14 13 -20 30 -19 54 1 20 -2 45 -5 56 -6 15
0 24 24 38 22 13 30 25 28 40 -3 22 -12 24 -66 16 -25 -4 -20 -14 -71 146 -11
33 -22 76 -24 95 -3 19 -10 48 -16 64 -10 25 -15 28 -45 22 -31 -6 -36 -3 -55
27 -12 19 -21 41 -21 49 0 8 -14 41 -31 73 -26 48 -29 64 -22 89 11 40 58 64
143 73 36 3 78 14 95 24 22 13 62 19 160 24 72 3 137 8 145 10 8 2 107 11 219
20 112 8 208 18 212 21 5 3 95 12 201 20 190 15 297 24 493 43 55 5 177 15
270 21 232 16 211 7 219 87 4 37 12 73 17 80 7 8 7 29 0 65 -6 29 -13 78 -16
108 -10 97 -17 130 -26 130 -5 0 -14 12 -19 26 -6 14 -14 22 -20 19 -6 -3 -10
4 -10 18 0 15 -10 31 -25 41 -32 21 -35 20 -36 -6 -2 -69 -56 136 -73 282 -4
30 -14 109 -22 175 -8 66 -17 139 -20 163 -5 36 -8 41 -20 31 -19 -16 -18 0 2
22 12 13 14 26 9 46 -8 27 -9 25 -26 -27 -10 -30 -18 -46 -18 -35 -1 15 -8 20
-31 20 -16 0 -30 -4 -29 -9 0 -5 -5 -13 -13 -17 -9 -6 -6 -9 12 -9 25 -1 25
-1 2 -10 -13 -6 -22 -18 -22 -32 -1 -20 -2 -21 -11 -5 -12 20 -49 23 -49 3 0
-9 -18 -16 -50 -20 -36 -5 -50 -11 -50 -22 0 -10 6 -14 15 -11 8 4 17 2 20 -3
4 -6 -6 -10 -20 -10 -15 0 -24 -4 -20 -10 3 -5 1 -10 -4 -10 -11 0 -15 19 -13
53 3 27 -19 20 -46 -15 -12 -15 -11 -20 3 -34 13 -14 14 -19 3 -25 -8 -6 -14
-3 -16 6 -5 22 -40 18 -54 -5 -9 -14 -24 -20 -50 -20 -21 0 -38 5 -38 10 0 6
4 10 8 10 4 0 9 11 10 25 1 14 -3 25 -8 25 -6 0 -10 -9 -10 -20 0 -11 -4 -20
-10 -20 -5 0 -7 -7 -4 -15 5 -11 -2 -15 -27 -16 -35 -1 -33 -3 14 -13 45 -10
26 -28 -31 -30 -38 -1 -52 3 -54 14 -2 10 -10 8 -28 -11 -24 -24 -27 -25 -75
-12 -63 16 -76 16 -73 1 2 -7 -4 -13 -12 -13 -8 0 -14 5 -13 12 2 7 -4 10 -12
7 -9 -4 -21 -2 -28 3 -6 5 -25 6 -42 2 -25 -5 -26 -7 -7 -8 13 0 21 -5 17 -10
-3 -6 4 -15 16 -21 29 -16 13 -29 -36 -29 -22 -1 -61 -1 -87 -1 -39 -1 -46 2
-44 17 2 11 13 19 30 21 16 2 26 0 23 -5 -3 -5 5 -10 19 -11 13 -1 24 3 24 8
0 6 -7 10 -15 10 -8 0 -19 9 -25 19 -8 17 -15 18 -42 10 -18 -5 -57 -9 -87 -9
-41 0 -52 -3 -44 -11 14 -14 -6 -39 -32 -39 -8 0 -18 -7 -21 -15 -7 -16 -34
-21 -34 -5 0 5 -7 7 -15 4 -8 -4 -12 -11 -8 -18 3 -6 -4 -2 -16 8 -16 15 -20
16 -16 4 4 -9 0 -18 -9 -21 -11 -5 -16 0 -16 14 0 15 -5 19 -16 15 -9 -3 -19
-6 -22 -6 -4 0 0 -5 8 -10 12 -8 11 -10 -7 -10 -12 0 -24 4 -27 9 -4 5 -23 4
-48 -2 -38 -9 -43 -8 -60 12 -22 28 -23 45 -3 65 8 8 15 21 15 28 1 8 7 5 16
-7 15 -19 16 -18 10 18 -9 51 6 69 49 61 19 -3 35 -1 39 5 4 7 -1 11 -13 11
-12 0 -21 5 -21 10 0 6 18 10 40 10 29 0 40 -4 40 -15 0 -8 5 -15 10 -15 6 0
10 9 10 19 0 20 -25 35 -41 25 -6 -3 -16 0 -24 6 -8 7 -20 8 -27 4 -7 -5 -23
-7 -35 -6 -12 2 -30 -1 -40 -6 -10 -6 -36 -12 -58 -13 -22 -2 -43 -8 -47 -13
-3 -5 -55 -11 -114 -13 -60 -2 -111 -8 -114 -14 -4 -5 -40 -13 -81 -16 -41 -3
-77 -10 -80 -15 -3 -5 -32 -11 -64 -14 -32 -4 -76 -12 -98 -20 -22 -8 -52 -14
-66 -14 -15 0 -32 -5 -37 -10 -10 -10 -72 -23 -106 -22 -10 1 -20 -3 -23 -9
-4 -5 -19 -9 -34 -9 -16 0 -64 -9 -107 -19 -44 -10 -117 -24 -164 -31 -47 -6
-105 -18 -130 -25 -25 -8 -81 -22 -125 -31 -44 -10 -82 -20 -85 -24 -3 -3 -43
-13 -90 -22 -108 -21 -141 -28 -160 -35 -8 -4 -33 -8 -55 -9 -22 -2 -49 -8
-60 -13 -17 -8 -102 -28 -205 -47 -70 -13 -126 -28 -137 -36 -7 -6 -19 -8 -27
-5 -8 3 -17 -1 -20 -9 -3 -8 -15 -14 -26 -14 l-20 0 0 -1675 0 -1675 665 0
665 0 0 35 c0 19 4 35 9 35 14 0 23 -18 12 -24 -5 -3 -7 -15 -4 -26 5 -20 14
-20 3744 -20 l3738 0 3 72 3 73 60 13 c102 22 99 14 115 317 14 267 17 285 43
285 12 0 60 16 107 35 47 20 117 46 156 59 39 14 93 34 120 47 27 12 63 25 79
30 42 10 185 63 213 78 12 7 48 20 80 31 31 10 91 32 132 50 41 17 89 36 105
42 17 6 37 16 45 23 8 7 32 18 52 24 21 7 40 17 44 22 3 6 17 14 30 19 l24 10
0 2289 c0 1259 -4 2292 -8 2295 -4 2 -14 1 -22 -4z m-2100 -685 c0 -8 -4 -15
-9 -15 -13 0 -22 16 -14 24 11 11 23 6 23 -9z m-522 -187 c19 -19 14 -28 -18
-28 -32 0 -33 1 -24 24 7 19 25 21 42 4z m-326 -44 c-5 -27 -86 -114 -106
-114 -6 0 -27 -13 -46 -28 -58 -47 -204 -126 -222 -120 -5 2 16 17 48 33 104
51 223 135 276 196 29 32 53 59 54 59 1 0 -1 -12 -4 -26z m213 -24 c3 -5 1
-10 -4 -10 -6 0 -11 5 -11 10 0 6 2 10 4 10 3 0 8 -4 11 -10z m-48 -136 c-3
-3 -12 -4 -19 -1 -8 3 -5 6 6 6 11 1 17 -2 13 -5z m-607 -114 c-8 -5 -22 -9
-30 -9 -10 0 -8 3 5 9 27 12 43 12 25 0z m-4552 -907 c-22 -6 -23 -17 -2 -37
8 -9 11 -16 5 -17 -49 -5 -66 -2 -66 12 0 8 8 13 18 11 11 -2 17 4 17 18 0 14
6 20 23 19 16 -1 18 -2 5 -6z m452 -23 c0 -5 -5 -10 -11 -10 -5 0 -7 5 -4 10
3 6 8 10 11 10 2 0 4 -4 4 -10z m445 1 c3 -5 1 -12 -5 -16 -5 -3 -10 1 -10 9
0 18 6 21 15 7z m-850 -81 c3 -5 2 -10 -4 -10 -5 0 -13 5 -16 10 -3 6 -2 10 4
10 5 0 13 -4 16 -10z m-366 -2169 c11 -11 25 -39 31 -63 6 -24 15 -56 20 -72
6 -15 8 -31 6 -35 -4 -6 4 -42 33 -158 5 -17 18 -47 29 -65 11 -18 25 -51 32
-73 7 -22 16 -44 20 -50 12 -16 48 -135 60 -200 7 -33 16 -68 21 -77 7 -13 4
-20 -12 -29 -25 -13 -25 -13 -36 30 -10 39 -45 56 -96 46 -22 -4 -29 0 -37 20
-5 13 -18 29 -30 35 -11 6 -20 19 -20 29 0 26 -97 119 -150 144 -31 15 -50 33
-62 58 -9 20 -28 43 -42 53 -42 27 -99 121 -92 149 4 17 0 30 -13 41 -11 10
-22 28 -25 42 -5 17 -13 24 -29 24 -64 0 -75 64 -13 75 18 4 45 17 59 31 16
15 41 25 69 28 60 6 160 24 166 31 3 3 25 5 49 5 29 0 49 -6 62 -19z m-483
-177 c-4 -14 -2 -32 4 -39 15 -19 1 -47 -23 -43 -36 5 -42 31 -16 71 28 43 44
48 35 11z m108 -179 c9 -14 12 -25 6 -25 -18 0 -60 32 -54 41 10 16 32 9 48
-16z m801 -245 c-27 -12 -43 -12 -25 0 8 5 22 9 30 9 10 0 8 -3 -5 -9z m13
-58 c6 -18 -15 -14 -22 4 -4 10 -1 14 6 12 6 -2 14 -10 16 -16z m-162 -219
c11 -41 9 -82 -4 -95 -18 -18 -37 5 -24 29 8 14 6 23 -9 39 -23 24 -16 54 12
54 12 0 21 -10 25 -27z m484 -129 c0 -14 -4 -23 -10 -19 -5 3 -10 15 -10 26 0
10 5 19 10 19 6 0 10 -12 10 -26z m1770 -34 c0 -5 -5 -10 -11 -10 -5 0 -7 5
-4 10 3 6 8 10 11 10 2 0 4 -4 4 -10z m-2117 -90 c-3 -12 -8 -19 -11 -16 -5 6
5 36 12 36 2 0 2 -9 -1 -20z m224 -102 c-3 -8 -6 -5 -6 6 -1 11 2 17 5 13 3
-3 4 -12 1 -19z m-47 -138 c0 -5 -5 -10 -11 -10 -5 0 -7 5 -4 10 3 6 8 10 11
10 2 0 4 -4 4 -10z"/>
<path d="M4825 5549 c-44 -4 -129 -15 -190 -24 -60 -9 -139 -20 -175 -25 -36
-5 -90 -16 -120 -25 -30 -9 -73 -20 -95 -24 -22 -4 -57 -15 -79 -24 -21 -10
-48 -17 -60 -17 -30 0 -117 -34 -210 -83 -105 -54 -181 -126 -206 -194 -24
-63 -19 -69 10 -13 38 74 122 149 232 206 83 43 320 117 443 139 44 8 130 23
190 34 61 11 160 25 220 32 61 7 117 16 125 20 8 5 11 8 5 7 -5 0 -46 -4 -90
-9z"/>
<path d="M4973 5553 c9 -2 23 -2 30 0 6 3 -1 5 -18 5 -16 0 -22 -2 -12 -5z"/>
<path d="M6775 5350 c58 -27 120 -40 100 -21 -12 11 -129 51 -147 50 -7 0 14
-13 47 -29z"/>
<path d="M6945 5282 c126 -70 227 -161 257 -231 5 -13 7 -13 7 3 2 53 -110
161 -230 221 -82 42 -105 46 -34 7z"/>
<path d="M8225 5220 c3 -5 8 -10 11 -10 2 0 4 5 4 10 0 6 -5 10 -11 10 -5 0
-7 -4 -4 -10z"/>
<path d="M7910 5005 c-10 -12 -10 -15 1 -16 8 0 5 -4 -6 -9 -13 -6 -15 -9 -5
-9 21 -1 48 22 43 37 -6 16 -18 15 -33 -3z"/>
<path d="M3675 4861 c-3 -5 -1 -12 5 -16 5 -3 10 1 10 9 0 18 -6 21 -15 7z"/>
<path d="M3727 4802 c15 -13 48 -34 73 -48 25 -14 68 -39 95 -55 28 -16 58
-27 68 -25 9 2 15 0 11 -5 -3 -5 3 -9 13 -9 11 0 23 -4 28 -9 11 -10 130 -51
223 -77 50 -13 62 -21 63 -38 1 -17 2 -17 6 -3 5 20 30 22 84 5 28 -8 39 -17
40 -32 1 -17 2 -18 6 -3 4 17 53 25 53 9 0 -4 16 -6 35 -4 19 2 43 1 52 -4 22
-9 196 -34 202 -28 10 9 -10 13 -124 29 -247 33 -656 139 -640 165 7 11 -43
30 -62 23 -11 -4 -14 -3 -9 5 5 8 -3 14 -23 18 -17 4 -31 9 -31 13 0 4 -34 24
-75 45 -41 21 -75 42 -75 47 0 4 -9 7 -21 6 -19 -1 -19 -3 8 -25z"/>
<path d="M7505 4820 c3 -5 8 -10 11 -10 2 0 4 5 4 10 0 6 -5 10 -11 10 -5 0
-7 -4 -4 -10z"/>
<path d="M3794 4555 c19 -46 35 -72 36 -60 0 6 5 3 10 -5 6 -9 10 -10 10 -3 0
6 -4 15 -10 18 -5 3 -10 16 -10 28 -1 25 -22 57 -39 57 -8 0 -7 -10 3 -35z"/>
<path d="M3880 4490 c0 -5 5 -10 10 -10 6 0 10 -5 10 -11 0 -12 29 -38 43 -39
4 0 7 5 7 10 0 6 -7 10 -17 10 -9 0 -13 3 -10 7 8 7 -21 43 -35 43 -4 0 -8 -4
-8 -10z"/>
<path d="M4800 4473 c8 -3 17 -9 20 -13 3 -4 11 -2 18 6 11 12 8 14 -20 13
-18 0 -26 -3 -18 -6z"/>
<path d="M3821 4430 c5 -23 13 -48 18 -58 9 -17 26 -56 55 -126 15 -37 17 -38
34 -22 21 18 32 12 32 -16 0 -10 7 -18 15 -18 9 0 15 -9 15 -22 0 -19 2 -20
10 -8 15 23 63 -30 63 -69 0 -24 7 -34 28 -43 15 -7 25 -16 23 -20 -4 -7 26
-13 48 -9 4 0 5 -6 1 -15 -5 -12 4 -14 54 -11 71 5 103 23 103 57 0 18 3 21 9
11 10 -16 15 -3 26 64 10 66 25 77 18 13 -6 -64 2 -102 17 -78 7 11 9 10 7 -7
0 -12 -5 -19 -9 -17 -4 3 -8 -2 -8 -10 0 -9 4 -16 8 -16 5 0 14 -10 19 -22 8
-17 9 9 6 92 -2 63 -6 120 -8 127 -2 6 -19 14 -37 18 -42 8 -169 51 -225 76
-24 10 -47 19 -53 19 -15 0 -159 70 -165 81 -4 5 -13 9 -21 9 -9 0 -27 14 -41
30 -37 44 -53 40 -42 -10z m484 -210 c8 -13 -5 -13 -25 0 -13 8 -13 10 2 10 9
0 20 -4 23 -10z m0 -80 c-5 -8 -11 -8 -17 -2 -6 6 -7 16 -3 22 5 8 11 8 17 2
6 -6 7 -16 3 -22z m22 -25 c-4 -8 -12 -15 -19 -14 -10 0 -10 2 0 6 6 2 12 12
12 21 0 8 3 13 6 9 4 -3 4 -13 1 -22z"/>
<path d="M5668 4443 c7 -3 16 -2 19 1 4 3 -2 6 -13 5 -11 0 -14 -3 -6 -6z"/>
<path d="M5270 4420 c0 -5 5 -10 10 -10 6 0 10 5 10 10 0 6 -4 10 -10 10 -5 0
-10 -4 -10 -10z"/>
<path d="M5350 4420 c0 -5 5 -10 10 -10 6 0 10 5 10 10 0 6 -4 10 -10 10 -5 0
-10 -4 -10 -10z"/>
<path d="M4045 4400 c22 -11 33 -20 25 -20 -11 0 -8 -7 9 -21 17 -14 32 -18
53 -14 19 5 33 1 44 -9 17 -18 64 -22 64 -6 0 6 -11 10 -25 10 -14 0 -25 4
-25 9 0 5 -15 14 -32 21 -18 7 -51 21 -74 31 -55 26 -92 24 -39 -1z"/>
<path d="M4270 4324 c0 -16 82 -56 93 -45 4 4 3 19 -2 33 -8 22 -15 25 -50 24
-24 0 -41 -6 -41 -12z"/>
<path d="M3761 4154 c0 -11 3 -14 6 -6 3 7 2 16 -1 19 -3 4 -6 -2 -5 -13z"/>
<path d="M3764 4122 c3 -6 1 -32 -5 -57 -9 -37 -9 -49 1 -58 10 -10 12 -7 7
11 -3 12 -2 20 3 17 4 -3 13 2 20 10 10 12 10 21 0 45 -7 17 -17 33 -23 37 -6
3 -7 1 -3 -5z m26 -57 c0 -8 -4 -15 -10 -15 -5 0 -10 7 -10 15 0 8 5 15 10 15
6 0 10 -7 10 -15z"/>
<path d="M3879 3927 c5 -12 30 -64 55 -114 25 -50 46 -98 46 -107 0 -9 4 -16
9 -16 5 0 12 -11 15 -25 10 -40 29 -19 21 24 -9 50 -30 93 -89 184 -49 75 -74
99 -57 54z"/>
<path d="M2528 3873 c6 -2 18 -2 25 0 6 3 1 5 -13 5 -14 0 -19 -2 -12 -5z"/>
<path d="M3420 3865 c0 -8 5 -15 10 -15 6 0 10 7 10 15 0 8 -4 15 -10 15 -5 0
-10 -7 -10 -15z"/>
<path d="M3350 3806 c0 -31 6 -34 13 -6 3 11 1 23 -4 26 -5 3 -9 -6 -9 -20z"/>
<path d="M3200 3790 c0 -5 6 -10 14 -10 8 0 18 5 21 10 3 6 -3 10 -14 10 -12
0 -21 -4 -21 -10z"/>
<path d="M2360 3774 c0 -14 3 -14 15 -4 8 7 15 14 15 16 0 2 -7 4 -15 4 -8 0
-15 -7 -15 -16z"/>
<path d="M2315 3650 c-3 -5 -2 -10 4 -10 5 0 13 5 16 10 3 6 2 10 -4 10 -5 0
-13 -4 -16 -10z"/>
<path d="M4313 3623 c-27 -5 -29 -25 -6 -64 19 -32 33 -38 33 -14 0 8 -4 15
-10 15 -23 0 -7 18 21 24 22 4 30 11 27 23 -3 19 -26 24 -65 16z"/>
<path d="M4635 3480 c-3 -5 -1 -10 4 -10 6 0 11 5 11 10 0 6 -2 10 -4 10 -3 0
-8 -4 -11 -10z"/>
<path d="M4480 3455 c0 -8 5 -15 10 -15 6 0 10 7 10 15 0 8 -4 15 -10 15 -5 0
-10 -7 -10 -15z"/>
<path d="M4654 3458 c-9 -14 23 -38 49 -38 18 0 17 2 -4 25 -27 28 -35 30 -45
13z"/>
<path d="M4505 3411 c-7 -23 -25 -29 -25 -8 0 8 -4 7 -10 -3 -7 -11 -4 -20 13
-32 l22 -18 -23 -18 -24 -18 26 -17 c31 -21 50 -21 66 -2 9 11 9 15 1 15 -7 0
-9 5 -6 10 3 6 12 10 19 10 14 0 16 -75 3 -97 -5 -8 9 -11 48 -11 46 1 57 4
70 24 18 27 19 34 5 34 -5 0 -10 -7 -10 -15 0 -8 -4 -15 -8 -15 -19 0 -20 14
-6 42 27 53 4 118 -43 118 -20 0 -23 -4 -18 -20 4 -11 2 -20 -4 -20 -6 0 -11
5 -11 10 0 6 -7 10 -15 10 -8 0 -15 -5 -15 -12 0 -6 -3 -8 -7 -4 -4 4 -8 17
-8 29 0 29 -31 35 -40 8z m159 -36 c3 -9 -1 -18 -9 -21 -8 -4 -15 -16 -15 -28
0 -17 -2 -18 -10 -6 -6 9 -6 18 0 24 6 6 10 18 10 28 0 22 16 24 24 3z m-34
-85 c8 12 10 11 10 -7 0 -12 2 -28 5 -36 4 -10 -2 -14 -25 -14 -26 0 -30 4
-30 27 0 32 10 45 22 28 6 -10 10 -10 18 2z"/>
<path d="M4706 3404 c6 -2 10 -17 9 -32 -2 -19 -1 -20 2 -4 2 12 9 22 14 22 6
0 7 5 4 10 -3 6 -14 10 -23 9 -9 0 -12 -3 -6 -5z"/>
<path d="M4465 3260 c-3 -5 -1 -10 4 -10 6 0 11 5 11 10 0 6 -2 10 -4 10 -3 0
-8 -4 -11 -10z"/>
<path d="M4503 3233 c-18 -7 3 -44 21 -37 7 3 17 -3 21 -13 7 -17 8 -17 15 2
5 14 1 24 -16 37 -12 10 -24 18 -26 17 -1 0 -9 -3 -15 -6z"/>
<path d="M4605 3170 c-18 -8 -17 -9 8 -9 15 -1 27 4 27 9 0 12 -8 12 -35 0z"/>
<path d="M4523 2883 c9 -2 23 -2 30 0 6 3 -1 5 -18 5 -16 0 -22 -2 -12 -5z"/>
<path d="M6651 2533 c-1 -6 -4 -20 -7 -30 -5 -17 -5 -17 6 0 6 10 9 23 6 30
-3 9 -5 9 -5 0z"/>
<path d="M6626 2465 c-3 -8 -1 -15 4 -15 6 0 10 7 10 15 0 8 -2 15 -4 15 -2 0
-6 -7 -10 -15z"/>
<path d="M6597 2385 c-20 -66 -22 -103 -3 -59 14 31 31 114 24 114 -2 0 -12
-25 -21 -55z"/>
<path d="M4745 2280 c-3 -5 1 -10 10 -10 9 0 13 5 10 10 -3 6 -8 10 -10 10 -2
0 -7 -4 -10 -10z"/>
<path d="M6546 2193 c2 -3 -6 -14 -16 -26 -11 -11 -22 -37 -26 -56 -3 -20 -12
-53 -20 -74 -8 -20 -17 -69 -20 -108 -7 -65 -6 -71 11 -68 10 2 19 13 21 24 5
44 26 152 36 185 5 20 11 49 11 65 1 17 6 33 12 37 6 5 6 10 -1 16 -6 5 -10 7
-8 5z"/>
<path d="M4625 2180 c3 -5 8 -10 11 -10 2 0 4 5 4 10 0 6 -5 10 -11 10 -5 0
-7 -4 -4 -10z"/>
<path d="M6521 1877 c-6 -8 -17 -32 -25 -53 -8 -21 -15 -31 -15 -21 -1 10 -6
15 -11 12 -6 -4 -17 -1 -25 5 -13 10 -15 8 -13 -11 1 -13 -8 -41 -20 -61 l-21
-38 46 7 c41 5 46 4 40 -11 -4 -10 -7 -20 -7 -22 0 -2 -17 -4 -37 -4 -20 0
-44 -6 -52 -13 -9 -8 -38 -20 -66 -26 -76 -19 -109 -33 -125 -51 -8 -9 -41
-25 -72 -34 -32 -10 -58 -20 -58 -22 0 -2 44 -3 98 -3 53 0 112 -5 131 -10 19
-6 45 -8 58 -5 12 4 30 3 39 0 15 -6 15 -8 -1 -26 -10 -11 -25 -20 -32 -20 -8
0 -44 -13 -80 -30 -35 -16 -69 -30 -74 -30 -6 0 -19 -5 -30 -10 -18 -10 -18
-13 -4 -40 9 -17 19 -30 23 -30 4 0 18 -16 31 -35 13 -19 32 -37 43 -41 11 -3
17 -12 14 -20 -3 -7 1 -20 9 -28 8 -8 15 -19 15 -25 0 -6 5 -11 10 -11 6 0 15
-11 22 -24 6 -14 17 -28 26 -31 12 -4 12 -3 3 9 -6 7 -14 31 -16 51 -3 23 -15
47 -31 62 -14 12 -22 27 -19 33 6 9 -11 50 -25 60 -18 12 -41 73 -32 82 6 6
12 6 16 -1 11 -17 36 -13 30 4 -4 8 -3 15 0 15 12 0 46 -35 46 -48 0 -16 28
-60 56 -89 20 -19 23 -20 37 -5 15 14 17 14 23 -1 3 -9 10 -14 15 -11 5 3 5
13 -1 25 -14 25 -2 24 27 -3 17 -16 26 -19 35 -10 8 8 17 6 36 -8 32 -26 39
-25 44 3 4 20 1 23 -16 20 -18 -4 -23 3 -33 40 -7 25 -18 51 -26 58 -20 21
-51 70 -53 86 -4 24 -25 43 -49 43 -21 0 -35 17 -35 41 0 15 18 10 38 -11 17
-19 19 -19 41 -2 22 16 42 35 76 73 43 47 57 145 29 205 -22 45 -38 58 -53 41z
m-61 -227 c0 -5 -5 -10 -11 -10 -5 0 -7 5 -4 10 3 6 8 10 11 10 2 0 4 -4 4
-10z m-103 -212 c-3 -8 -6 -5 -6 6 -1 11 2 17 5 13 3 -3 4 -12 1 -19z m73 -33
c7 -9 8 -15 2 -15 -5 0 -12 7 -16 15 -3 8 -4 15 -2 15 2 0 9 -7 16 -15z"/>
<path d="M4223 1834 c-10 -26 5 -110 27 -153 22 -43 37 -51 47 -25 5 13 9 12
29 -7 32 -30 47 -16 40 36 -5 33 -19 56 -63 104 -59 64 -70 71 -80 45z"/>
<path d="M2455 1820 c3 -5 8 -10 11 -10 2 0 4 5 4 10 0 6 -5 10 -11 10 -5 0
-7 -4 -4 -10z"/>
<path d="M2500 1742 c0 -22 13 -42 27 -42 21 0 12 44 -9 48 -10 2 -18 -1 -18
-6z"/>
<path d="M4384 1736 c-8 -22 4 -36 32 -36 30 0 30 10 -1 33 -22 16 -26 16 -31
3z"/>
<path d="M4535 1710 c3 -5 11 -10 16 -10 6 0 7 5 4 10 -3 6 -11 10 -16 10 -6
0 -7 -4 -4 -10z"/>
<path d="M6250 1709 c0 -7 -10 -9 -25 -7 -13 3 -22 1 -19 -3 3 -5 -4 -9 -15
-9 -12 0 -21 -4 -21 -10 0 -5 -3 -9 -7 -8 -9 1 -22 -3 -96 -33 -26 -11 -52
-17 -57 -14 -6 3 -10 0 -11 -7 0 -7 -4 -3 -10 10 -7 19 -11 21 -23 10 -7 -7
-11 -19 -9 -25 3 -7 -2 -13 -10 -13 -8 0 -17 -5 -19 -10 -2 -6 -22 -13 -45
-15 -23 -2 -51 -9 -62 -15 -24 -12 -178 -16 -291 -7 -41 4 -88 6 -105 5 -16
-1 -43 -1 -60 0 -16 1 -51 1 -77 2 -28 0 -53 6 -62 16 -12 11 -20 12 -35 5
-26 -14 -169 -6 -235 13 -36 11 -56 23 -64 38 -6 13 -11 17 -11 10 -2 -27 -41
12 -41 40 0 31 -11 35 -34 13 -17 -17 -140 -21 -194 -6 -33 10 -33 10 -30 -21
3 -26 10 -33 53 -49 28 -11 95 -31 150 -45 55 -14 131 -36 170 -50 38 -14 78
-23 89 -20 11 3 81 -2 156 -10 179 -20 283 -19 490 6 94 11 182 17 195 14 15
-4 64 11 141 42 134 53 194 87 201 114 3 10 14 22 26 27 14 7 17 12 9 17 -7 4
-12 2 -12 -5z"/>
<path d="M2552 1660 c1 -13 9 -25 16 -28 17 -5 15 23 -4 39 -14 11 -15 10 -12
-11z"/>
<path d="M6580 1637 c-14 -29 -7 -48 11 -30 6 6 9 21 7 34 l-4 24 -14 -28z"/>
<path d="M4401 1631 c-10 -6 -12 -19 -7 -46 7 -36 8 -37 28 -18 25 23 112 20
213 -8 77 -21 105 -24 105 -9 0 9 -33 17 -99 24 -31 3 -54 21 -63 48 -5 13
-159 21 -177 9z"/>
<path d="M6680 1527 c0 -8 11 -19 25 -25 29 -14 33 -2 7 21 -22 20 -32 21 -32
4z"/>
<path d="M6480 1522 c0 -5 9 -17 20 -27 11 -10 20 -24 20 -32 0 -7 10 -30 23
-51 13 -20 26 -45 30 -54 3 -10 11 -18 17 -18 13 0 13 23 -1 37 -8 8 -8 13 0
17 17 11 13 36 -6 43 -19 8 -53 40 -53 51 0 8 -37 42 -45 42 -3 0 -5 -4 -5 -8z"/>
<path d="M5830 1479 c-43 -6 -42 -9 7 -14 21 -2 52 10 43 17 -3 2 -25 1 -50
-3z"/>
<path d="M4490 1425 c0 -8 5 -15 10 -15 6 0 10 7 10 15 0 8 -4 15 -10 15 -5 0
-10 -7 -10 -15z"/>
<path d="M8158 1404 c12 -8 20 -20 17 -25 -7 -10 22 -25 32 -16 7 7 -46 57
-61 57 -6 0 0 -7 12 -16z"/>
<path d="M4630 1370 c0 -16 5 -30 10 -30 6 0 10 -6 10 -14 0 -7 7 -19 15 -26
12 -10 15 -10 15 2 0 16 -38 98 -45 98 -3 0 -5 -13 -5 -30z"/>
<path d="M5005 1390 c-3 -5 -1 -10 4 -10 6 0 11 5 11 10 0 6 -2 10 -4 10 -3 0
-8 -4 -11 -10z"/>
<path d="M5378 1388 c-16 -5 -28 -17 -28 -25 0 -12 8 -14 43 -9 23 3 66 8 94
12 65 8 60 26 -5 21 -26 -3 -54 -1 -62 3 -8 4 -27 3 -42 -2z"/>
<path d="M6277 1365 c4 -16 12 -36 20 -43 7 -7 13 -19 13 -26 0 -7 12 -28 26
-47 l25 -34 -7 30 c-4 17 -15 46 -26 65 -10 19 -18 40 -18 47 0 7 -6 13 -14
13 -8 0 -17 6 -20 13 -3 6 -2 -1 1 -18z"/>
<path d="M5310 1360 c0 -5 5 -10 11 -10 5 0 7 5 4 10 -3 6 -8 10 -11 10 -2 0
-4 -4 -4 -10z"/>
<path d="M6075 1360 c3 -5 8 -10 11 -10 2 0 4 5 4 10 0 6 -5 10 -11 10 -5 0
-7 -4 -4 -10z"/>
<path d="M4790 1330 c0 -11 5 -20 10 -20 6 0 10 -8 10 -18 0 -19 18 -42 32
-42 5 0 -3 23 -17 50 -28 54 -35 61 -35 30z"/>
<path d="M5970 1340 c0 -5 4 -10 8 -10 5 0 17 -18 27 -40 19 -42 32 -50 41
-25 8 21 -36 85 -58 85 -10 0 -18 -4 -18 -10z"/>
<path d="M4940 1320 c0 -6 7 -10 15 -10 8 0 15 -6 15 -13 0 -7 7 -22 16 -33
15 -18 15 -18 10 8 -4 16 -1 28 7 31 17 6 7 13 -30 20 -19 4 -33 2 -33 -3z"/>
<path d="M5843 1324 c-18 -8 18 -73 40 -74 22 0 22 9 0 40 -10 14 -16 27 -15
30 5 7 -11 9 -25 4z"/>
<path d="M6100 1314 c0 -12 7 -27 15 -34 19 -16 19 -10 0 26 -13 25 -15 26
-15 8z"/>
<path d="M6840 1316 c0 -19 19 -31 31 -19 5 5 0 14 -11 21 -17 10 -20 10 -20
-2z"/>
<path d="M5667 1303 c-13 -13 -6 -23 41 -55 47 -32 47 -32 30 -6 -10 15 -18
34 -18 42 0 20 -39 34 -53 19z"/>
<path d="M5270 1290 c0 -5 7 -10 15 -10 8 0 15 5 15 10 0 6 -7 10 -15 10 -8 0
-15 -4 -15 -10z"/>
<path d="M5378 1293 c-22 -6 -12 -33 12 -33 10 0 26 -7 35 -16 21 -21 30 -12
15 15 -8 16 -8 21 1 21 7 0 9 3 5 7 -8 9 -45 12 -68 6z"/>
<path d="M5460 1290 c0 -5 5 -10 10 -10 6 0 10 5 10 10 0 6 -4 10 -10 10 -5 0
-10 -4 -10 -10z"/>
<path d="M5502 1288 c2 -6 15 -18 29 -27 23 -15 23 -15 10 2 -7 9 -11 18 -7
18 3 1 10 2 15 3 29 4 19 16 -13 16 -24 0 -36 -4 -34 -12z"/>
<path d="M5935 1280 c3 -5 8 -10 11 -10 2 0 4 5 4 10 0 6 -5 10 -11 10 -5 0
-7 -4 -4 -10z"/>
<path d="M6525 1260 c3 -5 8 -10 11 -10 2 0 4 5 4 10 0 6 -5 10 -11 10 -5 0
-7 -4 -4 -10z"/>
<path d="M5085 1250 c4 -6 11 -8 16 -5 14 9 11 15 -7 15 -8 0 -12 -5 -9 -10z"/>
<path d="M6890 1246 c0 -9 7 -19 15 -23 23 -8 25 0 4 21 -17 18 -19 18 -19 2z"/>
<path d="M4710 1229 c0 -10 24 -39 33 -39 3 0 0 11 -6 25 -12 25 -27 33 -27
14z"/>
<path d="M5200 1231 c0 -6 5 -13 10 -16 6 -3 10 1 10 9 0 9 -4 16 -10 16 -5 0
-10 -4 -10 -9z"/>
<path d="M5110 1210 c0 -5 5 -10 11 -10 5 0 7 5 4 10 -3 6 -8 10 -11 10 -2 0
-4 -4 -4 -10z"/>
<path d="M6650 1183 c11 -24 25 -43 30 -43 17 0 11 15 -20 50 l-31 35 21 -42z"/>
<path d="M5355 1160 c12 -41 27 -60 20 -25 -4 17 -11 35 -17 40 -7 7 -8 2 -3
-15z"/>
<path d="M5480 1171 c0 -5 7 -15 17 -22 15 -13 15 -12 4 9 -12 23 -21 28 -21
13z"/>
<path d="M6950 1171 c0 -5 5 -13 10 -16 6 -3 10 -2 10 4 0 5 -4 13 -10 16 -5
3 -10 2 -10 -4z"/>
<path d="M5572 1151 c-11 -7 -10 -10 3 -15 27 -10 42 -7 49 9 6 17 -29 21 -52
6z"/>
<path d="M5250 1134 c0 -6 9 -21 20 -34 11 -13 20 -18 20 -13 0 15 -39 61 -40
47z"/>
<path d="M7999 1103 c5 -10 22 -29 37 -43 26 -23 25 -22 -5 18 -34 43 -49 55
-32 25z"/>
<path d="M6150 1087 c0 -8 6 -20 14 -26 12 -10 13 -8 9 9 -7 25 -23 37 -23 17z"/>
<path d="M7975 1090 c3 -5 8 -10 11 -10 2 0 4 5 4 10 0 6 -5 10 -11 10 -5 0
-7 -4 -4 -10z"/>
<path d="M7640 1074 c0 -5 14 -23 30 -39 39 -37 39 -28 0 16 -16 19 -30 29
-30 23z"/>
<path d="M5200 1046 c0 -2 7 -9 15 -16 9 -7 15 -8 15 -2 0 5 -7 12 -15 16 -8
3 -15 4 -15 2z"/>
<path d="M7067 1010 c9 -16 21 -30 26 -30 5 0 -1 14 -13 30 -12 17 -24 30 -26
30 -3 0 3 -13 13 -30z"/>
<path d="M4990 991 c0 -6 4 -13 10 -16 6 -3 7 1 4 9 -7 18 -14 21 -14 7z"/>
<path d="M4181 980 c0 -8 11 -28 25 -45 l26 -30 -16 30 c-8 17 -20 37 -25 45
-10 13 -11 13 -10 0z"/>
<path d="M7716 982 c-2 -4 5 -23 16 -41 15 -23 23 -29 29 -20 4 8 -1 24 -12
41 -22 30 -25 32 -33 20z"/>
<path d="M2528 953 c7 -3 16 -2 19 1 4 3 -2 6 -13 5 -11 0 -14 -3 -6 -6z"/>
<path d="M5390 900 c6 -11 15 -20 20 -20 6 0 2 9 -7 20 -10 11 -19 20 -21 20
-1 0 2 -9 8 -20z"/>
<path d="M5665 896 c10 -14 19 -26 22 -26 7 0 -17 39 -28 46 -6 3 -3 -5 6 -20z"/>
<path d="M7801 880 c36 -45 45 -51 28 -17 -15 29 -40 57 -51 57 -5 0 6 -18 23
-40z"/>
<path d="M7485 890 c21 -24 26 -25 19 -6 -3 8 -13 17 -22 21 -13 5 -13 2 3
-15z"/>
<path d="M2910 870 c0 -5 5 -10 10 -10 6 0 10 5 10 10 0 6 -4 10 -10 10 -5 0
-10 -4 -10 -10z"/>
<path d="M5424 851 c0 -11 8 -22 18 -24 16 -5 16 -3 1 19 -19 29 -19 29 -19 5z"/>
<path d="M5530 850 c6 -11 13 -20 16 -20 2 0 0 9 -6 20 -6 11 -13 20 -16 20
-2 0 0 -9 6 -20z"/>
<path d="M4925 830 c3 -5 8 -10 11 -10 2 0 4 5 4 10 0 6 -5 10 -11 10 -5 0 -7
-4 -4 -10z"/>
<path d="M2968 712 c-36 -21 -36 -36 -1 -27 34 8 36 10 31 29 -3 13 -6 13 -30
-2z"/>
<path d="M5659 692 c6 -12 16 -24 22 -28 8 -4 8 -1 0 14 -6 12 -16 24 -22 28
-8 4 -8 1 0 -14z"/>
<path d="M2980 669 c0 -5 5 -7 10 -4 6 3 10 8 10 11 0 2 -4 4 -10 4 -5 0 -10
-5 -10 -11z"/>
<path d="M2768 353 c-13 -3 -16 -13 -13 -45 2 -22 5 -42 7 -44 9 -9 26 15 33
45 5 26 4 32 -6 26 -9 -6 -11 -3 -6 8 3 10 5 16 4 16 -1 -1 -10 -3 -19 -6z"/>
</g>
</svg>
