<?xml version="1.0" standalone="no"?>
<!DOCTYPE svg PUBLIC "-//W3C//DTD SVG 20010904//EN"
 "http://www.w3.org/TR/2001/REC-SVG-20010904/DTD/svg10.dtd">
<svg version="1.0" xmlns="http://www.w3.org/2000/svg"
 width="1200.000000pt" height="801.000000pt" viewBox="0 0 1200.000000 801.000000"
 preserveAspectRatio="xMidYMid meet">

<g transform="translate(0.000000,801.000000) scale(0.100000,-0.100000)"
fill="#000000" stroke="none">
<path d="M7805 6470 c4 -6 11 -8 16 -5 14 9 11 15 -7 15 -8 0 -12 -5 -9 -10z"/>
<path d="M4386 6358 c-14 -99 8 -201 60 -283 30 -47 179 -195 196 -195 6 0
-18 30 -55 66 -45 44 -82 93 -112 149 -49 91 -64 143 -74 250 l-7 70 -8 -57z"/>
<path d="M7863 6215 c-9 -10 -9 -15 -1 -17 7 -3 8 -9 2 -19 -9 -14 -10 -19
-13 -40 0 -5 -6 -7 -13 -3 -6 4 -8 3 -5 -3 8 -12 -17 -78 -33 -88 -6 -4 -8
-11 -5 -16 4 -5 1 -9 -4 -9 -6 0 -11 -4 -11 -10 0 -5 -8 -18 -17 -28 -10 -10
-27 -31 -38 -46 -11 -16 -35 -43 -54 -60 -19 -17 -41 -38 -50 -47 -9 -8 -37
-32 -63 -53 -26 -21 -45 -43 -41 -49 4 -6 1 -7 -7 -2 -8 5 -17 2 -24 -7 -6 -8
-37 -30 -69 -47 -33 -19 -57 -40 -57 -49 0 -14 -2 -14 -9 -3 -12 19 -53 -3
-44 -25 5 -14 3 -14 -15 -3 -19 12 -23 10 -43 -15 -14 -18 -25 -24 -31 -18
-11 11 -130 -25 -136 -41 -2 -4 -8 -4 -13 -1 -6 3 -40 -3 -77 -14 -37 -11 -92
-25 -122 -32 -30 -7 -59 -15 -64 -18 -6 -3 -19 -7 -30 -8 -12 -1 -46 -6 -76
-13 -30 -6 -71 -13 -90 -16 -19 -3 -46 -7 -60 -10 -14 -3 -68 -7 -120 -10 -52
-3 -133 -8 -180 -11 -47 -3 -92 -5 -100 -5 -8 1 -35 3 -60 6 -56 4 -142 5
-243 2 -43 -2 -80 0 -82 4 -9 13 -53 -4 -58 -22 -4 -14 3 -24 24 -35 16 -8 34
-12 39 -9 5 3 20 3 34 -1 21 -5 23 -9 16 -28 -6 -18 -3 -27 13 -42 12 -10 31
-20 42 -21 98 -13 111 -17 127 -36 9 -12 19 -19 23 -16 5 5 11 43 14 92 1 4 5
7 11 7 5 0 7 -13 4 -28 -6 -27 12 -55 32 -51 19 3 33 -2 49 -18 11 -10 19 -12
23 -6 11 16 54 26 61 14 4 -5 27 -12 52 -14 52 -5 89 -22 90 -40 0 -7 4 -2 9
11 9 21 30 31 30 14 0 -12 74 -9 82 3 5 6 12 5 20 -3 6 -6 21 -12 33 -12 13 0
16 -3 8 -8 -18 -11 12 -52 38 -52 11 0 19 -7 19 -17 0 -23 29 -53 46 -46 8 3
14 0 14 -7 0 -6 -4 -9 -9 -6 -5 3 -18 -12 -30 -34 -12 -23 -16 -40 -10 -40 8
0 7 -5 -1 -15 -10 -12 -10 -15 1 -15 17 -1 -41 -50 -58 -50 -7 0 -13 -4 -13
-9 0 -5 -12 -13 -27 -19 -30 -12 -248 -34 -321 -33 -37 0 -42 -2 -32 -14 7 -8
20 -15 30 -15 15 0 16 -6 9 -47 -5 -26 -7 -53 -4 -60 2 -7 0 -13 -5 -13 -6 0
-10 -22 -10 -50 0 -27 5 -50 10 -50 6 0 8 -15 4 -39 -5 -30 -3 -39 10 -44 9
-4 16 -17 16 -31 0 -13 7 -26 15 -30 8 -3 15 -16 15 -30 0 -13 -7 -26 -15 -30
-21 -8 -19 -54 2 -58 14 -3 17 -13 14 -57 -2 -37 2 -56 11 -62 12 -7 19 -93
18 -211 0 -16 4 -28 10 -28 5 0 10 -6 10 -13 0 -7 10 -18 22 -26 20 -12 20
-14 4 -23 -15 -8 -17 -18 -11 -61 4 -29 11 -57 17 -64 5 -6 9 -34 10 -62 0
-28 4 -51 9 -51 5 0 9 16 9 35 0 19 4 35 10 35 6 0 7 -13 2 -32 -14 -63 1
-380 18 -403 5 -5 10 -36 12 -68 3 -50 0 -58 -17 -63 -11 -4 -21 -2 -23 5 -2
6 -8 9 -13 5 -12 -7 -12 -114 1 -114 6 0 10 11 10 25 0 14 5 25 11 25 6 0 10
-15 9 -32 -5 -88 0 -138 14 -138 8 0 17 12 19 28 4 24 4 23 6 -7 0 -22 -5 -38
-16 -47 -17 -12 -17 -13 0 -20 10 -3 29 -2 43 5 31 14 83 14 160 0 95 -16 89
-12 102 -97 24 -162 26 -200 9 -216 -8 -9 -17 -20 -19 -25 -2 -8 -75 -15 -113
-12 -15 1 -58 42 -83 78 -13 18 -37 74 -54 125 -46 140 -60 158 -72 93 -4 -19
-11 -35 -16 -35 -5 0 -12 -24 -15 -53 -7 -58 13 -175 39 -228 19 -37 21 -65 5
-75 -11 -6 -8 -39 8 -101 8 -31 56 -93 71 -93 5 0 14 -11 21 -24 31 -57 159
-76 244 -36 52 26 68 38 90 73 20 31 34 35 39 11 2 -12 15 -4 51 30 26 25 47
51 47 56 0 6 3 10 8 10 12 0 51 82 63 135 6 28 11 72 10 99 -1 27 3 63 9 80 6
19 7 51 1 84 -5 31 -4 55 1 58 5 3 8 16 6 27 -1 12 1 28 6 35 5 8 10 36 12 64
2 27 7 54 10 60 4 6 13 38 19 72 12 55 38 156 52 196 3 8 7 26 8 40 2 14 10
52 19 85 8 33 13 69 10 80 -4 16 -3 17 5 5 9 -13 11 -12 16 2 3 8 7 32 8 51 1
19 6 35 11 34 10 -2 36 86 36 123 0 20 -2 22 -10 10 -5 -8 -10 -12 -10 -9 0
10 56 243 105 439 59 234 137 619 131 643 -3 11 1 38 8 61 7 22 23 93 35 156
12 63 26 123 31 132 6 10 13 42 16 73 l7 56 -26 -6 c-24 -6 -26 -4 -29 32 -2
29 5 50 31 93 40 65 71 135 70 158 0 9 -8 -3 -16 -28 -17 -49 -124 -191 -131
-172 -2 6 8 26 21 44 24 32 47 79 97 198 27 66 36 152 14 143 -7 -3 -11 -10
-7 -16 4 -6 0 -8 -10 -4 -10 3 -17 2 -17 -3 0 -6 -5 -10 -12 -10 -6 0 -20 -7
-30 -17 -10 -9 -21 -13 -26 -9 -4 4 2 14 13 22 75 55 144 119 195 182 95 116
180 310 161 364 -5 13 -8 14 -18 3z m-2106 -851 c-3 -3 -12 -4 -19 -1 -8 3 -5
6 6 6 11 1 17 -2 13 -5z m1693 -73 c0 -6 -4 -13 -10 -16 -5 -3 -10 1 -10 9 0
9 5 16 10 16 6 0 10 -4 10 -9z m-1605 -11 c-3 -5 -11 -10 -16 -10 -6 0 -7 5
-4 10 3 6 11 10 16 10 6 0 7 -4 4 -10z m1675 -20 c0 -5 -4 -10 -10 -10 -5 0
-10 5 -10 10 0 6 5 10 10 10 6 0 10 -4 10 -10z m-1285 -680 c3 -5 1 -10 -4
-10 -6 0 -11 5 -11 10 0 6 2 10 4 10 3 0 8 -4 11 -10z m1012 -932 c-3 -8 -6
-5 -6 6 -1 11 2 17 5 13 3 -3 4 -12 1 -19z m-10 -70 c-3 -7 -5 -2 -5 12 0 14
2 19 5 13 2 -7 2 -19 0 -25z m-770 -170 c-3 -8 -6 -5 -6 6 -1 11 2 17 5 13 3
-3 4 -12 1 -19z m710 -10 c-3 -8 -6 -5 -6 6 -1 11 2 17 5 13 3 -3 4 -12 1 -19z
m-677 -207 c0 -6 -4 -13 -10 -16 -5 -3 -10 1 -10 9 0 9 5 16 10 16 6 0 10 -4
10 -9z m-115 -81 c3 -5 -1 -10 -10 -10 -9 0 -13 5 -10 10 3 6 8 10 10 10 2 0
7 -4 10 -10z m9 -361 c1 -8 8 -27 15 -44 36 -84 51 -124 62 -162 10 -35 19
-46 50 -60 21 -10 39 -24 39 -30 0 -18 -45 -16 -60 2 -7 8 -16 12 -21 9 -5 -3
-9 -2 -9 3 0 4 -16 26 -35 48 -20 22 -38 51 -41 65 -3 14 -9 32 -14 41 -12 24
-24 135 -15 149 8 13 25 1 29 -21z m480 -324 c-4 -8 -11 -15 -16 -15 -6 0 -5
6 2 15 7 8 14 15 16 15 2 0 1 -7 -2 -15z m-454 -15 c0 -5 -2 -10 -4 -10 -3 0
-8 5 -11 10 -3 6 -1 10 4 10 6 0 11 -4 11 -10z"/>
<path d="M10735 5060 c3 -5 11 -10 16 -10 6 0 7 5 4 10 -3 6 -11 10 -16 10 -6
0 -7 -4 -4 -10z"/>
<path d="M11100 5020 c0 -5 7 -10 15 -10 8 0 15 5 15 10 0 6 -7 10 -15 10 -8
0 -15 -4 -15 -10z"/>
<path d="M10890 4920 c-12 -8 -11 -10 8 -10 12 0 22 5 22 10 0 13 -11 13 -30
0z"/>
<path d="M9942 3477 c-6 -18 -27 -58 -46 -89 -33 -55 -33 -56 -9 -45 29 13 60
69 69 126 8 49 2 53 -14 8z"/>
<path d="M9759 3233 c-13 -16 -12 -17 4 -4 16 13 21 21 13 21 -2 0 -10 -8 -17
-17z"/>
<path d="M9699 3183 l-24 -28 28 24 c15 14 27 26 27 28 0 8 -8 1 -31 -24z"/>
<path d="M9625 3085 c-71 -52 -126 -95 -122 -95 8 0 175 117 223 158 71 59 29
33 -101 -63z"/>
<path d="M9523 3062 c-61 -42 -151 -102 -199 -132 -341 -213 -583 -382 -678
-474 -23 -23 -33 -34 -22 -25 23 18 250 180 422 300 60 42 161 109 224 149
204 129 394 262 370 260 -3 -1 -55 -36 -117 -78z"/>
<path d="M8874 2564 c-82 -48 -158 -109 -124 -100 14 4 35 9 48 11 23 3 162
104 162 117 0 16 -27 7 -86 -28z"/>
<path d="M6360 2455 c0 -14 5 -25 10 -25 6 0 10 11 10 25 0 14 -4 25 -10 25
-5 0 -10 -11 -10 -25z"/>
<path d="M11980 2336 c0 -14 5 -28 10 -31 6 -4 10 7 10 24 0 17 -4 31 -10 31
-5 0 -10 -11 -10 -24z"/>
<path d="M11360 2230 c-13 -9 -13 -10 0 -10 8 0 22 5 30 10 13 9 13 10 0 10
-8 0 -22 -5 -30 -10z"/>
<path d="M5063 2159 c3 -13 9 -42 13 -64 9 -51 36 -105 75 -150 41 -46 54 -44
29 5 -11 21 -20 49 -20 60 0 12 -18 52 -40 90 -44 75 -67 99 -57 59z"/>
<path d="M5428 2128 c5 -5 16 -8 23 -6 8 3 3 7 -10 11 -17 4 -21 3 -13 -5z"/>
<path d="M8186 2060 c-43 -35 -74 -52 -110 -60 -28 -6 -85 -29 -126 -52 -41
-23 -92 -50 -113 -61 -21 -11 -36 -22 -33 -24 2 -3 37 3 77 13 64 15 75 16 98
3 14 -8 27 -22 29 -30 3 -18 -73 -75 -125 -93 -42 -14 -137 -121 -129 -143 3
-7 -1 -13 -9 -13 -22 0 -19 13 20 70 31 46 34 55 22 69 -23 26 -27 62 -11 92
7 15 14 30 14 32 0 3 -80 3 -177 1 -180 -3 -251 -12 -304 -40 -24 -12 -28 -19
-24 -42 5 -26 5 -26 -6 -4 -15 27 -20 27 -49 4 l-23 -18 28 -22 c28 -22 58
-27 146 -22 46 2 46 1 68 -44 26 -56 26 -56 -1 -103 -27 -47 -35 -53 -73 -53
-17 0 -36 -5 -41 -10 -18 -18 -70 -28 -88 -18 -10 6 -52 11 -94 13 -92 3 -222
47 -230 77 -2 10 -8 18 -13 18 -6 0 -45 -35 -89 -78 -82 -81 -141 -180 -139
-232 1 -20 3 -17 11 13 6 20 13 37 18 37 4 0 37 -17 74 -37 62 -35 81 -56 54
-65 -18 -6 -18 -35 0 -51 48 -42 319 90 515 252 38 31 78 64 90 73 18 14 36
16 103 11 78 -5 82 -7 130 -50 101 -92 132 -100 221 -58 29 14 58 23 63 20 6
-4 28 8 50 25 l40 32 -6 131 c-6 119 -4 137 15 188 24 63 77 138 155 219 65
69 73 80 49 80 -10 0 -45 -23 -77 -50z m-660 -245 c7 -29 -10 -55 -35 -55 -39
0 -56 51 -23 69 30 18 51 12 58 -14z"/>
<path d="M6951 1924 c-2 -18 -136 -148 -195 -189 -31 -21 -53 -42 -50 -46 6
-11 54 19 54 34 0 6 3 7 6 4 23 -22 203 164 191 196 -3 7 -6 7 -6 1z"/>
<path d="M6650 1670 c-9 -6 -10 -10 -3 -10 6 0 15 5 18 10 8 12 4 12 -15 0z"/>
<path d="M815 1530 c4 -6 11 -8 16 -5 14 9 11 15 -7 15 -8 0 -12 -5 -9 -10z"/>
<path d="M7305 1530 c3 -5 10 -10 16 -10 5 0 9 5 9 10 0 6 -7 10 -16 10 -8 0
-12 -4 -9 -10z"/>
<path d="M580 1500 c-12 -8 -12 -10 -1 -10 8 0 20 -8 27 -17 7 -10 15 -15 18
-12 4 3 -1 16 -11 28 -13 15 -22 18 -33 11z"/>
<path d="M7970 1351 c-82 -26 -214 -110 -197 -127 3 -3 42 1 88 10 86 16 118
35 145 88 22 42 17 45 -36 29z"/>
<path d="M7989 1244 c-57 -59 -190 -155 -259 -186 -142 -65 -291 -103 -477
-123 -35 -4 -63 -11 -63 -15 0 -5 -15 -5 -32 0 -18 5 -68 14 -112 20 -43 7
-97 18 -119 26 -22 8 -43 12 -45 9 -12 -12 26 -35 83 -50 101 -26 200 -29 336
-10 l125 17 36 -36 c48 -48 74 -47 189 12 166 84 389 287 389 354 0 26 -12 22
-51 -18z"/>
<path d="M6783 1253 c9 -9 19 -14 23 -11 10 10 -6 28 -24 28 -15 0 -15 -1 1
-17z"/>
<path d="M6675 1160 c7 -47 52 -110 78 -110 11 0 41 -13 66 -29 43 -27 148
-50 135 -30 -3 5 -13 9 -22 10 -9 0 -37 9 -62 20 l-45 19 59 -5 c79 -6 178 5
173 19 -2 6 -17 12 -33 14 -102 9 -222 48 -286 93 -32 23 -38 24 -38 2 -1 -14
-4 -12 -16 7 l-15 25 6 -35z"/>
<path d="M7078 1048 c8 -8 20 -8 44 -1 l33 11 -44 1 c-34 1 -42 -2 -33 -11z"/>
<path d="M0 780 c0 -63 9 -75 29 -37 10 18 9 30 -4 60 -8 20 -17 37 -20 37 -3
0 -5 -27 -5 -60z"/>
<path d="M3015 679 c-11 -17 1 -21 15 -4 8 9 8 15 2 15 -6 0 -14 -5 -17 -11z"/>
<path d="M8305 570 c-3 -5 -1 -10 4 -10 6 0 11 5 11 10 0 6 -2 10 -4 10 -3 0
-8 -4 -11 -10z"/>
<path d="M8340 389 c0 -5 5 -7 10 -4 6 3 10 8 10 11 0 2 -4 4 -10 4 -5 0 -10
-5 -10 -11z"/>
<path d="M8230 349 c0 -5 5 -7 10 -4 6 3 10 8 10 11 0 2 -4 4 -10 4 -5 0 -10
-5 -10 -11z"/>
<path d="M7633 33 c-7 -2 -13 -11 -13 -19 0 -10 13 -14 45 -14 46 0 54 7 33
28 -12 12 -43 15 -65 5z"/>
</g>
</svg>
