<?xml version="1.0" standalone="no"?>
<!DOCTYPE svg PUBLIC "-//W3C//DTD SVG 20010904//EN"
 "http://www.w3.org/TR/2001/REC-SVG-20010904/DTD/svg10.dtd">
<svg version="1.0" xmlns="http://www.w3.org/2000/svg"
 width="960.000000pt" height="627.000000pt" viewBox="0 0 960.000000 627.000000"
 preserveAspectRatio="xMidYMid meet">

<g transform="translate(0.000000,627.000000) scale(0.100000,-0.100000)"
fill="#000000" stroke="none">
<path d="M0 5266 l0 -1003 22 1 c13 1 26 6 30 11 4 6 11 10 15 11 40 6 73 19
73 29 0 7 21 18 47 25 26 6 51 17 55 23 6 9 8 9 8 0 0 -7 5 -13 10 -13 6 0 10
6 10 13 0 8 12 14 28 15 46 3 66 7 87 19 11 6 37 14 58 18 20 4 35 11 32 15
-9 15 15 22 30 10 12 -10 15 -9 15 3 0 11 5 14 16 10 9 -3 19 -1 23 4 8 13 90
33 96 23 2 -4 16 -5 30 -2 18 3 25 0 23 -9 -2 -7 3 -14 10 -15 6 -1 17 -2 22
-3 6 0 10 -6 10 -13 0 -6 7 -19 16 -29 10 -11 15 -35 15 -71 -2 -103 -6 -158
-13 -158 -4 0 -5 -15 -3 -32 5 -47 -18 -164 -33 -160 -7 1 -12 -2 -12 -8 0 -5
5 -10 11 -10 5 0 7 -5 4 -10 -4 -6 -11 -7 -17 -4 -6 4 -8 2 -5 -3 4 -6 0 -17
-9 -24 -14 -12 -14 -14 3 -20 15 -7 15 -8 -6 -8 -16 -1 -21 -5 -18 -15 4 -10
-2 -18 -16 -22 -11 -4 -27 -13 -35 -20 -17 -17 -45 -18 -88 -2 -27 10 -37 9
-59 -6 -19 -13 -52 -18 -117 -21 -61 -2 -93 -7 -98 -16 -7 -10 -14 -11 -36 0
-15 7 -30 8 -33 3 -8 -12 -74 -24 -66 -12 4 6 -15 8 -49 6 -31 -3 -56 -1 -56
5 0 5 -7 9 -15 9 -13 0 -15 -224 -15 -1905 l0 -1905 4800 0 4800 0 0 884 c0
776 -2 885 -15 890 -9 3 -15 0 -15 -10 0 -10 -5 -12 -12 -7 -19 11 -91 11
-105 0 -9 -6 -13 -6 -13 2 0 6 -7 11 -15 11 -8 0 -15 -4 -15 -10 0 -5 -7 -10
-15 -10 -8 0 -15 5 -15 11 0 6 -9 8 -22 3 -25 -8 -76 -8 -125 0 -18 3 -33 2
-33 -2 0 -5 -32 -9 -72 -10 -40 -2 -75 -8 -79 -13 -3 -6 -17 -7 -31 -4 -17 4
-31 1 -42 -10 -9 -9 -16 -12 -16 -6 0 6 -9 11 -20 11 -22 0 -27 -15 -7 -23 6
-3 -3 -6 -20 -6 -18 -1 -33 -5 -33 -10 0 -4 -15 -9 -32 -9 -62 -2 -67 -3 -61
-18 3 -9 0 -12 -8 -9 -11 4 -14 -17 -14 -112 0 -110 -2 -122 -29 -178 -66
-138 -173 -250 -356 -373 -392 -265 -1078 -480 -1765 -552 -384 -41 -1106 -54
-1373 -26 -74 8 -135 16 -137 18 -13 13 97 79 141 84 78 9 208 64 225 95 10
19 17 21 63 16 28 -3 60 -2 71 2 19 8 19 8 -2 19 -29 16 -65 15 -105 -2 -18
-8 -49 -21 -70 -30 -20 -9 -39 -16 -42 -16 -4 0 -42 -16 -84 -36 -42 -20 -97
-43 -122 -50 -25 -7 -70 -22 -100 -34 -30 -12 -63 -24 -72 -27 -10 -3 -18 -10
-18 -15 0 -5 -4 -7 -8 -4 -5 3 -19 -4 -30 -15 -12 -11 -22 -18 -22 -15 0 3
-17 -2 -37 -10 -34 -15 -38 -14 -49 1 -11 15 -13 15 -17 -2 -3 -14 -6 -12 -16
11 -12 31 -6 50 9 26 8 -13 10 -13 10 1 0 16 83 56 107 51 6 -1 14 2 18 8 3 5
15 10 25 10 10 0 20 4 22 9 2 5 46 22 98 39 52 17 122 42 156 56 33 14 72 27
85 29 13 2 71 27 129 54 106 52 383 173 393 173 4 0 106 47 229 104 123 56
273 120 335 140 61 21 129 50 151 66 54 39 103 63 110 54 4 -4 2 -9 -4 -11 -6
-2 -20 -11 -30 -19 -11 -8 -1 -6 23 6 23 11 50 20 60 21 16 0 16 1 -2 9 -18 8
-17 9 7 9 l27 1 -24 25 c-14 13 -25 31 -25 40 0 9 -5 13 -11 9 -7 -4 -9 -21
-6 -41 6 -33 5 -35 -18 -29 -13 3 -25 2 -27 -2 -2 -5 -14 -12 -28 -15 -24 -6
-26 -4 -22 27 3 22 12 38 27 46 32 17 54 59 36 69 -10 6 -10 17 -2 47 6 21 12
49 13 62 2 12 8 21 13 20 6 -2 9 -7 7 -13 -2 -5 0 -25 3 -44 6 -33 8 -34 18
-15 7 12 24 35 38 52 24 28 31 30 65 25 40 -7 81 -42 190 -166 49 -57 65 -69
99 -74 22 -3 50 -14 62 -23 23 -18 46 -17 127 5 22 6 28 5 24 -6 -10 -32 -158
-50 -192 -24 -11 8 -24 15 -30 15 -5 0 -2 -6 8 -13 15 -11 8 -13 -46 -15 -71
-3 -96 -17 -49 -27 72 -16 12 -24 -116 -16 -13 0 -23 5 -23 10 0 4 12 7 28 4
15 -2 7 3 -18 12 -25 8 -64 15 -87 15 -40 0 -43 -2 -43 -27 0 -20 -3 -24 -9
-14 -6 8 -14 10 -22 5 -8 -5 -25 -10 -38 -12 -14 -2 -43 -12 -65 -22 -63 -29
-21 -36 57 -11 61 21 67 21 105 6 33 -13 62 -16 144 -11 89 5 270 7 287 4 3
-1 25 4 49 11 24 7 49 10 55 8 7 -2 -8 -8 -33 -12 -45 -8 -45 -9 54 -25 l98
-16 77 75 c42 41 75 78 74 81 -1 3 43 30 99 60 90 50 102 59 119 99 l20 45
-21 -19 c-11 -10 -20 -14 -20 -10 0 17 25 80 38 93 15 17 16 52 0 52 -6 0 -20
-8 -31 -18 -25 -21 -16 -3 24 49 24 31 27 39 15 54 -11 16 -15 14 -37 -21 -13
-21 -28 -46 -34 -56 -10 -18 -26 -23 -38 -12 -4 4 16 34 43 66 28 33 50 65 50
71 0 18 -80 65 -130 76 -62 14 -153 14 -171 -1 -23 -19 -49 -65 -49 -86 0 -23
30 -52 53 -52 25 0 20 -15 -8 -28 -53 -24 -97 -10 -113 37 -6 16 -8 39 -5 50
4 17 1 21 -18 21 -23 1 -23 2 9 29 17 15 32 31 32 35 0 4 -17 7 -37 5 -21 -1
-46 2 -57 6 -11 5 -29 2 -47 -9 -39 -23 -53 -13 -34 24 21 40 18 117 -5 168
-23 51 -118 153 -212 229 -38 29 -68 58 -68 62 0 5 34 37 75 71 41 35 73 65
70 68 -7 7 15 32 27 32 6 0 4 -8 -3 -18 -13 -15 -12 -16 3 -3 10 7 15 17 13
22 -6 9 294 226 307 221 4 -1 8 2 8 8 0 5 6 10 13 10 13 1 21 7 274 189 414
300 543 440 583 631 7 36 16 69 20 73 4 4 38 3 76 -2 87 -13 140 -18 295 -31
68 -6 156 -15 194 -20 65 -9 120 -14 255 -25 47 -4 220 -22 383 -40 l47 -6 0
1416 0 1415 -4800 -1 -4800 0 0 -1003z m2779 882 c11 -10 14 -10 18 0 6 17 48
15 63 -3 7 -8 19 -15 26 -15 8 0 14 -4 14 -8 0 -4 22 -16 48 -25 65 -24 93
-51 167 -162 22 -33 43 -61 48 -63 4 -2 7 -9 7 -16 0 -7 10 -24 23 -38 12 -14
31 -42 42 -64 10 -21 24 -46 31 -54 34 -42 94 -224 98 -295 1 -11 5 -23 9 -26
14 -10 9 -113 -8 -153 -9 -21 -14 -45 -11 -53 3 -7 -1 -16 -9 -19 -8 -4 -15
-13 -15 -21 0 -8 -7 -21 -16 -30 -8 -9 -13 -22 -10 -29 3 -8 -1 -14 -8 -14 -7
0 -25 -9 -39 -20 -14 -11 -28 -16 -31 -11 -4 5 -24 12 -45 16 -35 6 -45 15
-90 80 -28 41 -51 79 -51 85 0 10 -20 51 -30 60 -9 8 -72 153 -81 185 -15 55
-49 148 -59 160 -5 6 -31 53 -57 104 -69 135 -73 141 -84 141 -6 0 -8 4 -5 9
3 4 -1 17 -9 27 -8 10 -15 27 -15 37 0 9 -4 17 -8 17 -10 0 -29 107 -24 133 2
9 10 17 18 17 8 0 14 5 14 11 0 5 5 7 10 4 6 -3 10 -1 10 6 0 11 28 38 41 39
3 0 11 -6 18 -12z m3396 -1058 c364 -27 743 -113 969 -220 214 -101 309 -255
246 -396 -36 -81 -156 -491 -147 -501 2 -1 21 22 42 53 21 30 57 71 80 90 42
34 193 110 202 101 2 -3 -4 -8 -14 -11 -14 -4 -18 -15 -17 -46 1 -22 -2 -43
-7 -46 -5 -3 -8 -2 -7 3 2 4 0 9 -4 11 -5 1 -8 0 -8 -3 0 -3 0 -9 0 -15 0 -14
26 -12 59 4 23 12 27 20 23 45 -2 17 1 37 7 45 9 11 9 15 -1 19 -23 8 85 22
167 21 120 -1 250 -47 363 -127 53 -38 111 -123 109 -159 l-2 -27 -40 38 c-61
60 -132 98 -225 122 -47 12 -94 28 -105 36 -26 17 -164 17 -230 -1 -77 -20
-203 -86 -256 -134 -26 -23 -49 -37 -51 -31 -2 6 -24 -6 -48 -26 -36 -30 -46
-34 -48 -21 -2 9 -7 14 -12 11 -4 -3 -6 4 -3 16 7 24 -17 45 -29 26 -5 -8 -8
-4 -8 11 0 15 -6 22 -20 22 -11 0 -20 -4 -20 -9 0 -5 -10 -31 -22 -58 l-21
-48 -8 30 c-7 30 -7 30 -15 6 -7 -23 -8 -24 -15 -5 -12 29 -10 94 2 94 6 0 8
9 4 21 -5 14 -3 19 3 15 6 -3 13 -2 16 3 4 5 -3 12 -14 16 -11 3 -20 10 -20
15 0 12 -44 -1 -53 -17 -4 -7 -19 -13 -32 -13 -14 0 -25 -4 -25 -8 0 -15 -62
-45 -69 -33 -5 7 -19 2 -43 -14 -21 -14 -41 -25 -45 -25 -5 0 -19 -14 -33 -31
-29 -35 -104 -89 -125 -89 -7 0 -26 -13 -42 -28 -17 -18 -48 -34 -81 -41 -28
-7 -52 -17 -52 -21 0 -5 -13 -17 -29 -26 -17 -10 -27 -22 -24 -27 4 -6 1 -7
-7 -2 -7 4 -15 4 -19 -1 -14 -20 -91 -54 -120 -54 -17 0 -31 -4 -31 -9 0 -12
-139 -39 -245 -48 -194 -17 -647 -7 -750 16 -22 5 -67 14 -100 21 -70 13 -193
40 -215 47 -8 2 -16 4 -17 4 -2 0 -39 13 -83 29 -124 46 -170 74 -251 151 -42
41 -42 42 -149 419 -33 118 -67 232 -75 253 -19 47 -19 108 -1 150 24 58 123
146 213 188 216 101 597 191 930 218 146 12 538 12 698 1z m1415 -1004 c0 -2
-9 -6 -20 -9 -11 -3 -18 -1 -14 4 5 9 34 13 34 5z m-130 -60 c0 -3 -15 -14
-32 -26 l-33 -22 28 26 c27 25 37 31 37 22z m761 -103 c13 -16 12 -17 -3 -4
-10 7 -18 15 -18 17 0 8 8 3 21 -13z m-7691 -92 c0 -10 -42 -23 -49 -15 -7 6
20 24 37 24 6 0 12 -4 12 -9z m6645 -80 l-6 -38 58 -6 c32 -3 101 -11 153 -17
52 -6 147 -15 210 -21 63 -6 131 -13 150 -15 19 -2 71 -8 115 -14 44 -6 96
-12 115 -15 111 -13 243 -34 248 -40 2 -2 -4 -31 -14 -64 -16 -57 -16 -64 0
-103 16 -41 16 -43 -11 -83 -66 -99 -195 -212 -513 -450 -102 -76 -192 -145
-200 -153 -19 -20 -29 -27 175 123 380 281 514 405 579 537 21 41 40 94 43
117 3 23 10 44 14 47 11 6 3 -43 -19 -115 -32 -108 -134 -232 -303 -367 -41
-34 -262 -201 -491 -371 -228 -171 -419 -316 -423 -324 -5 -8 1 -5 13 5 12 11
24 17 27 15 5 -5 -99 -89 -110 -89 -4 0 -1 8 6 18 11 14 10 14 -8 -2 -13 -10
-21 -22 -18 -26 2 -4 -12 -22 -31 -41 -64 -62 -79 -101 -84 -216 0 -7 -4 -13
-10 -13 -20 0 -11 84 17 160 3 8 8 24 10 35 2 10 12 29 23 40 11 12 20 25 20
31 -1 5 -23 -16 -51 -46 -39 -44 -51 -52 -58 -41 -8 12 -11 8 -16 -15 -3 -16
-13 -53 -22 -82 -10 -35 -15 -88 -14 -149 2 -77 -1 -99 -15 -114 -25 -28 -34
-14 -34 49 0 76 -12 94 -39 61 -28 -33 -59 -99 -71 -151 -5 -24 -20 -80 -34
-125 -23 -77 -24 -85 -11 -140 14 -57 19 -113 11 -113 -2 0 -11 -3 -19 -6 -10
-3 -19 6 -27 28 l-13 33 -10 -37 c-15 -55 -45 -67 -105 -40 -26 12 -68 24 -94
26 -46 3 -47 2 -42 -20 7 -27 5 -28 -30 -14 -30 11 -34 27 -8 33 11 2 -4 13
-43 31 -33 15 -75 35 -94 44 -43 21 -141 117 -161 157 -8 17 -19 33 -23 36
-12 9 -34 91 -30 110 3 13 22 18 81 23 42 4 81 11 87 16 19 15 226 47 274 42
13 -2 32 5 42 14 10 9 19 14 19 11 0 -3 25 3 56 13 30 11 59 19 62 18 4 -1 44
17 90 41 101 53 182 126 182 163 0 15 5 30 11 34 8 4 8 9 0 17 -6 6 -11 22
-11 35 0 19 4 22 20 17 16 -5 20 -2 20 19 0 14 5 28 10 31 6 3 10 15 10 26 0
33 -32 18 -45 -21 -11 -31 -13 -33 -19 -14 -4 13 2 43 15 75 29 73 43 125 69
249 12 58 27 114 33 125 26 48 307 994 307 1032 0 7 3 13 6 13 3 0 3 -17 -1
-39z m-2260 -1075 c77 -202 83 -219 84 -265 1 -25 5 -49 8 -54 9 -15 19 -177
10 -177 -4 0 -7 -6 -6 -12 6 -46 -19 -51 -50 -10 -19 25 -20 25 -21 6 0 -54
104 -161 195 -199 56 -24 68 -26 76 -14 7 11 9 11 9 -3 0 -10 6 -19 13 -19 6
-1 22 -3 35 -4 46 -5 143 -28 147 -35 3 -5 14 -6 25 -3 11 3 26 1 33 -5 13
-11 162 -33 230 -34 20 0 37 -4 37 -9 0 -5 -6 -9 -13 -9 -7 0 -13 -9 -14 -19
-1 -14 3 -18 14 -14 13 5 15 2 10 -11 -4 -11 3 -38 18 -68 14 -27 25 -56 25
-63 0 -8 10 -21 22 -29 18 -13 19 -16 6 -16 -9 0 -17 -8 -17 -17 -2 -67 -5
-93 -11 -93 -4 0 -7 -12 -7 -27 0 -16 2 -23 4 -16 2 7 11 9 19 6 8 -3 21 0 29
7 8 6 19 9 25 5 13 -8 12 12 -4 57 -19 53 5 58 38 7 15 -21 31 -39 36 -39 6 0
10 -6 10 -13 0 -7 13 -21 30 -30 16 -10 39 -31 51 -48 18 -25 20 -35 10 -55
-9 -21 -8 -24 12 -24 18 0 19 -2 7 -10 -8 -5 -59 -10 -112 -10 -83 0 -96 2
-92 15 4 8 1 15 -5 15 -6 0 -11 -7 -11 -16 0 -14 -15 -15 -127 -9 -71 4 -146
11 -168 17 -22 6 -53 12 -70 14 -16 3 -40 7 -52 9 -12 3 -24 1 -28 -5 -6 -10
57 -30 175 -56 89 -19 468 -30 544 -15 39 7 52 6 63 -5 12 -12 12 -14 -4 -12
-10 0 -45 0 -79 0 -56 -2 -62 -4 -74 -30 l-14 -27 -4 27 -3 28 -122 -6 c-69
-3 -133 -12 -147 -19 -23 -12 -22 -13 30 -19 30 -3 106 -8 168 -10 131 -6 142
-12 142 -80 0 -70 38 -52 39 19 1 23 -2 26 -9 15 -8 -12 -10 -10 -10 8 0 15 4
21 11 16 6 -3 15 0 20 7 15 26 18 3 7 -63 -10 -54 -16 -68 -33 -72 -26 -7
-498 -11 -511 -5 -19 10 -237 4 -241 -6 -3 -11 147 -66 160 -58 4 2 7 14 8 26
1 21 1 21 8 -2 10 -37 47 -43 258 -44 106 0 192 -1 190 -2 -1 -1 -40 -19 -87
-40 -47 -21 -137 -68 -200 -106 -63 -37 -140 -75 -170 -85 -73 -23 -351 -122
-370 -133 -8 -4 -28 -15 -45 -23 -16 -9 -77 -33 -135 -53 -58 -21 -154 -62
-214 -91 -60 -30 -119 -54 -131 -54 -12 0 -36 -11 -54 -24 -37 -28 -58 -25
-67 10 -12 48 4 74 58 98 l52 23 -45 16 c-24 8 -100 27 -169 42 -69 15 -192
47 -273 71 -82 24 -161 44 -175 44 -15 0 -45 -11 -67 -25 -95 -58 -138 -66
-180 -31 -28 23 -30 28 -30 98 l0 75 -98 52 c-236 126 -436 291 -516 424 -66
111 -85 179 -85 302 0 92 4 121 26 181 55 155 207 319 383 414 90 48 105 65
105 119 0 113 40 264 77 288 21 14 26 13 60 -7 40 -24 327 -100 375 -100 16 0
45 7 66 16 68 29 455 121 629 150 l171 29 6 38 c4 21 -1 80 -9 130 -9 51 -18
106 -20 122 -3 17 9 -8 25 -54 16 -46 50 -138 75 -205z m199 -682 c3 -8 2 -12
-4 -9 -6 3 -10 10 -10 16 0 14 7 11 14 -7z m1740 -8 c-3 -8 -9 -36 -14 -62
l-8 -49 -1 56 c0 31 2 59 6 62 11 12 23 7 17 -7z m170 -22 c7 -18 -18 -64 -33
-64 -25 0 -41 14 -41 36 0 38 61 61 74 28z m-1642 -36 c-7 -7 -12 -8 -12 -2 0
14 12 26 19 19 2 -3 -1 -11 -7 -17z m48 -4 c0 -2 -7 -4 -15 -4 -8 0 -15 4 -15
10 0 5 7 7 15 4 8 -4 15 -8 15 -10z m1488 7 c12 -7 11 -13 -1 -37 -15 -29 -53
-74 -62 -74 -3 0 -5 24 -5 54 0 49 2 55 23 59 12 2 24 5 27 5 3 1 11 -2 18 -7z
m-1111 -143 c-3 -7 -5 -2 -5 12 0 14 2 19 5 13 2 -7 2 -19 0 -25z m1779 -65
c-11 -11 -19 6 -11 24 8 17 8 17 12 0 3 -10 2 -21 -1 -24z m74 9 c0 -13 -12
-22 -22 -16 -10 6 -1 24 13 24 5 0 9 -4 9 -8z m-1812 -72 c0 -9 -3 -7 -8 5 -5
11 -8 29 -8 40 0 16 2 15 8 -5 4 -14 8 -32 8 -40z m1134 -90 c3 -39 0 -45 -17
-45 -16 0 -22 10 -29 48 -8 39 -7 50 5 57 22 14 38 -9 41 -60z m-264 8 c-2
-13 -7 -23 -13 -23 -5 0 -11 10 -13 23 -2 15 2 22 13 22 11 0 15 -7 13 -22z
m977 -127 c-3 -6 -14 -11 -23 -11 -13 0 -13 2 4 14 21 15 30 14 19 -3z m-47
-32 c-2 -13 -26 -38 -59 -61 -44 -31 -61 -38 -82 -33 -15 4 -27 10 -27 14 0 4
25 28 56 54 39 33 65 47 86 47 24 0 29 -4 26 -21z m-255 -73 c1 -5 -10 -18
-24 -28 -22 -16 -30 -18 -48 -9 -27 15 -27 23 2 38 25 13 67 12 70 -1z m-881
-56 c-2 -3 -7 1 -9 8 -3 6 -12 12 -21 13 -13 0 -13 2 3 8 14 6 22 4 26 -8 4
-9 4 -18 1 -21z m-235 24 c-3 -3 -12 -4 -19 -1 -8 3 -5 6 6 6 11 1 17 -2 13
-5z m171 -11 c-9 -9 -30 -17 -45 -19 -171 -15 -168 -15 -148 -3 17 11 130 33
190 38 18 1 18 0 3 -16z m-223 -3 c-11 -5 -27 -9 -35 -9 -13 -1 -13 0 0 9 8 5
24 9 35 9 l20 0 -20 -9z m325 -10 c0 -5 -4 -10 -10 -10 -5 0 -10 5 -10 10 0 6
5 10 10 10 6 0 10 -4 10 -10z m-212 -121 c-15 -45 -25 -60 -49 -70 -20 -8 -26
-14 -18 -20 7 -4 3 -7 -12 -7 -13 1 -50 -3 -81 -7 -33 -4 -58 -4 -58 1 1 5 9
38 18 74 l17 65 75 7 c41 4 82 9 90 11 36 7 37 3 18 -54z m1096 37 c5 -19 11
-23 28 -19 19 4 20 3 8 -6 -8 -6 -25 -11 -37 -11 -12 0 -24 -4 -27 -9 -7 -10
-56 -2 -56 9 0 5 9 11 19 15 12 4 18 12 14 21 -3 7 0 14 6 14 6 0 11 -7 11
-15 0 -8 5 -15 11 -15 6 0 8 9 4 20 -3 11 -2 20 3 20 6 0 13 -11 16 -24z
m-934 -14 c0 -12 -70 -41 -76 -31 -3 5 10 15 28 23 39 17 48 19 48 8z m347
-27 c-5 -16 -43 -17 -55 -2 -9 11 -5 13 23 13 19 -1 34 -5 32 -11z m321 -2 c2
-8 -5 -13 -17 -13 -12 0 -21 6 -21 16 0 18 31 15 38 -3z m-1512 -159 c1 -21
-12 -24 -48 -10 -10 3 -26 9 -35 12 -17 6 -17 7 0 13 10 4 33 6 50 6 25 -1 32
-5 33 -21z m349 7 c3 -5 1 -12 -5 -16 -5 -3 -10 1 -10 9 0 18 6 21 15 7z
m1945 -316 c0 -20 -36 -55 -55 -55 -25 0 -76 30 -70 40 7 12 61 28 98 29 18 1
27 -4 27 -14z m-2822 -295 c23 -6 59 -13 80 -16 20 -3 44 -10 53 -15 9 -4 18
-6 21 -4 2 2 20 0 39 -5 65 -18 531 -66 687 -71 54 -2 76 -13 44 -21 -38 -10
-461 -9 -572 2 -202 19 -405 54 -557 96 -87 24 108 56 205 34z"/>
<path d="M5914 4865 c-10 -24 3 -44 33 -51 15 -4 37 -14 48 -24 20 -17 48 -30
73 -36 8 -1 17 -6 20 -10 4 -4 -1 -4 -10 -1 -10 4 -18 2 -18 -3 0 -6 8 -10 18
-10 11 0 24 -11 30 -24 20 -44 79 -80 127 -77 19 1 19 1 0 16 -11 8 -37 28
-59 45 -21 16 -43 27 -49 23 -5 -3 -7 -1 -4 4 4 6 0 16 -8 23 -8 7 -15 19 -15
27 0 10 -6 12 -19 8 -14 -4 -28 5 -55 36 -19 23 -33 45 -31 49 3 5 -2 11 -11
14 -28 11 -65 6 -70 -9z"/>
<path d="M6126 4781 c-4 -5 3 -7 14 -4 23 6 26 13 6 13 -8 0 -17 -4 -20 -9z"/>
<path d="M5167 4649 c7 -7 67 -15 150 -20 76 -5 178 -14 226 -20 49 -6 91 -9
93 -6 3 3 -19 8 -48 12 -29 3 -93 12 -143 20 -139 21 -293 29 -278 14z"/>
<path d="M5090 4641 c8 -4 29 -11 45 -15 19 -4 25 -3 15 3 -8 4 -28 11 -45 15
-19 4 -25 3 -15 -3z"/>
<path d="M6351 4573 c1 -17 18 -47 18 -35 1 10 6 10 22 2 37 -20 45 -4 9 18
-37 23 -50 27 -49 15z"/>
<path d="M4540 4435 c0 -10 48 -35 93 -49 26 -8 47 -12 47 -10 0 4 -126 64
-135 64 -3 0 -5 -2 -5 -5z"/>
<path d="M7085 4099 c-11 -16 -1 -19 13 -3 7 8 8 14 3 14 -5 0 -13 -5 -16 -11z"/>
<path d="M7439 2703 c-13 -16 -12 -17 4 -4 16 13 21 21 13 21 -2 0 -10 -8 -17
-17z"/>
<path d="M7399 2673 c-13 -16 -12 -17 4 -4 9 7 17 15 17 17 0 8 -8 3 -21 -13z"/>
<path d="M7359 2643 c-13 -16 -12 -17 4 -4 16 13 21 21 13 21 -2 0 -10 -8 -17
-17z"/>
<path d="M7289 2593 c-13 -16 -12 -17 4 -4 16 13 21 21 13 21 -2 0 -10 -8 -17
-17z"/>
<path d="M7239 2553 c-13 -16 -12 -17 4 -4 9 7 17 15 17 17 0 8 -8 3 -21 -13z"/>
<path d="M7169 2503 c-13 -16 -12 -17 4 -4 16 13 21 21 13 21 -2 0 -10 -8 -17
-17z"/>
<path d="M7089 2443 c-13 -16 -12 -17 4 -4 16 13 21 21 13 21 -2 0 -10 -8 -17
-17z"/>
<path d="M6620 1985 c-14 -8 -20 -14 -14 -15 5 0 19 7 30 15 24 18 16 19 -16
0z"/>
<path d="M5890 1729 c0 -5 5 -7 10 -4 6 3 10 8 10 11 0 2 -4 4 -10 4 -5 0 -10
-5 -10 -11z"/>
<path d="M5117 1466 c-3 -8 0 -17 7 -19 10 -4 12 1 9 14 -6 23 -9 24 -16 5z"/>
<path d="M5180 1459 c0 -5 5 -7 10 -4 6 3 10 8 10 11 0 2 -4 4 -10 4 -5 0 -10
-5 -10 -11z"/>
<path d="M5890 1450 c0 -5 5 -10 10 -10 6 0 10 5 10 10 0 6 -4 10 -10 10 -5 0
-10 -4 -10 -10z"/>
<path d="M5196 1434 c-5 -14 -4 -15 9 -4 11 10 18 10 29 1 9 -7 17 -8 20 -3 6
10 -15 22 -39 22 -7 0 -16 -7 -19 -16z"/>
<path d="M5800 1435 c-14 -17 -14 -17 21 -19 23 -2 25 0 15 16 -13 22 -20 22
-36 3z"/>
<path d="M5020 1427 c0 -7 -14 -32 -31 -55 -20 -28 -32 -55 -33 -80 -1 -34 -3
-37 -28 -35 -18 1 -28 -3 -28 -12 0 -16 32 -39 110 -79 30 -16 69 -39 85 -51
37 -26 77 -43 58 -24 -22 22 -15 28 25 23 l37 -4 -41 20 c-28 13 -44 28 -48
45 -4 14 -11 23 -16 20 -16 -10 -70 28 -77 53 -8 32 3 39 28 16 20 -18 20 -18
14 8 -7 26 -6 27 37 22 23 -2 56 -7 72 -10 26 -6 29 -5 23 15 -3 15 1 29 13
41 19 19 18 20 -31 45 -28 14 -61 25 -73 25 -12 0 -31 7 -42 15 -24 18 -54 19
-54 2z"/>
<path d="M5308 1383 c7 -3 16 -2 19 1 4 3 -2 6 -13 5 -11 0 -14 -3 -6 -6z"/>
<path d="M5348 1373 c7 -3 16 -2 19 1 4 3 -2 6 -13 5 -11 0 -14 -3 -6 -6z"/>
<path d="M5655 1350 c-8 -14 13 -22 31 -12 14 8 14 10 -5 15 -11 3 -23 1 -26
-3z"/>
<path d="M5363 1307 c4 -12 47 -18 47 -6 0 3 -11 9 -25 12 -15 2 -24 0 -22 -6z"/>
<path d="M5090 1250 c0 -5 5 -10 10 -10 6 0 10 5 10 10 0 6 -4 10 -10 10 -5 0
-10 -4 -10 -10z"/>
<path d="M5487 1240 c5 -18 12 -21 52 -18 46 3 60 21 19 24 -13 1 -35 5 -50 9
-24 6 -26 4 -21 -15z"/>
<path d="M5513 1163 c-27 -10 -11 -73 18 -73 20 0 26 24 9 35 -6 4 -8 15 -5
26 6 19 1 22 -22 12z"/>
<path d="M6015 1100 c-3 -5 -1 -10 4 -10 6 0 11 5 11 10 0 6 -2 10 -4 10 -3 0
-8 -4 -11 -10z"/>
<path d="M610 3860 c0 -5 5 -10 10 -10 6 0 10 5 10 10 0 6 -4 10 -10 10 -5 0
-10 -4 -10 -10z"/>
<path d="M6622 1152 c-34 -14 -60 -27 -58 -29 2 -2 37 10 77 26 41 17 67 30
59 30 -8 -1 -43 -12 -78 -27z"/>
<path d="M6418 1038 c-7 -7 -20 -14 -28 -16 -8 -2 -16 -8 -18 -13 -2 -5 -11
-9 -20 -9 -9 0 -26 -8 -37 -17 l-20 -16 20 7 c91 31 154 60 143 68 -18 11 -24
10 -40 -4z"/>
<path d="M6200 940 c-8 -5 -10 -10 -5 -10 6 0 17 5 25 10 8 5 11 10 5 10 -5 0
-17 -5 -25 -10z"/>
<path d="M6473 876 c-23 -8 -72 -40 -110 -71 -69 -59 -208 -155 -224 -155 -5
0 -9 -4 -9 -10 0 -31 604 31 840 86 l75 17 -75 13 c-90 15 -161 39 -274 93
-92 45 -145 51 -223 27z"/>
<path d="M5805 781 c-22 -11 -34 -20 -27 -20 14 -1 72 27 72 34 0 7 0 7 -45
-14z"/>
</g>
</svg>
